<?xml version="1.0" encoding="UTF-8"?>
<svg id="Layer_1" xmlns="http://www.w3.org/2000/svg" version="1.1" viewBox="0 0 121.7 121.9">
  <!-- Generator: Adobe Illustrator 29.3.1, SVG Export Plug-In . SVG Version: 2.1.0 Build 151)  -->
  <defs>
    <style>
      .st0 {
        fill: #2867b1;
      }
    </style>
  </defs>
  <path class="st0" d="M113.2,0H8.5C4,.4.3,3.6,0,8.2v105.5c.3,4.7,4.1,7.9,8.7,8.2h104.6c4.1-.4,7.4-3.2,8.3-7.2V7.8c-.5-4.5-4-7.5-8.5-7.8ZM35.9,103.7h-18v-58h18v58ZM27.9,37.8c-13.5,1-15.4-19.6-1.8-20.8,13.8-1.3,15.4,19.8,1.8,20.8ZM103.7,103.7h-18v-31.5c.3-8.8-5.7-15-14.6-11.1-3.3,1.4-5.7,6.3-5.7,9.8v32.9h-18v-58h17.1v8c.4,0,.4-.1.6-.4.9-1.1,1.6-2.4,2.7-3.5,5.6-5.7,14.2-6.6,21.7-4.7,11.6,2.9,13.7,13.8,14.1,24.3.4,11.3-.3,22.9,0,34.2Z"/>
</svg>