<?xml version="1.0" encoding="UTF-8"?>
<svg id="Layer_1" xmlns="http://www.w3.org/2000/svg" version="1.1" viewBox="0 0 22.7 22.7">
  <!-- Generator: Adobe Illustrator 29.3.1, SVG Export Plug-In . SVG Version: 2.1.0 Build 151)  -->
  <path d="M10.1,9c0-.9-.7-1.4-1.7-1.4s-.7,0-.9,0v2.8c.2,0,.4,0,.8,0,1.2,0,1.9-.6,1.9-1.6Z"/>
  <path d="M3.6,22.7h15.5c2,0,3.6-1.6,3.6-3.6V3.6c0-2-1.6-3.6-3.6-3.6H3.6C1.6,0,0,1.6,0,3.6v15.5c0,2,1.6,3.6,3.6,3.6ZM14.1,12.3c-1.2-.4-1.7-1.1-1.7-1.8,0-1.1.9-1.9,2.3-1.9s1.3.2,1.6.4l-.3,1.1c-.3-.1-.7-.4-1.3-.4s-.9.3-.9.6.3.6,1.1.9c1.1.4,1.6,1,1.6,1.9,0,1.1-.9,1.9-2.5,1.9s-1.4-.2-1.9-.4l.3-1.1c.3.2,1,.4,1.6.4s1-.3,1-.7-.3-.6-1-.9ZM6,6.5c.6,0,1.3-.2,2.4-.2s1.9.2,2.5.7c.5.4.8,1.1.8,1.9s-.2,1.5-.7,1.9c-.6.6-1.6.9-2.7.9s-.5,0-.8,0v3.2h-1.5V6.5Z"/>
</svg>