<?xml version="1.0" encoding="UTF-8"?>
<svg id="Layer_1" xmlns="http://www.w3.org/2000/svg" version="1.1" viewBox="0 0 22.7 22.7">
  <!-- Generator: Adobe Illustrator 29.3.1, SVG Export Plug-In . SVG Version: 2.1.0 Build 151)  -->
  <path d="M19.1,0H3.6C1.6,0,0,1.6,0,3.6v15.5c0,2,1.6,3.6,3.6,3.6h15.5c2,0,3.6-1.6,3.6-3.6V3.6c0-2-1.6-3.6-3.6-3.6ZM11.5,15.2l-.8-2.4h-2.7l-.7,2.4h-1.6l2.7-8.4h2l2.7,8.4h-1.7ZM15.7,15.2h-1.5v-6.1h1.5v6.1ZM14.9,8.2c-.5,0-.8-.4-.8-.8,0-.5.3-.8.9-.8s.9.4.9.8c0,.5-.3.8-.9.8Z"/>
  <path d="M9.4,8h0c-.1.5-.3,1.1-.4,1.6l-.7,2.1h2.2l-.7-2.1c-.2-.5-.3-1.1-.4-1.6Z"/>
</svg>