<?xml version="1.0" encoding="UTF-8"?>
<svg id="Layer_1" xmlns="http://www.w3.org/2000/svg" version="1.1" viewBox="0 0 53 59.8">
  <!-- Generator: Adobe Illustrator 29.3.1, SVG Export Plug-In . SVG Version: 2.1.0 Build 151)  -->
  <defs>
    <style>
      .st0 {
        fill: #fff;
      }

      .st1 {
        fill: none;
      }

      .st2 {
        opacity: .8;
      }
    </style>
  </defs>
  <g>
    <path class="st1" d="M44.3,34.9h0c-.4.5-.4,1.2,0,1.5.4.3,1.1.1,1.5-.4.4-.5.4-1.2,0-1.5-.4-.3-1.1-.2-1.5.4Z"/>
    <path class="st1" d="M42.2,25.7c-.6-.2-1.2.1-1.4.6-.1.5.3,1,.9,1.2.6.2,1.2-.1,1.4-.6.1-.5-.3-1-.9-1.2Z"/>
    <path d="M52.2,33.4l-3.3-.7c0-.1,0-.2,0-.3,0-2.4-.9-4.5-2.3-6.2l2.1-2.4c.3-.4.3-1,0-1.3-.4-.3-1-.3-1.3,0l-2,2.3c-1.6-1.3-3.7-2.1-5.9-2.1s-1.6.1-2.2.4l6.5,17.6c2.5-1.3,4.4-3.6,5-6.3l3.1.6c.5.1,1-.2,1.1-.7.1-.5-.2-1-.7-1.1ZM43.1,26.9c-.1.5-.7.8-1.4.6-.6-.2-1-.7-.9-1.2.1-.5.7-.8,1.4-.6.6.2,1,.7.9,1.2ZM45.9,36c-.4.5-1,.7-1.5.4-.4-.3-.4-1,0-1.5h0c.4-.5,1-.7,1.5-.4.4.3.4,1,0,1.5Z"/>
    <g>
      <path d="M7.5,27.9h0c-.5-.9-1.4-1.5-2.3-1.7-1-.2-2.1,0-3.1.5-.9.5-1.6,1.4-2,2.4-.3,1-.1,2.2.4,3.1h0c2.2,3.6,5.1,6.6,8.4,8.9l2.9-8c-1.7-1.4-3.1-3.1-4.3-5Z"/>
      <path d="M20.1,37.2l-2.8,7.7c5.7,1.6,12,1.5,17.9-.7l-2.8-7.7c-4.1,1.5-8.4,1.7-12.3.6Z"/>
      <g>
        <path d="M45.3,53.7c-.4.4-.9.6-1.4.8-.5.2-1,.3-1.6.3l2.4,4.4c.3.5.8.7,1.3.5.6-.2.9-.8.7-1.4,0,0-1.2-3.6-1.5-4.7Z"/>
        <path d="M7.5,53.7c-.3,1.1-1.5,4.7-1.5,4.7-.2.6.1,1.2.7,1.4.5.2,1.1,0,1.3-.5l2.4-4.5c-.5,0-1,0-1.5-.3-.5-.2-1-.5-1.4-.8Z"/>
      </g>
    </g>
  </g>
  <g>
    <path class="st2" d="M29.3,7.4V2.9c0-1.6-1.3-2.9-2.9-2.9s-2.9,1.3-2.9,2.9v4.4c.9-.4,1.8-.6,2.8-.6s2.1.2,3,.7Z"/>
    <path class="st1" d="M26.3,21c-.1,0-.2,0-.3,0l-5.9,16.2c4,1,8.2.9,12.3-.6l-5.7-15.6c-.1,0-.3,0-.4,0Z"/>
    <path class="st2" d="M19.2,13.9c0-.5,0-1,.2-1.5l-7.5,20.6-2.9,8-2.8,7.6c-.7,1.9,0,3.9,1.3,5.1.4.4.9.6,1.4.8.5.2,1,.3,1.5.3,1.9,0,3.7-1.1,4.4-3l2.5-6.8,2.8-7.7,5.9-16.2c-3.8-.2-6.8-3.3-6.8-7.1Z"/>
    <path class="st2" d="M46.6,48.6l-2.8-7.7-6.5-17.6-3.9-10.7c0,.4.1.9.1,1.3,0,3.8-3,6.9-6.8,7.1l5.7,15.6,2.8,7.7,2.8,7.5s0,0,0,0c.7,1.8,2.5,3,4.3,2.9.5,0,1,0,1.6-.3.5-.2,1-.5,1.4-.8,1.4-1.2,2-3.2,1.3-5Z"/>
    <path class="st0" d="M24.6,10.7c.2-.3.4-.6.6-.9-.4.1-.7.3-1.1.5.1.2.3.3.4.4Z"/>
    <path class="st0" d="M28.5,10.4c-.3-.2-.7-.3-1-.5.2.3.4.6.6.9.2-.1.3-.3.4-.4Z"/>
    <path d="M33.3,12.6c-.4-2.3-2-4.2-4-5.2-.9-.4-1.9-.7-3-.7s-2,.2-2.8.6c-2.1.9-3.7,2.8-4.2,5-.1.5-.2,1-.2,1.5,0,3.8,3,7,6.8,7.1.1,0,.2,0,.3,0s.3,0,.4,0c3.8-.2,6.8-3.3,6.8-7.1s0-.9-.1-1.3ZM27.1,18c-.3,0-.5,0-.8,0s-.5,0-.7,0c-2-.3-3.5-2-3.5-4.1s.8-2.8,2-3.6c.3-.2.7-.3,1.1-.5.3,0,.7-.2,1.1-.2s.8,0,1.2.2c.4.1.7.3,1,.5,1.2.7,1.9,2,1.9,3.5s-1.5,3.7-3.4,4.1Z"/>
  </g>
</svg>