<?xml version="1.0" encoding="UTF-8"?>
<svg id="Bun" xmlns="http://www.w3.org/2000/svg" version="1.1" viewBox="0 0 80 70">
  <!-- Generator: Adobe Illustrator 29.3.1, SVG Export Plug-In . SVG Version: 2.1.0 Build 151)  -->
  <path d="M29.5,18c-.3.2,0,.7.3.6,3.4-1.3,7.9-5.2,6-13.1,0-.5-.7-.3-.7,0,0,4.8-2,9.3-5.6,12.5Z"/>
  <path d="M40.2,5.4c3.9,2.7,6.4,7,6.8,11.8,0,.2.1.3.3.4.2,0,.3,0,.4-.3.9-3.5.4-9.4-7.2-12.5-.4-.2-.7.4-.3.6h0Z"/>
  <path d="M37.4,5.5c2.5,4,3.1,9,1.6,13.5-.1.3.3.7.5.4,2.2-2.8,4.1-8.4-1.6-14.4-.3-.3-.7.1-.5.5h0Z"/>
  <path d="M21.7,16.4c3.6.2,9.4-1.5,11.1-9.5,0-.4-.5-.5-.7-.2-2.1,4.4-5.9,7.6-10.5,9-.4.1-.4.6,0,.6Z"/>
  <g>
    <path d="M71.1,20.7c-.2-.2-.3-.3-.5-.5-.2-.2-.3-.3-.5-.5-.2-.2-.3-.3-.5-.5-.2-.2-.3-.3-.5-.5-.2-.2-.3-.3-.5-.5-.2-.2-.3-.3-.5-.5-.2-.1-.3-.3-.4-.4,0,0,0,0,0,0,0,0,0,0,0,0-2.4-2.5-5.3-4.7-8.7-6.5-3.7-2-6.5-3.7-9-5.3-1.1-.7-2.1-1.3-3.1-1.9-3.3-1.9-5.9-3.1-8.9-3.1s-6,1.4-9.5,3.5c-1.1.7-2.3,1.4-3.6,2.2-2.3,1.4-4.9,3-7.9,4.6C6.7,16.4.5,25.7.5,35.7s3.3,14,8.7,19.2c0,0,0,0,0,0h0s.5.5.5.5l.5.5.5.5.5.5.5.5.5.5.5.5c6.9,6.9,17.5,11.4,29.3,11.4,20.7,0,37.5-13.5,37.5-30s-3-13.8-8.4-19ZM73,24.9c-1.3-2.7-3.1-5.2-5.3-7.5,2.2,2.2,4,4.8,5.3,7.5ZM3,35.7c0-9.1,5.7-17.6,15.2-22.7,3-1.6,5.7-3.3,8-4.7,1.2-.8,2.4-1.5,3.5-2.2,3.2-1.9,5.8-3.1,8.2-3.1s.9,0,1.3.1c0,0,.1,0,.2,0,1.9.3,3.8,1.2,6.2,2.7.9.5,1.9,1.2,3,1.8,2.4,1.5,5.3,3.4,9.1,5.4,8,4.3,13.2,10.9,14.8,18.3,0,0,0,.1,0,.2,0,.4.2.8.2,1.2,0,.2,0,.3,0,.5,0,.3,0,.7.1,1,0,.5,0,1,0,1.5,0,.5,0,.9,0,1.4-.9,14.5-16.3,26.1-35,26.1s-.5,0-.7,0c-4.5,0-8.7-.8-12.6-2.1-4.4-1.4-8.4-3.6-11.7-6.3,0,0,0,0,0,0-5.8-4.7-9.5-11.1-9.9-18.1,0-.4,0-.7,0-1.1Z"/>
    <path d="M30.5,43.1c.5,2,1.6,3.7,3.1,5,1.2,1.1,2.8,1.9,4.5,2,1.7-.1,3.2-.9,4.4-2,1.5-1.3,2.6-3.1,3.1-5,0-.4,0-.7-.2-1-.3-.3-.7-.5-1.1-.5h-12.3c-.4,0-.9.2-1.1.5-.2.3-.3.6-.3,1ZM31.9,42.8h12.3c0,0,.2,0,.2.1-.3,1.2-.9,2.4-1.7,3.3-.3.4-.6.7-1,1-1,1-2.3,1.6-3.6,1.7-1.4-.2-2.7-.8-3.7-1.8,0,0-.2-.2-.3-.3,1-1.3,2.5-2.1,4.2-2.1,1.5,0,2.9.6,4,1.7.1-.1.2-.3.4-.4.1-.1.2-.2.3-.4-1.3-1.2-3-1.9-4.7-1.9-1.9,0-3.7.9-4.9,2.3-.8-1-1.4-2.1-1.7-3.4,0,0,0,0,.2,0Z"/>
    <path d="M48.3,38.3c.7.3,1.4.5,2.2.5,1.7,0,3.2-.7,4.2-1.9.8-1,1.3-2.2,1.3-3.5,0-3-2.4-5.5-5.5-5.5-3,0-5.5,2.4-5.5,5.5,0,0,0,0,0,0,0,2.3,1.3,4.2,3.3,5ZM46.7,31.6c0-1.1.9-2.1,2.1-2.1,1.1,0,2.1.9,2.1,2.1,0,1.1-.9,2.1-2.1,2.1h0c-1.1,0-2-.9-2-2.1h0Z"/>
    <path d="M25.7,38.8c.8,0,1.5-.2,2.2-.5,2-.8,3.3-2.8,3.3-5,0-3-2.5-5.5-5.5-5.5-3,0-5.5,2.5-5.5,5.5h0c0,1.4.5,2.6,1.3,3.6,1,1.2,2.5,1.9,4.2,2ZM21.9,31.6c0-1.1.9-2.1,2.1-2.1,1.1,0,2.1.9,2.1,2.1,0,1.1-.9,2.1-2.1,2.1-1.1,0-2.1-.9-2.1-2.1h0Z"/>
  </g>
</svg>