<?xml version="1.0" encoding="UTF-8"?>
<svg id="Layer_1" xmlns="http://www.w3.org/2000/svg" version="1.1" xmlns:xlink="http://www.w3.org/1999/xlink" viewBox="0 0 31.6 24.7">
  <!-- Generator: Adobe Illustrator 29.3.1, SVG Export Plug-In . SVG Version: 2.1.0 Build 151)  -->
  <path d="M15.8,9.9l12.4,3.1c2.2-.8,3.4-1.9,3.4-3.1v-4.9c0-2.7-7.1-4.9-15.8-4.9S0,2.2,0,4.9v4.9c0,2.7,7.1,4.9,15.8,4.9v-4.9Z"/>
  <path d="M28.2,17.9l-12.4-3.1v4.9l12.4,3.1c2.2-.8,3.4-1.9,3.4-3.1v-4.9c0,1.2-1.3,2.2-3.4,3.1"/>
  <path d="M0,14.8v4.9c0,2.7,7.1,4.9,15.8,4.9v-4.9c-8.7,0-15.8-2.2-15.8-4.9"/>
</svg>