<?xml version="1.0" encoding="UTF-8" standalone="no"?>
<!DOCTYPE svg PUBLIC "-//W3C//DTD SVG 1.1//EN" "http://www.w3.org/Graphics/SVG/1.1/DTD/svg11.dtd">
<svg width="100%" height="100%" viewBox="0 0 64 64" version="1.1" xmlns="http://www.w3.org/2000/svg" xmlns:xlink="http://www.w3.org/1999/xlink" xml:space="preserve" xmlns:serif="http://www.serif.com/" style="fill-rule:evenodd;clip-rule:evenodd;stroke-linejoin:round;stroke-miterlimit:2;">
    <g transform="matrix(1.019007,0,0,1.019007,-0.608267,-0.85429)">
        <path d="M6.438,50.209C5.812,49.446 5.949,48.321 6.719,47.703L14.017,41.843C14.653,41.332 15.584,41.448 16.103,42.078C21.06,48.096 26.32,50.882 32.142,50.882C37.924,50.882 43.04,48.135 47.78,42.184C48.289,41.545 49.217,41.413 49.863,41.913L57.26,47.638C58.041,48.242 58.199,49.364 57.586,50.138C50.578,58.984 41.997,63.645 32.142,63.645C22.316,63.645 13.659,59.013 6.438,50.209Z"/>
    </g>
    <g transform="matrix(1.019007,0,0,1.019007,-0.608267,-0.85429)">
        <path d="M32.495,17.18C32.22,16.937 31.807,16.937 31.531,17.18L15.663,31.212C15.056,31.748 14.129,31.686 13.599,31.073L7.41,23.912C6.888,23.308 6.95,22.396 7.55,21.869L31.053,1.201C31.602,0.718 32.425,0.718 32.974,1.201L56.482,21.885C57.082,22.413 57.144,23.326 56.62,23.929L50.416,31.087C49.886,31.698 48.959,31.759 48.353,31.223L32.495,17.18Z"/>
    </g>
</svg>
