<?xml version="1.0" encoding="UTF-8" standalone="no"?>
<!DOCTYPE svg PUBLIC "-//W3C//DTD SVG 1.1//EN" "http://www.w3.org/Graphics/SVG/1.1/DTD/svg11.dtd">
<svg width="100%" height="100%" viewBox="0 0 500 500" version="1.1" xmlns="http://www.w3.org/2000/svg" xmlns:xlink="http://www.w3.org/1999/xlink" xml:space="preserve" xmlns:serif="http://www.serif.com/" style="fill-rule:evenodd;clip-rule:evenodd;stroke-linejoin:round;stroke-miterlimit:2;">
    <g transform="matrix(1.382943,0,0,1.382943,35.846407,-4.292106)">
        <path d="M269.798,323.181C269.714,322.673 268.98,322.74 269.522,321.508C270.389,319.535 272.766,316.606 273.088,316.209C277.085,311.285 271.528,313.911 271.324,314.008C264.477,317.273 218.378,336.461 215.833,340.682C215.399,341.401 214.955,349.096 218.591,347.781C218.689,347.746 246.5,333.374 265.615,326.83C270.145,325.279 270.185,325.53 274.614,323.826C280.745,321.468 287.405,319.506 288.486,319.581C289.021,319.619 290.805,320.678 288.269,322.143C282.773,325.318 282.165,324.28 276.65,328.694C273.656,331.091 270.14,332.699 272.183,333.976C272.62,334.249 294.989,328.001 290.649,332.625C289.111,334.264 278.928,333.118 230.418,350.272C219.663,354.074 198.797,362.424 198.521,365.503C198.215,368.916 184.018,367.51 185.582,366.654C186.972,365.893 202.25,357.532 202.649,356.6C203.592,354.4 200.704,353.736 198.364,352.872C193.152,350.948 191.127,355.546 176.568,368.577C170.309,374.179 153.65,367.834 153.628,367.487C153.517,365.731 148.988,365.525 133.566,362.185C90.151,352.785 89.898,353.863 45.497,353.716C45.125,353.715 39.518,353.696 41.432,351.441C42.285,350.436 68.379,347.981 81.5,348.504C83.903,348.599 102.215,349.328 111.486,350.634C116.431,351.33 114.682,348.73 114.478,348.519C112.465,346.441 70.186,334.539 56.449,332.954C54.395,332.717 51.429,332.161 51.415,333.498C51.406,334.341 55.259,336.927 59.309,339.777C59.736,340.078 63.801,342.291 62.659,343.649C61.09,345.513 57.392,340.219 41.504,333.491C36.133,331.217 39.171,329.628 39.515,329.549C41.046,329.194 60.034,329.702 70.472,331.653C82.395,333.881 82.785,333.301 83.093,332.338C83.189,332.037 83.547,330.916 81.154,328.905C78.165,326.394 78.286,325.964 79.061,322.392C80.055,317.804 77.456,318.5 46.243,294.848C36.13,287.184 34.588,288.213 32.391,281.533C29.675,273.279 19.825,278.725 19.784,269.495C19.699,249.977 19.876,250.011 18.993,230.493C18.534,220.326 18.546,206.58 18.548,204.5C18.552,199.157 19.759,198.783 16.85,194.266C11.693,186.258 18.527,180.711 15.452,177.547C12.9,174.923 4.769,178.271 5.138,171.479C5.145,171.353 7.915,141.736 7.94,141.567C8.989,134.285 23.779,146.663 25.951,139.644C29.195,129.163 28.202,126.464 27.805,125.385C27.446,124.408 24.024,115.108 22.489,113.51C20.734,111.683 18.445,114.733 16.743,110.413C14.73,105.301 18.689,105.675 18.538,102.498C18.416,99.91 -0.372,47.451 3.728,40.617C8.465,32.722 17.352,51.296 19.744,55.359C24.569,63.552 25.549,67.055 28.255,63.333C30.351,60.449 35.82,49.822 44.404,40.414C50.049,34.226 51.512,43.228 58.419,41.211C89.016,32.276 96.623,22.373 99.359,27.575C103.074,34.64 82.61,45.05 82.683,50.494C82.701,51.841 85.968,63.531 87.675,64.098C89.997,64.869 100.745,56.95 120.276,45.139C131.679,38.243 131.417,37.883 142.811,31C150.377,26.429 150.32,30.792 150.066,31.314C149.001,33.505 126.666,46.85 119.609,51.669C114.66,55.047 110.678,56.197 114.719,58.006C116.485,58.797 123.427,63.225 117.764,69.725C109.68,79.005 106.611,78.496 96.911,96.72C87.326,114.728 88.545,117.601 76.279,124.081C72.224,126.223 71.753,126.108 70.478,130.494C69.854,132.642 65.149,136.983 63.741,149.536C63.26,153.828 68.791,153.524 79.541,156.343C84.236,157.574 85.069,158.267 84.044,162.385C78.681,183.947 78.459,184.245 76.696,184.95C74.994,185.629 71.378,184.368 71.729,188.476C72.413,196.47 72.762,196.623 73.428,196.714C75.322,196.975 75.234,193.48 79.738,186.641C82.535,182.396 81.805,181.877 91.632,170.613C102.201,158.496 108.744,153.44 123.344,146.169C135.738,139.997 154.78,140.111 164.564,144.355C179.795,150.961 180.62,153.932 184.93,159.118C188.002,162.814 193.256,157.93 206.405,160.913C221.054,164.236 234.85,181.195 240.327,194.588C241.728,198.013 244.573,194.19 242.121,189.708C238.937,183.89 236.731,183.312 240.012,178.179C240.626,177.218 244.808,171.47 240.503,172.516C235.683,173.688 236,171.521 229.228,159.65C228.717,158.755 220.644,144.305 220.382,143.545C218.93,139.316 222.108,140.581 237.404,135.234C241.582,133.774 240.61,131.871 238.372,124.54C236.514,118.453 235.182,119.362 232.611,117.346C228.932,114.462 230.657,112.039 224.551,110.327C209.319,106.058 201.404,96.498 194.501,93.498C176.746,85.78 167.673,87.496 169.516,80.504C170.908,75.227 177.087,74.434 185.548,72.724C195.082,70.797 198.346,72.24 196.62,68.436C195.264,65.447 180.991,51.388 171.787,45.096C164.76,40.292 165.083,37.328 165.177,36.464C165.596,32.627 171.553,28.025 180.37,33.714C188.543,38.989 188.536,38.946 196.338,44.803C199.056,46.843 198.992,44.357 198.389,43.579C198.155,43.277 184.127,31.035 177.225,23.76C172.983,19.289 172.121,13.497 175.842,10.996C178.317,9.333 178.231,9.214 179.511,6.506C181.115,3.114 183.611,2.959 191.432,3.987C196.114,4.603 225.559,20.816 234.541,31.454C237.013,34.381 237.205,31.732 237.159,31.528C236.72,29.571 225.373,10.746 228.787,5.675C230.977,2.42 236.678,0.633 243.422,10.555C245.18,13.141 251.97,24.794 253.911,28.273C265.958,49.867 267.51,69.138 268.65,79.489C269.581,87.939 266.575,89.473 268.969,96.342C277.88,121.907 278.931,121.779 280.539,122.114C283.175,122.664 302.385,115.07 304.434,115.807C306.713,116.627 305.558,119.942 305.077,128.468C304.996,129.913 304.2,144.022 303.458,146.488C301.816,151.946 291.765,149.668 296.72,155.312C302.052,161.386 303.992,163.308 303.085,166.358C301.517,171.631 303.902,171.667 303.642,177.504C303.396,183.062 303.121,183.095 304.604,188.472C307.017,197.221 298.714,211.212 291.348,230.442C288.844,236.977 288.151,239.123 283.729,261.547C280.824,276.275 282.466,276.771 276.154,290.342C272.591,298.003 272.741,307.473 274.664,308.023C277.536,308.845 286.506,304.55 287.168,306.612C287.728,308.356 280.914,311.13 273.492,320.493C271.338,323.211 269.879,323.147 269.798,323.181ZM60.01,46.716L65.713,53.276C65.713,53.276 75.705,49.946 77.304,47.681C78.466,46.034 90.616,38.29 93.014,32.561C89.283,35.226 60.01,46.716 60.01,46.716ZM76.904,67.265L82.899,64.867C80.721,61.691 79.28,58.367 78.283,54.01L67.978,57.14L76.904,67.265ZM110.505,60.96C104.021,62.496 104.915,64.504 89.439,71.368C80.63,75.276 81.88,77.184 78.262,79.049C75.879,80.276 71.743,80.379 66.638,83.724C58.596,88.995 29.229,106.204 27.698,108.614C25.547,112.001 36.414,123.931 34.529,129.51C33.12,133.679 27.369,143.171 32.439,144.669C32.739,144.758 54.221,150.202 55.524,150.331C60.772,150.849 59.127,139.789 65.062,131.189C67.592,127.521 66.01,122.88 70.787,119.964C86.972,110.085 84.27,107.293 94.811,90.695C103.324,77.289 104.116,77.907 111.279,69.32C114.87,65.015 113.768,61.806 111.614,61.152C111.255,61.043 110.864,61.069 110.505,60.96ZM230.514,248.046C238.35,248.17 241.151,248.481 240.657,246.428C240.497,245.763 235.668,243.998 231.489,244.3C225.967,244.699 226.008,244.901 220.501,244.533C217.578,244.338 218.572,246.222 219.427,246.598C219.894,246.803 223.095,247.661 230.514,248.046ZM241.513,238.047C249.928,238.248 254.427,239.016 253.164,236.732C251.295,233.355 224.238,237.197 209.663,224.311C196.053,212.278 195.476,212.867 188.595,204.415C186.99,202.443 185.885,203.008 185.415,205.481C183.88,213.56 183.077,218.987 195.771,228.121C197.838,229.608 212.881,238.652 223.497,238.793C229.736,238.875 231.336,237.549 241.513,238.047ZM149.616,354.11C162.372,358.514 168.825,365.046 172.721,362.967C173.887,362.345 174.472,362.032 185.595,352.615C186.129,352.163 188.065,350.957 187.742,349.418C187.592,348.703 187.513,348.324 179.553,345.373C174.293,343.422 174.13,344.838 168.496,344.758C160.348,344.641 160.558,345.916 148.665,349.966C140.688,352.682 148.944,353.922 149.616,354.11ZM12.05,151.463C10.304,167.946 8.535,170.145 13.568,171.16C17.282,171.908 17.289,171.82 60.458,177.778C72.303,179.413 72.705,179.223 73.664,178.772C75.412,177.949 77.863,168.478 78.435,166.48C79.913,161.315 77.7,161.353 70.518,159.433C66.206,158.28 25.599,147.425 16.553,145.285C11.963,144.199 12.271,147.763 12.05,151.463ZM17.052,159.464C19.387,149.539 27.368,153.717 27.842,159.475C28.519,167.695 17.874,170.214 17.052,159.464ZM140.478,341.029C140.052,341.036 133.32,341.141 135.697,338.693C136.114,338.263 145.019,336.202 147.483,336.231C150.005,336.26 149.996,336.368 150.33,336.171C151.942,335.22 149.428,334.016 149.249,333.93C137.758,328.427 138.621,327.128 132.724,319.34C128.683,314.003 127.92,319.802 127.164,322.399C125.127,329.39 127.847,329.607 127.004,332.364C125.831,336.202 120.395,338.009 122.172,343.614C124.334,350.432 121.635,355.818 126.508,356.445C129.408,356.818 132.451,351.166 146.676,344.891C151.977,342.552 158.685,341.789 157.083,339.964C156.304,339.078 155.726,339.923 140.478,341.029ZM233.941,280.533C233.961,278.213 234.719,276.874 232.453,277.334C229.685,277.895 230.613,285.669 230.686,287.481C230.695,287.702 230.821,290.821 232.527,289.539C233.36,288.912 233.881,281.113 233.941,280.533ZM171.506,336.913C170.629,336.925 164.963,336.441 165.264,338.563C165.598,340.924 178.702,339.863 174.747,337.17C174.115,336.74 174.052,336.947 171.506,336.913ZM206.536,185.035C200.879,184.572 200.21,184.262 195.498,184.448C189.022,184.705 190.017,186.986 189.841,190.524C189.4,199.425 187.827,202.151 213.665,220.252C219.155,224.099 230.828,228.04 231.576,228.242C238.462,230.101 245.082,232.434 244.755,228.48C244.27,222.604 237.208,211.68 232.123,207.979C214.05,194.826 212.07,198.085 204.483,194.523C203.02,193.836 203.096,192.007 205.504,192.439C218.155,194.71 234.054,204.141 234.51,204.107C237.767,203.862 232.553,198.381 230.246,196.875C216.171,187.687 213.222,185.765 206.536,185.035ZM192.567,336.085C194.266,336.4 203.911,337.376 206.051,341.697C207.899,345.426 202.933,344.16 202.609,344.077C200.832,343.624 181.715,337.762 180.537,338.563C176.594,341.245 187.746,341.851 200.35,347.82C200.945,348.101 208.048,352.902 210.442,346.477C211.56,343.478 209.363,340.611 210.812,336.606C212.732,331.295 211.762,331.089 208.334,322.571C207.787,321.212 206.637,317.319 203.923,320.851C196.774,330.153 195.422,330.475 188.385,333.316C186.366,334.131 186.241,335.64 188.408,335.829C190.499,336.012 190.484,335.872 192.567,336.085ZM189.947,170.463C190.453,176.874 189.876,180.214 194.501,180.216C202.807,180.219 212.474,178.541 226.753,188.097C227.02,188.276 230.867,190.851 230.747,188.502C230.716,187.899 222.024,177.549 220.087,175.974C215.744,172.44 210.513,166.999 198.57,165.17C188.173,163.578 189.977,169.813 189.947,170.463ZM139.591,358.123C146.71,360.158 149.235,361.27 149.212,359.51C149.192,357.954 138.643,354.437 137.464,355.455C137.341,355.56 136.365,356.402 137.522,357.473C137.65,357.591 137.674,357.521 139.591,358.123ZM139.53,177.954C133.538,178.407 111.694,178.541 81.913,208.907C76.705,214.218 65.856,231.376 65.933,232.387C65.955,232.675 66.447,234.181 69.389,231.372C78.19,222.971 102.441,220.362 105.447,220.038C120.984,218.367 139.617,214.471 147.749,209.949C157.612,204.464 163.257,195.733 162.054,205.436C161.754,207.857 160.927,214.526 137.525,223.559C114.772,232.341 92.432,231.745 82.102,240.019C74.391,246.196 74.412,252.002 76.543,251.775C78.803,251.533 77.159,243.029 93.549,240.863C138.943,234.863 141.585,239.905 166.175,223.048C173.952,217.717 186.075,203.68 181.319,194.591C175.414,183.306 161.184,178.165 154.478,177.814C148.348,177.494 148.366,177.601 139.53,177.954ZM8.084,50.55C9.775,62.951 21.847,99.039 22.877,100.149C24.667,102.076 28.599,98.881 37.686,93.832C39.649,92.742 61.037,80.857 62.145,80.069C65.26,77.854 59.307,74.91 55.646,72.285C52.405,69.962 51.567,69.359 49.91,71.793C47.746,74.97 45.741,72.09 46.821,68.595C48.273,63.894 48.853,61.177 52.609,64.368C56.15,67.376 67.792,78.151 72.828,73.886C77.209,70.176 63.929,63.313 54.109,49.798C46.909,39.89 44.804,46.732 42.282,50.356C40.405,53.051 30.317,69.121 29.601,71.533C28.508,75.215 34.003,82.05 31.776,82.993C30.023,83.736 28.223,79.2 26.238,75.64C20.554,65.446 6.614,36.058 8.084,50.55ZM142.514,171.961C164.636,172.238 169.761,176.43 181.13,187.91C184.965,191.782 184.82,184.104 184.931,181.508C185.596,165.959 174.589,152.816 155.569,147.26C154.258,146.877 147.926,145.026 138.499,147.494C129.282,149.907 120.697,151.367 106.687,163.717C104.823,165.36 94.278,174.655 85.855,186.753C83.678,189.879 77.404,201.126 77.305,201.451C76.81,203.078 78.07,204.297 80.02,202.016C103.077,175.05 130.142,172.837 142.514,171.961ZM298.967,142.553C300.011,134.829 300.127,134.878 300.191,132.478C300.295,128.532 300.915,124.81 299.531,124.421C298.989,124.268 298.891,123.983 259.51,135.531C230.193,144.128 228.479,144.025 228.88,146.44C229.141,148.017 234.273,156.587 234.298,156.625C237.67,161.768 238.751,166.754 242.572,165.775C246.221,164.841 279.208,153.275 282.384,152.162C297.113,146.998 298.366,147.246 298.967,142.553ZM294.547,130.073C296.954,130.955 297.372,130.968 297.479,133.502C297.74,139.73 288.614,140.387 289.749,133.553C290.032,131.851 291.384,130.951 291.662,130.756C292.693,130.034 292.76,130.311 294.547,130.073ZM100.768,296.55C100.663,297.034 99.287,301.808 100.476,302.546C102.285,303.67 105.173,294.612 102.573,294.227C100.814,293.966 101.319,294.887 100.768,296.55ZM263.951,71.46C263.722,68.888 263.82,68.889 263.502,67.5C258.768,46.821 254.047,36.824 247.802,26.323C242.226,16.947 237.25,6.998 233.408,8.302C231.387,8.987 232.065,10.614 237.491,23.504C238.101,24.953 248.01,48.492 240.189,42.978C234.657,39.078 233.885,41.636 231.36,40.755C229.453,40.089 230.903,39.452 231.724,37.614C235.182,29.88 192.655,7.629 188.501,7.474C185.801,7.372 184.378,10.332 190.737,14.108C206.262,23.327 225.185,39.579 225.235,42.496C225.242,42.892 224.724,45.526 220.363,41.658C219.13,40.565 213.273,35.37 204.192,28.913C192.643,20.701 183.547,12.568 180.747,14.796C176.978,17.794 188.172,25.596 196.083,34.876C202.504,42.407 214.108,54.307 215.198,57.579C218.015,66.033 181.478,38.448 174.474,36.595C171.163,35.718 170.702,38.725 174.868,42.069C181.94,47.746 187.567,53.013 188.864,54.081C200.032,63.278 202.61,69.498 205.373,70.743C209.427,72.571 218.397,65.886 220.85,68.17C222.35,69.567 218.503,71.67 211.628,75.728C207.007,78.457 206.03,75.482 196.492,76.396C180.298,77.949 173.212,78.814 174.447,82.523C174.872,83.797 175.038,84.297 190.566,87.196C199.772,88.914 208.72,99.337 217.627,102.064C228.483,105.387 230.428,102.917 234.763,110.358C237.165,114.481 239.49,112.561 241.11,116.668C245.939,128.909 244.964,133.006 251.41,131.197C272.127,125.383 272.347,125.058 273.044,123.354C273.826,121.441 266.97,106.156 264.927,101.322C261.223,92.559 262.407,92.222 263.772,87.577C264.135,86.34 264.843,83.93 263.951,71.46ZM117.473,242.05C102.824,242.882 102.731,243.086 89.388,249.263C79.792,253.707 79.26,257.344 86.938,270.231C93.505,281.253 97.663,277.55 100.205,279.843C104.345,283.578 101.332,286.655 115.818,296.011C125.257,302.109 134.65,313.377 138.081,319.733C139.299,321.989 139.458,325.15 150.405,330.681C160.344,335.703 190.213,331.088 201.992,314.859C204.078,311.984 205.833,310.394 210.407,299.461C213.899,291.115 205.634,296.709 203.76,295.203C200.38,292.486 209.151,293.035 216.755,285.769C225.662,277.258 222.849,273.925 228.503,272.513C233.041,271.38 236.61,272.006 241.508,259.503C243.317,254.886 240.17,253.431 238.692,255.629C238.651,255.69 235.317,265.878 232.479,265.583C228.969,265.218 239.166,255.763 227.551,253.281C216.678,250.957 212.76,248.564 198.826,239.044C197.53,238.159 188.935,232.287 184.865,225.275C181.111,218.807 181.665,227.821 172.651,234.711C165.855,239.906 152.145,242.557 155.788,238.74C156.125,238.386 160.072,236.003 164.873,231.763C166.457,230.365 165.53,228.858 163.651,229.88C154.786,234.7 151.92,239.294 129.468,241.112C119.87,241.889 118.433,241.985 117.473,242.05ZM142.525,265.941C132.334,266.976 131.59,272.984 123.255,267.905C117.705,264.524 112.001,267.683 112.597,264.531C112.788,263.523 117.074,261.663 122.51,262.402C131.46,263.62 131.494,263.486 140.465,262.237C145.818,261.492 148.94,265.203 144.565,265.819C144.403,265.841 144.414,265.828 142.525,265.941ZM85.963,260.484C86.011,260.135 86.008,259.781 86.056,259.433C86.107,259.06 87.763,253.412 90.653,260.436C93.309,266.89 94.952,266.024 95.834,269.407C96.463,271.82 94.63,272.744 93.414,270.56C90.754,265.788 87.63,267.73 85.963,260.484ZM124.477,249.972C147.083,251.954 149.143,254.913 154.265,248.325C155.287,247.011 157.626,243.116 159.142,244.827C159.846,245.622 160.157,250.177 155.055,256.083C151.453,260.252 154.992,260.686 156.795,267.414C158.096,272.267 157.211,277.553 157.065,278.421C156.724,280.462 156.192,282.052 158.766,284.16C164.09,288.52 166.447,278.548 172.458,277.288C174.344,276.892 176.264,278.084 174.197,280.188C169.656,284.806 170.146,285.162 166.081,290.151C160.757,296.685 155.207,287.991 151.289,285.881C149.486,284.91 146.369,284.727 149.718,280.676C151.138,278.959 154.1,277.275 151.844,267.418C149.623,257.718 144.157,259.19 135.474,257.654C112.37,253.568 111.166,259.019 109.442,256.536C108.458,255.119 115.052,250.428 116.405,250.156C118.697,249.695 122.149,249.907 124.477,249.972ZM166.501,302.948C170.555,303.258 170.688,302.935 174.205,304.974C177.312,306.776 177.436,309.774 174.454,308.677C173.551,308.345 167.299,306.045 162.486,307.446C150.23,311.015 151.257,313.496 148.991,319.735C148.142,322.075 145.462,321.315 145.58,316.502C145.8,307.477 150.75,304.376 166.501,302.948ZM200.514,270.945C199.184,270.869 193.534,270.544 184.418,266.694C180.367,264.984 181.404,261.389 178.346,259.822C176.45,258.851 167.536,256.853 167.08,245.499C166.962,242.556 169.455,242.586 170.502,245.499C170.858,246.491 171.155,247.504 171.509,248.496C173.152,253.111 180.024,254.171 192.53,255.075C202.601,255.802 212.268,252.64 212.011,255.439C211.906,256.574 210.386,256.681 200.519,259.563C194.03,261.458 190.352,260.816 189.478,260.664C189.183,260.612 186.174,260.087 185.741,260.689C184.42,262.523 190.181,266.509 196.517,265.648C203.41,264.711 205.022,264.785 211.66,260.813C215.45,258.545 215.146,261.072 215.025,261.316C214.983,261.4 205.43,270.098 202.562,270.756C202.402,270.793 202.41,270.77 200.514,270.945ZM152.499,293.065C154.832,293.409 154.844,293.376 157.333,294.799C163.065,298.076 164.494,294.664 168.465,294.229C172.585,293.778 172.553,293.808 176.594,292.953C184.445,291.293 181.305,296.436 180.631,296.735C179.072,297.425 179.013,296.999 176.475,296.875C169.116,296.513 164.414,303.181 156.649,299.186C149.487,295.502 143.753,302.682 138.381,299.642C137.922,299.382 135.774,296.571 143.498,295.485C147.924,294.863 147.595,293.625 152.499,293.065Z" style="fill:rgb(18,18,18);fill-opacity:1;"/>
    </g>
</svg>
