<?xml version="1.0" encoding="UTF-8"?>
<svg id="Layer_1" xmlns="http://www.w3.org/2000/svg" version="1.1" viewBox="0 0 273 114">
  <!-- Generator: Adobe Illustrator 29.3.1, SVG Export Plug-In . SVG Version: 2.1.0 Build 151)  -->
  <path d="M162.6,28c-16.6,0-24.9,8.6-24.9,21.1s4,13.7,9.4,16.3c-2.6,2.4-4.8,4.5-6.7,6.5-2,2.1-3.2,4.2-3.2,6.6s1.2,5.7,4.8,7.2c-3.8,3.6-6,6.2-6,11.1,0,8.6,7.5,13.6,27.2,13.6s29.9-7.1,29.9-19.6-11.1-15-29.9-16.2l-10.7-.7,3.6-5.8c2,.5,5.1,1,8.6,1,13.7,0,23.2-7.1,23.2-19.1s-2.1-8.5-4-11l10-.8v-9.2h-21.2c-2.5-.7-5.3-1.1-10-1.1ZM167.5,89.8c5.2.3,9.4.5,9.4,4,0,5.9-8.6,6.3-14.9,6.3s-13.2-1.3-13.2-5.7,1.4-4,2.8-5.8l15.9,1.1ZM163.3,57.8c-7.2,0-10.1-3.7-10.1-9s4.5-10,10.4-10h0c6.2,0,9.9,3.4,9.9,9.8s-4.1,9.2-10.2,9.2Z"/>
  <path d="M222.7,73.2V28.1h-22.5l-1.2,8.8,5.9,2.1c1.1.3,1.4,1.1,1.4,2.3v32c0,1.6-.2,2-1.7,2.2l-5.5.8v8.6h0s31,0,31,0v-8.6l-5.5-.8c-1.6-.2-1.7-.4-1.7-2.2Z"/>
  <path d="M213,19.4c6.3,0,9.9-3.6,9.9-9.8S219.3,0,213,0s-9.8,3.4-9.8,9.6,3.6,9.8,9.8,9.8Z"/>
  <path d="M270,71c-2.6,1-5.8,1.7-8.8,1.7-5.9,0-7.4-2.5-7.4-8.9v-26h16.2v-10.9h-15.3c-.9,0-.9-.3-.9-1.1v-15.5h-10.3c-1.2,11.9-5,16.6-14.6,17.7v9.7h7.6c.9,0,.9.4.9,1.1v28.5c0,12.3,4.9,17.5,17.8,17.5s13.1-2.1,17.7-4.3h0s-2.9-9.6-2.9-9.6Z"/>
  <path d="M111.8,52L62,2.2c-2.9-2.9-7.5-2.9-10.4,0l-10.3,10.3,13.1,13.1c3-1,6.5-.3,9,2.1,2.4,2.4,3.1,6,2.1,9l12.6,12.6c3.1-1.1,6.6-.4,9,2.1,3.4,3.4,3.4,8.9,0,12.3-3.4,3.4-8.9,3.4-12.3,0-2.6-2.6-3.2-6.3-1.9-9.5l-11.8-11.8v31c.8.4,1.6,1,2.3,1.7,3.4,3.4,3.4,8.9,0,12.3-3.4,3.4-8.9,3.4-12.3,0-3.4-3.4-3.4-8.9,0-12.3.8-.8,1.8-1.5,2.9-1.9v-31.3c-1-.4-2-1.1-2.9-1.9-2.6-2.6-3.2-6.4-1.9-9.5l-12.9-12.9L2.1,51.7c-2.9,2.9-2.9,7.5,0,10.4l49.7,49.7c2.9,2.9,7.5,2.9,10.4,0l49.5-49.5c2.9-2.9,2.9-7.5,0-10.4h0Z"/>
</svg>