<?xml version="1.0" encoding="UTF-8"?>
<svg id="Layer_1" xmlns="http://www.w3.org/2000/svg" version="1.1" xmlns:xlink="http://www.w3.org/1999/xlink" viewBox="0 0 512 512">
  <!-- Generator: Adobe Illustrator 29.3.1, SVG Export Plug-In . SVG Version: 2.1.0 Build 151)  -->
  <path d="M263.5.1c-12.1,1-21.1,2.7-29.6,5.4-5.2,1.7-16.5,6-20.7,7.8-3.3,1.5-17.9,9.4-27.1,14.8-16.1,9.4-24.4,18.3-28.2,30.5-.8,2.4-1.1,2.9-1.9,3.4-3.8,2.1-7.4,5.3-9.9,8.8-3.8,5.5-6.4,14-7.3,23.1-.2,2.1-.4,4.6-.5,5.5l-.2,1.7-3.8,3.3c-10.3,9.1-21.4,21.5-29.5,33.2-16.9,24.3-28.3,53.3-32.3,82.3-1.4,10.5-1.8,15.4-1.8,27.4s.3,16.9,1.8,27.4c2.6,19,8.7,38.8,17.3,56.6,10,20.8,24.8,40.8,41.3,56l4.7,4.3.4,6c.2,3.3.5,10,.7,14.8.3,11.2.8,13.1,3.6,15.5,1.6,1.4,4.2,2.6,9.4,4.6,2.1.8,8.8,3.9,14.9,6.8,15.4,7.5,20.4,9.5,28.1,11.4,5.4,1.3,6.6,1.5,13.6,1.7l6.7.2,2.2,7.5c3.9,13.4,7.2,24.4,9.1,30,2.3,6.9,5.3,15,5.7,15.4s5.2,1.9,10.2,3c17.9,4,45.8,4.6,72.5,1.4,9-1.1,15.2-4.5,17.5-9.5.6-1.3.6-1.7.3-3.7-.2-1.2-.4-4-.5-6.2l-.2-4,2.8-.5c9.3-1.8,14-4.2,16-8.4.7-1.4.9-2.3,1-5,.2-4.1-.2-6.8-2.2-15.8-2.7-11.8-3.3-16.3-2.6-20.6l.4-2.3,2-.7c4.3-1.4,6.3-3.6,6.3-7v-1.7l2-.9c4.8-2.2,10.1-3.2,17.8-3.4l5.6-.2.9,1.6,2.1,2.9c1.2,1.4,1.3,1.4,4.5,2,10.1,1.7,20.4,1.8,28.3.1,6.1-1.3,8.2-2.3,11.3-5.6,5.8-6.3,9.8-18.3,9.8-29.6s-.3-6.8-2.3-13.8c-2.8-9.8-6.5-19.7-9.2-25-1.7-3.3-4.3-6.2-7.2-7.9l-1.9-1.3,1.6-3.1c2.6-4.5,7.7-15.3,9.9-20.7,7.5-18.7,11.8-37.2,13.5-58.4.5-5.9.5-21.9,0-27.9-1.7-21-6-39.6-13.5-58.4-2.5-6.2-8.7-18.9-12.1-24.7-7.8-13.2-17.2-25.6-27.9-36.5l-5-5.1-.6-6.3c-1.9-22.2-7.2-40.4-15-52.4-5.7-8.8-17.6-21.5-28.2-30.2-12.6-10.4-28-16.3-49.5-19-3.5-.5-21.5-.9-25.1-.6h0ZM287.7,12.2c12.3,2,24.4,5.8,35.3,11.1,7.7,3.8,11.6,6.6,17.8,13.1,4.4,4.5,15.6,18.5,16.3,20.3l-1.3.4c-5.9-.8-8.7-.5-12.1,1.1-4.1,1.9-6.5,5.2-6.6,9.3v1.5c.1,0,1.5-.6,1.5-.6,2.5-1.7,4.5-2.3,8.6-2.3s4.1,0,6.9,1.1c4.4,1.5,7.7,3.5,11,6.9,6.2,6.1,8.3,13.5,9.5,32.8.6,9.4.8,28.1.3,34-1.8,25.8-8.7,49.8-19.4,68-2.4,4-10.6,16.4-12.6,18.9-2.7,3.3-6.1,6.4-10,8.9-11.6,7.5-23.7,12.4-35.1,14.2-4.6.7-13.3.7-17.4,0-4.4-.8-10.9-3.1-16.8-5.9-15.4-7.5-25.8-17.5-42.4-40.8l-2-2.9.2,1.6c1,7.2,5.2,14.5,13.6,24.2,9.8,11.1,16.9,17.6,23.1,21.1l2.6,1.6-1.1.2c-.9-.1-3.4-.3-5.6-.4-6.5-.3-10.8,1-13,4l-1,1.3-3.4-.2c-18.7-1.1-30-4.5-36.7-11.3-7.3-7.3-17.8-31.7-20.2-46.7-.8-4.9-.6-5.3,3.1-9.3,4-4.4,4.7-5.9,3.8-8.7l-1.8-.8c-1.9.2-2.9.8-6.3,3.4l-3.9,2.5c-3,1.2-7.9,1-11.3-.4-8.6-3.5-16.4-14.8-18.7-27.1-.7-3.5-.7-9.7,0-12.5,1.5-6.3,5.6-11.9,10.9-15,3.8-2.3,9.1-3.3,13.6-2.7,7.2.9,11.2,5.8,14.2,17.2l1.1,4.1h3.5c5.7-.2,10.4-1.7,12.1-4.1.6-.8.6-.9.1-4.5-.3-2-1.2-6.1-1.9-9.1-3.7-14.5-3.6-16.7.6-37,2-9.4,2.5-13.2,2.5-18.1s-.5-8.2-1.8-12l-.8-3.2c0-1.1,2.1-5,4.8-8.7,2.7-3.8,11.1-12.3,16-16.1,4.7-3.6,13.3-9.3,18.9-12.5,16.7-9.5,22.6-11.2,38.3-10.9,6.5.2,8.8.3,13,1h0ZM223.7,21.1c1.7,1.3.4,3.7-2.6,4.7l-3.4,2.2c-1,.9-3.3,2.8-5.1,4.2-5,3.8-6.7,5.7-10.5,11.9-4.1,6.8-6.1,9.4-7.9,10.6-1.9,1.2-3.6,1.4-7.3,1-3.8-.5-5.8-.2-12.7,2.1-6,1.9-8.3,2.4-8.3,1.7l1.6-3.1c6.2-10.4,17.8-20.2,33.1-27.9,5.5-2.8,8.9-4.2,15-6.3,5.4-2,6.7-2.1,8.1-1.1h0ZM190.9,63.2c1.3,3.3,1.7,5.9,1.8,11.1.2,6.1-.1,9.5-1.7,19.6-1.7,11.3-1.9,12.8-1.9,18.6s.2,7.6,2.1,13.9c1.4,4.9,1.9,8.7,1.3,10.3-.4,1.1-1.5,1.8-3.2,2.1l-1.2.2-.2-2.2c-.6-5.7-3.5-10.9-8.1-14.6s-9.7-5.4-15.6-5.4-7,.6-11,2.5l-2.8,1c-.4-.4-.9-9.1-.9-16.3s.1-8.8.6-11.3c1.6-8.6,4.3-13.5,10.5-18.7,6.5-5.5,13.7-8.9,21.9-10.6,4.1-.8,4.4-.9,6.4-1l2,.8h0ZM139.5,115.7l.5,2.2.3,1.7.2,1.6-.3,1.6v.7c-.1,0-.4,1.3-.4,1.3l-.5.8-.3.3-.3.4-.5.6-.5.6-.4.7-2.8,8-.2.5-.3,1c0,.6-.2,2.8-.4,4.9-1,9.4,1.6,22.3,6.4,32,5.5,11.1,15.1,18.9,25.7,21.1l1.9.4v1.3c.6,6.8,3.5,15.3,7.4,21.4,4,6.3,5.3,10,4.3,12.8-.7,2.1-2.5,3.4-11.4,8.5-18.8,10.7-31.9,18.6-38.1,23-1.7,1.3-5.8,3.6-8.9,5.2-8.2,4.2-10.7,6.8-11.3,11.5-.4,3.3,1.3,9.9,4.9,19.7,1.2,3.2,2.9,8.2,4,11.1,1,2.9,3.2,8.8,4.9,13.1,4.4,11.2,5.5,15,7.6,25,1.4,6.7,3.9,23.1,3.9,25.6s-9.1-8-16.7-18.2c-16.4-21.7-27.6-46.8-32.9-73.4-1.4-6.8-2.4-13.8-2.2-14.7l-.2-.8-.2-1.6-.2-1.6v-2.1c0,0-.3-2.1-.3-2.1-.2,0-.3-.8,0-3,.2-2.1,0-3,0-3-.3,0-.3-2.1-.3-6.9s0-6.9.3-6.9.3-.9,0-3c-.2-2.2,0-3,0-3l.2-2.1v-2.1c0,0,.3-1.6.3-1.6v-1.6c0,0,.3-1.4.3-1.4l.2-1.4.2-1.1.2-1.1.2-1.1.2-1.1.2-1v-1c0,0,.4-1.8.4-1.8l.3-1.9v-.9c0,0,.2-.8.2-.8l.3-1.5.4-1.6.2-.5,6.3-22.2.3-.8,1.6-4.4.3-.8.3-.8.3-.8.3-.8.3-.8.5-1.3.5-.9,1-2.5.3-.5,2.1-4.4,1.1-1.9c1.9-4.4,2.4-5.4,2.8-5.5l.4-.8.6-1.2.6-1.1.6-1.1.8-1.5.5-.9.3-.5.3-.5.5-.8.5-.8.3-.5.3-.5.5-.8.5-.8.3-.5.3-.5.3-.5.3-.5.3-.5.3-.5.3-.5.5-.7.5-.6.3-.4.3-.4.5-.6.5-.7.3-.5.3-.4.5-.6.5-.6.5-.6.5-.6.5-.6.5-.6.6-.8.6-.7.6-.8.6-.8.6-.8.6-.8,1-1.1,1-1.1,1.1-1.3,1.1-1.3,1.9-2.1,1.9-2.1,6.6-6.7.5-.6h1.4c0,0,.4,0,.4,0ZM387,129.5c23.8,27.8,38.1,61.1,42.3,98.8.7,6.3,1,24.7.5,31.9-1.6,23.1-7.4,45-17.2,65.8-1.9,3.9-6.2,12-7.9,14.6l-.8,1.3-3.1.4c-8,1-19.6,4.9-29.9,10.1-3.1,1.6-3.5,1.7-3.5,1s1.1-3.4,2.4-7c4.9-13.4,9.7-27.9,15-45.1,1.6-5.2,4.2-13.6,5.8-18.6,3.5-11.1,4.2-14.4,4.1-18.6-.2-6.2-2.1-8.4-23.9-27.1-6.1-5.2-10.9-10-11.7-11.7-1.3-2.4-.1-6,4.4-13.5,3.4-5.7,5.2-9.6,7.3-16.1,4.8-14.4,8.3-30.2,10.1-46.1.7-5.9,1.5-16.2,1.5-19.4s.3-5.1.8-5.1c-.2.1,1.7,2,3.8,4.4h0ZM353.1,236.3c1.1.9,5.6,5.2,10.1,9.6s9.8,9.2,11.7,10.7c5.2,4,7.7,6.6,8.8,9,1,2,1,2.1.8,5.7-.2,3.7-1.3,9.4-3.9,20-3.3,13.5-8.6,29.4-16.6,49.2-5.2,12.9-6.3,14.6-10.3,15.8-3.3.9-4,1-12.6,1.3-7.9.3-10.6.7-13,1.9h-1.9c0-.6,2.3-4.4,14.4-24.4,9.5-15.5,16.4-27.2,17.7-29.7v-1.9c-.1,0-2.8-3.3-2.8-3.3-2.1-2.3-3.1-4-3.1-5s.5-2,1.1-3.8c4.5-13.3,2.2-35-4.5-42.5l-5.2-3.2-3.3-2.3c0-.3,1.4-1.6,3.3-3.1,1.8-1.4,3.9-3.3,4.7-4.2l1.9-1.6,2.7,1.8h0ZM186.3,246c.8.8,3.4,3.5,5.6,6.2,2.3,2.6,5,5.7,5.9,6.9,3.3,3.8,10.6,8.2,27,16.2l10.1,5,.4,2.6c1,6.4,6.9,26.8,9.2,31.6,3,6.5,6.7,8.4,12.3,6.3l2.6-.8c1.1,0-.2,3.1-3,6.7-3.6,4.8-4.4,7.9-2.7,10.5.9,1.4,3.8,3.4,7.8,5.5,9.7,5,21.5,10.6,27.3,13,3.7,1.5,6.8,3,6.8,3.2,0,.3-1.4.4-5,.6-26.9,1.1-42.7,2.4-67.8,5.3-7.1.8-11.4,1.2-11.7,1-.7-.4-1.6-3.1-2-5.9-.5-4.4-.4-18.4.3-27.5.3-4.5.6-9.4.6-10.9,0-8.1-3.9-8-5.3.1-.5,3-.4,5.3.5,16.1.7,7.3.8,16.1.3,19.4l-1,4.2c-.6,2-.7,2.2-1.5,2.2-1.3,0-3.3-1.1-6.8-3.5-4.1-2.9-5.7-3.7-6.1-3.1-.8,1.2,0,3.2,2.1,5.6,2,2.3,2.3,4.3.9,5.9-.7.9-1.3,1.1-3.9,1.7-4.2.9-6,2.2-6,4.5s.1.8,2,.8,4.7-.2,8.1-.4c6.1-.3,9.2-.2,12.3.7l1.2.3.2,2.7c.7,8.3,3.3,30.1,6,49,1,7.5,1.9,13.8,1.9,14,0,.8-8,0-14.7-1.4-10.8-2.3-19.5-5.9-37.6-15.4-5.8-3-11.7-6.1-13-6.8l-2.5-1.2v-2.9c0-6.7-1.3-24.4-2.6-36.4-3.7-33.5-11.2-64.1-21.8-88.1-1.2-2.8-2.2-5.2-2.2-5.5s3-2.7,6.6-5.4c21.2-15.9,35.5-24.9,50.9-31.7,2.7-1.2,5.3-2.1,5.9-2.2l2.4,1.3h0ZM343.2,256c3.3,1.7,5.6,9.2,6.6,21.2.5,6.6-.4,13-2.2,15.4l-.6.7-5.3-.3c-8.5-.5-19.2-2.1-24.3-3.6l-1.4-.4v-5c0-2.7.1-5.1.1-5.2l3.4-1.7,6-.6.9-.2c0-.3-3.5-1.4-5.3-1.5l-1.7-.3h-1.9c-2,.5-2.5.2-3-1.7l-1-2.8-.2-1.5.7-.3c.1,0,2.8-1.7,5.9-3.8,9.4-6.2,13.4-8.4,16.4-8.9l1.1-.3,5.8.8h0ZM319,256l-.6.8c-.3.2-3.3,2.4-6.5,5l-5.9,4.6h-1.8c-6.9.3-12.1-.5-16.1-2.5-3.1-1.5-6.3-3.8-6.3-4.4l2.5-.5c1.6.6,5.3,1.3,7.6,1.3s8.1-.8,14.4-2.3c5.3-1.3,10.9-2.4,12.1-2.5l.6.5h0ZM213.4,257.6c2.3.8,6.4,1.4,13.1,1.9,9.1.7,8.9.7,8.9,1.8l-.6,3.4-.9,4.1-1.1,1.7c-1.5,0-7.2-1.5-10.8-2.8-8.7-3.3-13.9-7.3-13.1-10.2l1.9-1,2.6,1.1h0ZM252.6,258.7l.8.2c.4-.4,13,3.7,17.4,5.8,6.7,3.2,8.5,4.1,12,6.4,2,1.4,5.4,2.7,7.3,2.9h1.2c0,.1.4,1.4.4,1.4l-1.4,2.1-4.9,1.7c-.2,0-1.2.2-4.8,1.2l-.4,1c1.9-.4,11.2,2.3,12.2,3.4.2.2.3,1.6.2,3.6l-.2,3.2-1.3.9c-.7.5-3.8,3-6.8,5.5s-6.6,5.4-8,6.3c-5.9,4.3-18.6,9.2-23.9,9.2l-2.7-.9-1-1.7-2.7-7.8c-1.4-3.1-3.7-10.1-4-12.1l-.3-1.8c-.7-3.7-1.1-13.2-.6-18.2l.2-2.9c.2-2.4,2-6.8,3.3-8,1.4-1.3,3-1.8,5.3-1.7l2.7.3h0ZM305.4,272.5c1.8.8,2.1,1.2,3.1,3.3,1.2,2.5,1.1,5.9-.1,8.3-1.3,2.5-3.1,3.5-6.5,3.5s-3.8.1-4.8-4.6c-.5-2.2-.8-4.2-.7-4.4v-.3c-.1,0-.4-2-.4-2,0-1.9.1-2,.9-2.4,3.9-2.2,6.1-2.5,8.5-1.4h0ZM312.4,292.6l3.9,2.4c3.2,2.2,5.6,3.4,7.7,3.6l1.6.2v1.9c0,1.1-.1,3.6-.3,5.5-.2,2-.4,7.1-.6,11.4-.5,10.9-1,16.3-2.6,25.9-.7,4.3-1.7,7.9-2.2,8-.6.1-4.3-7.5-9.7-20-6.8-15.7-10.6-23-15.4-29.4l-2-3.3,1.7-2.4,1.6-2,1.4.2c2.4.3,3.3.2,6.8-1.3,3.8-1.5,5.9-1.7,8.1-.7h0ZM342.2,298.3c2.4.6,5.2,2.1,7.1,3.8,1.9,1.7,3.9,4.2,3.9,5s-9.5,17.2-15.2,26.4c-5.4,8.8-12.8,19.4-13.8,19.8-.6.2-.6-.2.5-4.4,2.3-9,4.2-22.3,5.3-37.7.3-3.6.5-7.8.5-9.2,0-2.6,0-2.7.9-3,3.4-1.3,7.6-1.6,10.8-.7h0ZM288.9,306.3c6.9,9.8,11.2,18,20,38.9,1.8,4.4,3.3,8.2,3.3,8.4,0,.8-.9.6-6.5-1.3-9.9-3.4-19.2-7.3-30.1-12.8-7.7-3.8-15-7.8-15-8.1l.7-2.3c1.7-5.3,5.5-10.5,10.7-14.9,3.1-2.6,14.1-10.3,14.8-10.3l2.1,2.4h0ZM409.7,352.2c3.3,1.6,6.6,4.9,8.2,8.2,2,4.2,4.2,11.4,7.3,24.2,1.3,5.3,1.4,6.4,1.6,10.9.1,4.3.1,5.3-.5,7.8-1.7,7-5.7,12.5-11.1,15s-18.8,3.6-25.8,2c-1.8-.4-2.2-.6-2.2-1.1,0-1,4.1-2.3,11.8-3.7,6.2-1.1,9-1.8,9.2-2.1.2-.2-.4-.4-3.8-1.3-2-.5-12.2-.5-18.1,0-2.4.2-6.7.5-9.5.6l-5.2.2-.2-1.7c-.1-1-.6-6.2-1.2-11.7-1.4-14.1-2.8-23.3-4.6-29.6l-.5-1.8,1.4-1.2c2.7-2.3,8.8-5,19.8-8.7,6.2-2.1,10.2-3.8,12.7-5.2,2.9-1.7,3.9-2,6.4-1.9l4.3,1.1h0ZM356.4,368.7c1.2.7,4.2,8.9,5.6,15.1,1.6,7,2.9,20.3,2.7,27v3.3c-.1,0-4.3,1.4-4.3,1.4-2.3.8-5.1,1.5-6.1,1.6l-2,.2-.2-1.4c-.1-.8-.4-3.7-.7-6.4-.3-2.7-1.4-10.5-2.4-17.3-1.9-12.5-3.2-21.5-3.2-22.9s.1-.8,2.5-.9c3.3-.1,7.6,0,8.1.3h0ZM291.9,368.9c7.3.4,20.5,2,21.2,2.4.2.1,1,7.3,1.4,11.1.4,5.3.6,8.2,1.1,21.6.5,10.8.6,12.6,1.6,23.1.6,6.4,1.1,14.8,1.4,27.4.6,18.9,1.3,28.2,2.8,37,.4,2.6.7,4.8.7,4.8-.3.2-5.5,1.5-8.6,2.2-9.2,2-18.2,2.9-29.3,2.9s-22.7-1-34.4-3.3c-5.3-1.1-13.9-3.2-14.2-3.6-.1-.1-1-3.1-2.2-6.9-8.2-26.6-14-52.7-18.5-83.6-1.8-12.3-3.6-28.1-3.3-28.4s16.9-3,24.4-4c10.3-1.3,22-2.3,32.2-2.8,5.1-.2,19.1-.2,23.7,0h0ZM335.4,371c1.7,6.4,2.9,15.8,4.4,35.9.5,6.9,1.1,13.6,1.3,15.1v2.7c-.3.2-9.2,1.8-15.2,2.8-2.4.4-3.6.4-3.6.3,0-.2-.2-3.2-.5-6.6-1.1-14.1-1.5-23.3-1.7-36.1-.1-7.4-.1-13.5,0-13.5l2.2-.5c2.4-.6,6.8-1,10.3-1q2.5,0,2.8.9h0ZM334.5,435.1l.9,2.1c.1,1.1,1,5.7,2,10.3,2.4,11.5,3,15.6,3.2,21.1l.2,4.8-3.7,1.2c-2,.6-4.4,1.3-5.3,1.5-1.7.3-7.2.8-7.2.6s-.3-4.8-.7-10.5c-.3-5.7-.7-14.7-.8-20l-.2-9.5h1l4.1-.8,4.1-.9,1.3-.2,1.1.3h0ZM254.3,61c-2.7.4-6.5,2.1-10.1,4.5-3,2-8,7-10,10.1-2.8,4.2-4.5,9.8-4.1,12.7l2.5,3.2,1.7-2.7c2.7-5.6,6.9-10.9,10.7-13.8,2.2-1.6,5.7-3.2,8.6-3.9,1.8-.4,3.2-.5,6.9-.4,2.5,0,4.9.3,5.3.4l1.2-.9c.8-1.8.6-3.1-.5-4.9-2.4-3.2-7.5-5.1-12.2-4.3h0ZM357.7,95.6c0,4.4,1.1,8.6,3.9,15.8.9,2.2,1.5,4.3,1.5,4.6-.2,1-3,1.7-8.7,2.1-5,.3-5.4.4-7.8,1l-1.4,1.3c0,3.1,2.2,5.9,5.3,6.8,5,1.4,13.6-1.2,18.2-5.5,2.8-2.7,2.8-2.5.5-6.3-1.8-3-5.6-10.5-9.4-18.9-.9-1.9-1.7-3.5-1.8-3.5l-.3,2.6h0ZM275.9,95c-.8,4.5,2.1,13.3,7.2,22,1.2,1.9,1.9,3.6,1.9,4-.2,1.7-5.2,3-9.4,2.6-1.3,0-4.2-.6-6.6-1-5.8-1-6.5-1-7,0-.9,2.2-1,3-.4,4.3,1.4,3.6,7.1,5.7,15.2,5.7s9.3-.9,13.1-4.4l2.4-3.6c.6-2,.4-4-.4-5.6-.3-.6-2.2-2.7-4.1-4.7-4-4.2-4.9-5.6-8.1-13.1-1.2-2.8-2.5-5.7-2.8-6.5l-.7-1.4-.3,1.6h0ZM317.3,100.8c-.5.3-.6.8-.6,2.7,0,8.8,5.1,20.3,14,31.9,2.3,2.9,10.1,12.3,13.2,15.9,3.2,3.7,4.3,6.7,3.5,10.1-.5,2.2-1.8,4.7-2.5,5-.3.1-3.6,1.6-7.3,3.3-8.6,4-11.5,5.2-15.1,6.2-4.3,1.2-7.5,1.6-10.9,1.4-5.6-.3-6.7-1.4-8.4-8-.5-2.1-1-3.9-1-3.9h-.3c-.5-.1-1.9,3-2.2,5.2-.7,3.8.7,8.5,3.3,11.6l1.1,1.3h4.8c13.1.4,25.1-3.5,39.9-12.7l4.8-3,.5-2.2,1.3-4.4,1.2-4.1c.6-3.1.4-3.6-5-8.9-13.9-13.6-29.1-34.7-30.9-43l-1.4-3.4-2-1h0ZM159.2,135.7c-3.1,1.1-5.4,3.6-6.6,7.2-.8,2.2-.7,2.4.7,1.1,1.9-1.9,2.6-2.2,4.4-2.2l1.9.3-.7,2.9c-.7,2.2-.9,3.4-1,7-.2,5,.3,8.3,1.8,11.3,1.9,3.9,1.8,4,2-4.4.2-6.5.2-7.8.9-9.6,1.1-3.5,3.3-5,5.9-4.1,1.6.5,2.8,2.2,5,6.6,1.1,2.2,2.4,4.5,3,5.2l1,1.2.2-2.2c1-9.2-4.2-17.9-12.3-20.4-2.3-.7-4-.7-6.2,0ZM355.9,180.1c-12.2,6.5-16.5,8.1-23.3,9.3l-3.1.9c-.3.5-.3,8.2-.1,9.9l1.5,1.2c2.2,0,7-1.2,9.9-2.3,7.4-3,14.7-10.3,19.9-19.9l1.1-2.1c0,0-2.7,1.3-5.9,3h0ZM276.5,186.4c2.2,4.1,8.1,8.6,14.7,11.1,8,3.1,20.5,5.1,30.3,4.8h3c0-.1-.1-4.4-.1-4.4,0-2.4-.2-5-.3-5.8l-.3-1.4-11-.2c-18.1-.3-27.5-1.7-36.7-5.6l.4,1.5h0ZM269.7,196l-.8,2.7,2.6,2.8c.9.9,2.9,3.4,4.5,5.7,1.6,2.2,3.8,5.1,4.9,6.4,5.7,6.6,11.9,8.9,24.4,8.9s19.6-1.9,22.8-4.6l3.3-4.6c0-.2-5.2-.2-11.6-.2-19.2.2-27.1-.9-35-4.7-5.3-2.6-9-6.2-11.1-10.7-.9-2-1.1-2.2-2-2.1l-2,.4ZM310.8,303.8c-1.9,1.2-2.2,4-.5,5.6,2.4,2.4,6.2.6,6.2-2.8l-1.1-2.3-4.6-.5ZM315.6,320.8c-1.7.6-2.7,1.9-2.7,3.7l1.1,2.3,2.6,1.1,2.5-.9,1.1-2.6-1-2.6-3.6-1h0ZM395.2,366.3c-7.9,1.4-14.3,4.6-17.9,9l-1.3,1.6h1.5c3.4,0,6.9-1.5,14.6-6.1,4.6-2.8,7.4-4.2,9.3-4.8,1.5-.5-2.8-.3-6.2.3ZM388.6,379.8c-2.2.4-4.9,1.5-6,2.4l-.5,1.2c.7.5,11.3.1,18.7-.7,3.4-.3,6.4-.6,6.7-.7,1.1-.1-2.7-1.2-5.9-1.7-3.7-.6-10.8-.9-13-.5h0ZM385.7,393.1c-1.8.5-4.1,1.6-4.4,2-.3.5,4.5.7,17.6.9,10.9.1,12.1.1,11.1-.3-1.5-.7-7.1-2-10.8-2.6-4.1-.6-11.3-.6-13.5,0h0Z"/>
</svg>