<?xml version="1.0" encoding="UTF-8"?>
<svg id="katman_1" xmlns="http://www.w3.org/2000/svg" version="1.1" xmlns:xlink="http://www.w3.org/1999/xlink" viewBox="0 0 352.4 402.3">
  <!-- Generator: Adobe Illustrator 29.3.1, SVG Export Plug-In . SVG Version: 2.1.0 Build 151)  -->
  <path d="M288.4,180.4c-3.5,5.1-5.4,11.2-5.4,17.4,0,17.2,14,31.1,31.1,31.1,6.4,0,12.6-2,17.8-5.6,8.4-5.8,13.3-15.3,13.3-25.5,0-16.1-12.2-29.5-28.2-31-11.3-1.1-22.3,4.2-28.7,13.6Z"/>
  <path d="M214.1,159.5c7.5,6.6,12.8,15.3,15.4,24.9,11.7-.4,23.5-.4,35.2,0,2.5-9,7.3-17.2,14.1-23.7l-32.5-66.4-32.2,65.1Z"/>
  <path d="M196.7,149.3l49.7-100.5,49.5,101.1c2.1-.8,4.2-1.5,6.3-2L352.4,0h-212.3l50,147.5c2.2.4,4.5,1,6.6,1.8Z"/>
  <path d="M26.8,389c40.7,28.2,83.9,6.8,133.9-18.1,25-12.4,50.8-25.2,77.5-31.8,10.1-2.5,20.4-4,30.4-5.4,18.6-2.7,36.2-5.2,50.9-13.7,15.8-9.1,26.5-24.4,29.6-41.8,2.2-13,.2-26.4-5.6-38.3-8.6,6-18.8,9.2-29.2,9.2-25.7,0-47.4-19-50.8-44.5-10.9-.4-21.7-.4-32.6,0,0,.3,0,.5-.1.8-4.2,28-30.3,47.3-58.3,43.1-8.5,13.4-18.7,25.7-30.3,36.7-18.3,17.2-38.9,30-61.2,38l-4.1,1.5-3.9-2c-28.3-14.5-41.8-45.3-33.2-73.6-4.6-.5-9.1-1.7-13.2-3.3-1.4,2.9-2.8,5.8-4.3,8.8-8.4,17.3-17.1,35.2-20.3,54.6-3.5,21-4.8,59.2,25,79.9Z"/>
  <path d="M45.3,166.9c-17.2,0-31.1,13.9-31.1,31.1,0,5.4,1.4,10.7,4.1,15.4,3.6,6.3,9.3,11.2,16.2,13.8,3.5,1.3,7.1,2,10.8,2,17.2,0,31.2-13.9,31.2-31.1,0-17.2-14-31.1-31.1-31.1Z"/>
  <path d="M210.3,205c2.2-9.2.1-18.9-5.7-26.3-5.7-7.3-14.6-12-24.6-12-17.2,0-31.1,13.9-31.1,31.1h0c0,17.2,13.9,31.2,31.1,31.1,14.4,0,26.9-9.9,30.3-23.9Z"/>
</svg>