<?xml version="1.0" encoding="UTF-8"?>
<svg id="svg2" xmlns="http://www.w3.org/2000/svg" version="1.1" xmlns:cc="http://creativecommons.org/ns#" xmlns:dc="http://purl.org/dc/elements/1.1/" xmlns:inkscape="http://www.inkscape.org/namespaces/inkscape" xmlns:rdf="http://www.w3.org/1999/02/22-rdf-syntax-ns#" xmlns:sodipodi="http://sodipodi.sourceforge.net/DTD/sodipodi-0.dtd" xmlns:svg="http://www.w3.org/2000/svg" viewBox="0 0 699 699">
  <!-- Generator: Adobe Illustrator 29.3.1, SVG Export Plug-In . SVG Version: 2.1.0 Build 151)  -->
  <sodipodi:namedview id="base" bordercolor="#666666" borderopacity="1.0" fit-margin-bottom="0" fit-margin-left="0" fit-margin-right="0" fit-margin-top="0" inkscape:current-layer="layer1" inkscape:cx="187.35714" inkscape:cy="473.78572" inkscape:document-units="px" inkscape:pageopacity="0.0" inkscape:pageshadow="2" inkscape:window-height="664" inkscape:window-maximized="1" inkscape:window-width="1366" inkscape:window-x="-8" inkscape:window-y="-8" inkscape:zoom="0.35" pagecolor="#ffffff" showgrid="false"/>
  <g id="layer1" inkscape:groupmode="layer" inkscape:label="Layer 1">
    <g id="g2987">
      <path id="path2991" d="M0,349.5V0h699v699H0v-349.5ZM306,641.4c42-7.3,67.4-34.1,73-77.5.6-4.4,1-56,1-125.7v-118.2s-32.5,0-32.5,0h-32.5v111.8c0,66.9-.4,115.5-1,121.2-2,18.7-9,27.8-23.8,30.9-21,4.4-36.6-4-49.4-26.6-1.6-2.9-3.4-5.2-4-5.2-.9,0-50.1,29.3-52.1,31-2.1,1.8,10.4,20.9,20.1,30.7,23.8,24.2,61.7,34.5,101.3,27.6h0ZM557.5,641.9c26.7-3.4,48.5-13.7,64.5-30.6,6.5-6.9,9-10.5,13-18.7,6.5-13.5,8.1-20.3,8.7-37.2,1.2-30.4-6.9-51.9-26.4-70.6-14-13.3-31.6-23.6-64.8-37.9-34.1-14.7-44.6-21.4-49.6-31.7-3.5-7.2-3.3-18,.4-25.6,5.5-11.2,16.1-16.4,31.8-15.5,14.9.9,25.3,7.1,34.4,20.8l4.5,6.8,22.9-14.7c12.6-8.1,24.1-15.6,25.5-16.7l2.6-2-5.6-8.4c-14.2-21-32.9-34.3-56.6-40.2-12-3-38.8-3.8-51.8-1.5-21.4,3.7-36.6,11.3-50.6,25.1-12.6,12.5-19.5,25-23,42.2-2.5,12.1-1.5,35,2.1,46.8,9.1,30.2,29.4,49.7,71.2,68.2,8.2,3.6,20.9,9.2,28.3,12.5,29.9,13.2,39.3,22.7,39.3,39.4s-9.8,26.2-28.4,31c-9.9,2.6-28.9,1.7-39.3-1.9-14.2-4.9-27.8-15.8-37.1-29.9-2.7-4.1-4.3-5.6-5.4-5.2-3.1,1.2-52.1,29.9-52.1,30.5,0,2.3,15.1,22.8,21.6,29.3,28.8,28.9,71.6,41.6,119.9,35.5h0Z" inkscape:connector-curvature="0"/>
    </g>
  </g>
</svg>