<?xml version="1.0" encoding="UTF-8"?>
<svg id="Calque_1" xmlns="http://www.w3.org/2000/svg" version="1.1" xmlns:cc="http://creativecommons.org/ns#" xmlns:dc="http://purl.org/dc/elements/1.1/" xmlns:inkscape="http://www.inkscape.org/namespaces/inkscape" xmlns:rdf="http://www.w3.org/1999/02/22-rdf-syntax-ns#" xmlns:sodipodi="http://sodipodi.sourceforge.net/DTD/sodipodi-0.dtd" xmlns:svg="http://www.w3.org/2000/svg" viewBox="0 0 708.7 857.8">
  <!-- Generator: Adobe Illustrator 29.3.1, SVG Export Plug-In . SVG Version: 2.1.0 Build 151)  -->
  <g id="_x3C_defs">
    <inkscape:path-effect id="path-effect29672-0" effect="spiro" is_visible="true" lpeversion="0"/>
    <inkscape:path-effect id="path-effect29678-1" effect="spiro" is_visible="true" lpeversion="0"/>
    <inkscape:path-effect id="path-effect29678-4-6" effect="spiro" is_visible="true" lpeversion="0"/>
    <inkscape:path-effect id="path-effect28714-5" effect="spiro" is_visible="true" lpeversion="0"/>
    <inkscape:path-effect id="path-effect29721-2" effect="spiro" is_visible="true" lpeversion="0"/>
    <inkscape:path-effect id="path-effect28463-8-0" effect="spiro" is_visible="true" lpeversion="0"/>
    <inkscape:path-effect id="path-effect28463-0-7" effect="spiro" is_visible="true" lpeversion="0"/>
    <inkscape:path-effect id="path-effect28797-8-1" effect="spiro" is_visible="true" lpeversion="0"/>
    <inkscape:path-effect id="path-effect28797-81" effect="spiro" is_visible="true" lpeversion="0"/>
    <inkscape:path-effect id="path-effect28273-4-2" effect="spiro" is_visible="true" lpeversion="0"/>
    <inkscape:path-effect id="path-effect28851-0" effect="spiro" is_visible="true" lpeversion="0"/>
    <inkscape:path-effect id="path-effect28881-6" effect="spiro" is_visible="true" lpeversion="0"/>
    <inkscape:path-effect id="path-effect28974-8" effect="spiro" is_visible="true" lpeversion="0"/>
    <inkscape:path-effect id="path-effect29455-3" effect="spiro" is_visible="true" lpeversion="0"/>
    <inkscape:path-effect id="path-effect28463-4" effect="spiro" is_visible="true" lpeversion="0"/>
    <inkscape:path-effect id="path-effect28489-4" effect="spiro" is_visible="true" lpeversion="0"/>
    <inkscape:path-effect id="path-effect28273-54-7" effect="spiro" is_visible="true" lpeversion="0"/>
    <inkscape:path-effect id="path-effect28273-44" effect="spiro" is_visible="true" lpeversion="0"/>
    <inkscape:path-effect id="path-effect28384-7" effect="spiro" is_visible="true" lpeversion="0"/>
    <inkscape:path-effect id="path-effect29553-7" effect="spiro" is_visible="true" lpeversion="0"/>
    <inkscape:path-effect id="path-effect29707-7-6" effect="spiro" is_visible="true" lpeversion="0"/>
    <inkscape:path-effect id="path-effect4500-7" effect="spiro" is_visible="true" lpeversion="0"/>
    <inkscape:path-effect id="path-effect4582-3" effect="spiro" is_visible="true" lpeversion="0"/>
    <inkscape:path-effect id="path-effect14300-7" effect="spiro" is_visible="true" lpeversion="0"/>
    <inkscape:path-effect id="path-effect14300-2-7" effect="spiro" is_visible="true" lpeversion="0"/>
    <inkscape:path-effect id="path-effect14300-2-2-0" effect="spiro" is_visible="true" lpeversion="0"/>
    <inkscape:path-effect id="path-effect29716-0-0" effect="spiro" is_visible="true" lpeversion="0"/>
    <inkscape:path-effect id="path-effect29716-0-8-3" effect="spiro" is_visible="true" lpeversion="0"/>
    <inkscape:path-effect id="path-effect29716-6-1" effect="spiro" is_visible="true" lpeversion="0"/>
    <inkscape:path-effect id="path-effect14972-2-2" effect="spiro" is_visible="true" lpeversion="0"/>
    <inkscape:path-effect id="path-effect15017-9" effect="spiro" is_visible="true" lpeversion="0"/>
    <inkscape:path-effect id="path-effect4669-1" effect="spiro" is_visible="true" lpeversion="0"/>
    <inkscape:path-effect id="path-effect4669-4-3" effect="spiro" is_visible="true" lpeversion="0"/>
  </g>
  <sodipodi:namedview id="namedview19" bordercolor="#666666" borderopacity="1" fit-margin-bottom="0" fit-margin-left="0" fit-margin-right="0" fit-margin-top="0" gridtolerance="10" guidetolerance="10" inkscape:current-layer="Calque_1" inkscape:cx="315.36962" inkscape:cy="414.36457" inkscape:pagecheckerboard="0" inkscape:pageopacity="0" inkscape:pageshadow="2" inkscape:window-height="1182" inkscape:window-maximized="0" inkscape:window-width="1954" inkscape:window-x="0" inkscape:window-y="28" inkscape:zoom="0.35355339" objecttolerance="10" pagecolor="#ffffff" showgrid="false"/>
  <g>
    <path d="M682.9,676.7h0s0,0,0,0c-6.1-6.8-9-19.5-12.1-33.1-3.1-13.5-6.6-28.1-17.7-37.5,0,0,0,0,0,0-2.2-1.9-4.5-3.5-6.7-4.9-2.3-1.3-4.6-2.5-6.9-3.3,15.4-45.8,9.4-91.3-6.2-132.5-19.1-50.5-52.5-94.6-78-124.7-28.5-36-56.4-70.1-55.9-120.6C500.3,143,507.9.2,372.4,0c-5.5,0-11.3.2-17.2.7-151.4,12.2-111.3,172.2-113.5,225.8-2.8,39.2-10.7,70.1-37.7,108.4-31.6,37.6-76.2,98.6-97.3,162-10,29.9-14.7,60.4-10.3,89.3-1.4,1.2-2.7,2.5-3.9,3.8-9.3,9.9-16.2,21.9-23.8,30-7.2,7.1-17.3,9.9-28.5,13.9-11.2,4-23.5,9.9-31,24.3,0,0,0,0,0,0,0,0,0,0,0,0-3.5,6.5-4.7,13.6-4.7,20.8s1,13.4,2,19.8c2.1,13.5,4.2,26.2,1.4,34.8-8.9,24.2-10,41-3.8,53.1,6.3,12.2,19.1,17.6,33.6,20.6,29.1,6.1,68.4,4.6,99.4,21l2.7-5-2.6,5c33.2,17.4,66.9,23.5,93.7,17.4,19.5-4.4,35.3-16,43.4-33.9,21,0,44.1-9,81-11,25.1-2,56.3,8.9,92.3,6.9.9,3.9,2.3,7.7,4.2,11.2,0,0,0,0,0,0,13.9,27.9,39.9,40.7,67.5,38.5,27.7-2.2,57.1-18.5,80.8-46.8l-4.4-3.7,4.4,3.6c22.7-27.5,60.3-38.9,85.2-53.9,12.5-7.5,22.6-16.9,23.4-30.6.8-13.7-7.3-29-25.7-49.5ZM348.3,173.8c-.1-10.1,1.5-18.7,5.4-27.5,3.9-8.8,8.7-15.1,15.4-20.2,6.8-5.1,13.4-7.5,21.2-7.5h.4c7.7,0,14.2,2.3,21,7.2,6.8,5,11.8,11.2,15.8,19.9,3.9,8.5,5.8,16.8,6,26.6,0,.3,0,.5,0,.7h0c0,10.1-1.7,18.7-5.5,27.5-2.2,5-4.7,9.2-7.7,12.8-1-.5-2.1-1-3.2-1.4-3.8-1.6-7.2-3-10.2-4.1-3-1.1-5.4-1.9-7.8-2.8,1.8-2.1,5.2-4.6,6.5-7.8,2-4.8,2.9-9.4,3.1-14.9,0-.2,0-.4,0-.7.1-5.3-.6-9.8-2.1-14.5-1.6-4.9-3.7-8.4-6.7-11.3-3-2.9-6-4.2-9.6-4.3-.2,0-.3,0-.5,0-3.4,0-6.3,1.2-9.3,3.7-3.2,2.6-5.5,6-7.5,10.8-2,4.7-2.9,9.4-3.1,15,0,.2,0,.4,0,.6,0,3.1.1,5.9.6,8.6-6.9-3.4-15.7-5.9-21.8-7.4-.3-2.6-.6-5.3-.6-8.2v-.8ZM258.9,152.2c2.4-7.7,5.6-13.3,10.2-17.9,4.6-4.6,9.3-6.9,15-7.2.4,0,.9,0,1.3,0,5.1,0,9.7,1.7,14.4,5.5,5.1,4.1,9,9.3,12.2,16.7,3.2,7.4,5,14.7,5.5,23.4h0c.2,3.7.2,7.2,0,10.5-1,.3-2,.6-3,.9-5.5,1.9-9.9,4-14.1,6.8.4-2.9.5-5.9.1-9.2,0-.2,0-.3,0-.5-.4-4.4-1.4-8.1-2.9-11.8-1.7-3.9-3.5-6.6-5.9-8.7-2.2-1.9-4.3-2.8-6.6-2.8-.2,0-.5,0-.7,0-2.6.2-4.7,1.5-6.8,4-2,2.5-3.3,5.5-4.3,9.6-1,4-1.2,8-.8,12.6,0,.2,0,.3,0,.5.4,4.4,1.3,8.1,2.9,11.8,1.6,3.8,3.5,6.6,5.9,8.7.4.3.8.7,1.2,1-2.5,2-4.2,3.3-6.3,4.9-1.3,1-2.9,2.1-4.8,3.5-4-3.8-7.1-8.5-9.9-14.7-3.2-7.4-5-14.7-5.5-23.4h0c-.5-8.8.4-16.2,2.8-24ZM262.9,228.8c8-6,13.6-10.1,17.3-12.8,3.7-2.7,5.2-3.7,6.4-4.8,0,0,0,0,0,0h0c6-5.7,15.6-16.1,30.1-21,5-1.7,10.5-2.8,16.7-2.8,11.9,0,26.1,3.8,43.4,14.9,10.6,6.9,18.9,7.5,37.9,15.6h0s0,0,0,0c9.1,3.8,14.5,8.6,17.1,13.8h0c2.6,5.1,2.7,10.7.5,16.6-4.4,11.8-18.4,24.1-38.1,30.3h0s0,0,0,0c-9.6,3.1-17.9,10-27.8,15.6-9.9,5.6-21,10.2-36.2,9.3-6.5-.4-11.6-1.7-16-3.5-4.4-1.9-8.1-4.4-11.6-7.2-7-5.6-13.1-12.7-22-17.9h0s0,0,0,0c-14.3-8.1-22.2-17.5-24.6-25.6-2.5-8.1-.2-15.1,7-20.4ZM268.5,788h0c-2,26.9-17.1,41.4-40.3,46.7-23.1,5.3-54.5,0-85.9-16.4,0,0,0,0,0,0-34.7-18.4-75.9-16.5-102.4-22.1-13.2-2.8-21.9-6.9-25.8-14.6-4-7.7-4-21.2,4.4-44.2h0c0-.1,0-.2,0-.2,4.2-12.8,1.1-26.9-.9-40.1-2-13.2-3-25.2,1.5-33.6h0c5.8-11.2,14.2-15.2,24.7-18.9,10.5-3.8,23-6.7,32.8-16.6h0s0,0,0,0c9.1-9.6,15.9-21.6,23.9-30.2,6.7-7.2,13.5-12,23.7-12,.1,0,.2,0,.4,0,1.8,0,3.7.2,5.7.5,13.5,2,25.3,11.5,36.6,26.9l32.7,59.7h0s0,0,0,0c8.7,18.2,27.1,38.2,42.7,58.6,15.6,20.4,27.6,40.9,26.1,56.6h0ZM265.7,744.6c-4.3-6.8-9.2-13.5-14.3-20.2-3.2-4.2-6.6-8.5-9.9-12.6,6.5,0,12-1.1,16.5-3.1,5.6-2.5,9.5-6.6,11.4-11.8,3.9-10.4,0-25-12.4-41.8-12.4-16.7-33.3-35.6-64.1-54.5h0c-22.6-14.1-35.3-31.3-41.2-50-5.9-18.7-5.1-39-.5-59,8.8-38.4,31.3-75.7,45.6-99.1,3.9-2.8,1.4,5.3-14.5,34.8-14.3,27-40.9,89.4-4.4,138.1,1-34.6,9.2-70,23.1-103,20.2-45.8,62.5-125.4,65.9-188.8,1.7,1.3,7.7,5.3,10.3,6.8t0,0c7.8,4.6,13.6,11.2,21.1,17.3,7.6,6.1,17,11.3,31.3,12.2,1.4,0,2.7.1,4,.1,14.7,0,26.2-4.8,35.8-10.3,10.4-5.9,18.7-12.5,26.6-15.1,0,0,0,0,0,0,16.6-5.2,29.8-14.4,37.4-25.1,12.9,50.9,43,124.5,62.3,160.4,10.3,19,30.7,59.5,39.5,108.2,5.6-.2,11.8.6,18.3,2.3,23.1-59.8-19.6-124.2-39.1-142.2-7.9-7.6-8.2-11.1-4.3-10.9,21.1,18.7,48.9,56.3,59,98.8,4.6,19.4,5.6,39.7.6,59.8,2.4,1,4.9,2.1,7.4,3.3,37,18,50.7,33.7,44.1,55.1h0c-2.2,0-4.3,0-6.4,0-.2,0-.4,0-.6,0,5.4-17-6.5-29.5-38.2-43.8-32.8-14.4-59-13-63.4,16.3-.3,1.5-.5,3.1-.7,4.7-2.5.9-4.9,1.9-7.4,3.3-15.4,8.4-23.8,23.7-28.5,42.5-4.7,18.8-6,41.4-7.3,66.9h0c-.8,12.8-6.1,30.2-11.4,48.5-53.8,38.4-128.4,55-191.8,11.7ZM697.2,725.6h0c-.5,8.4-6.6,14.7-17.9,21.5-22.6,13.6-62.6,25.5-88.1,56.4-22.2,26.4-49.2,40.9-73,42.8s-44.3-8-56.5-32.3h0s0-.1,0-.1c-7.5-14.3-4.4-36.9,1.9-60.6,6.3-23.8,15.4-48.2,16.6-68.1h0c1.3-25.5,2.7-47.7,7-64.9,4.3-17.2,11-28.8,22.9-35.3.6-.3,1.1-.6,1.7-.9,1.4,22,12.3,44.5,31.5,49.4,21.1,5.6,51.5-12.5,64.4-27.3,2.6-.1,5.1-.2,7.5-.3,11.3-.3,20.7.4,30.4,8.8h0s0,0,0,0c7.4,6.3,10.9,18.2,14,31.5,3.1,13.3,5.5,27.8,14.7,38.1h0s0,0,0,0c17.6,19.6,23.3,32.8,22.8,41.2Z"/>
    <path d="M269.3,249.1c3.4,3.2,7.9,7.5,13.4,11.9,11,8.8,26.4,17.7,45.8,17.7s37.7-9.9,53.4-18c8.2-4.3,18.3-11.7,24.7-17.4,6.5-5.6,9.9-10.6,5.3-11.1s-4.4,4.4-10,8.5c-7.3,5.4-16.2,12.4-23.3,16.4-12.4,7-32.7,17.2-50.1,17.2s-31.3-8-41.8-16.3c-5.2-4.1-9.5-8.3-13-11.5-2.5-2.4-3.2-7.7-7.2-8.2-2.4-.2-3.1,6.3,2.8,10.9Z"/>
    <path d="M343.1,203.9c.6,2.1,4,1.7,5.9,2.7,1.7.9,3.1,2.8,5,2.8,1.8,0,4.7-.6,4.9-2.4.3-2.4-3.2-3.9-5.4-4.8-2.9-1.1-6.6-1.7-9.3-.2-.6.3-1.3,1.2-1.1,1.8h0Z"/>
    <path d="M312.4,209.5c1.9,0,3.3-2,5-2.8,1.9-1,5.3-.7,5.9-2.7h0c.2-.7-.5-1.5-1.1-1.8-2.7-1.5-6.4-.9-9.3.2-2.2.9-5.7,2.4-5.4,4.8.2,1.8,3.1,2.5,4.9,2.4Z"/>
  </g>
</svg>