<?xml version="1.0" encoding="UTF-8"?>
<svg id="Layer_1" xmlns="http://www.w3.org/2000/svg" version="1.1" viewBox="0 0 100 100">
  <!-- Generator: Adobe Illustrator 29.3.1, SVG Export Plug-In . SVG Version: 2.1.0 Build 151)  -->
  <path d="M93.7,17c.1.1.3.2.4.3-.1-.1-.2-.2-.4-.3Z"/>
  <path d="M65.6,0c3.6,0,5.3.8,8.5,3.1C71,.8,69.2,0,65.6,0Z"/>
  <path d="M92.3,15.9h0c.2,0,.4.2.6.4-.2-.1-.3-.2-.5-.4Z"/>
  <path d="M92.8,16.3c.2.2.4.3.6.4-.2-.1-.4-.3-.6-.4Z"/>
  <path d="M95.5,19.2c0,.2,0,.3.1.5,0-.2,0-.3-.1-.5Z"/>
  <path d="M55.7,98.1l33.1-2c1.6-.1,2.9-.4,3.9-.9-1,.5-2.3.8-3.9.9l-33.1,2Z"/>
  <path d="M95.7,20.6c0-.3,0-.5,0-.8,0,.2,0,.5,0,.8v68.2c0,1.7-.2,3.1-.9,4.2.6-1.1.9-2.5.9-4.2V20.6Z"/>
  <path d="M94.9,18.1c0,.1.2.2.2.3,0-.1-.1-.2-.2-.3Z"/>
  <path d="M95.3,18.6c0,.1.1.2.2.4,0-.1,0-.2-.2-.4Z"/>
  <path d="M94.4,17.6c.1,0,.2.2.3.3,0,0-.2-.2-.3-.3Z"/>
  <path d="M95.7,20.6c0-.3,0-.5,0-.8,0,0,0-.1,0-.2,0-.2,0-.3-.1-.5,0,0,0-.1,0-.2,0-.1,0-.2-.2-.4,0,0,0-.1-.1-.2,0-.1-.1-.2-.2-.3,0,0-.1-.2-.2-.2,0,0-.2-.2-.3-.3,0,0-.2-.2-.3-.2-.1-.1-.2-.2-.4-.3,0,0-.2-.2-.3-.2-.2-.1-.4-.3-.6-.4,0,0,0,0,0,0-.2-.1-.4-.3-.6-.4l-18-12.7C71,.8,69.2,0,65.6,0c-.9,0-1.9,0-3.1.1s-.8,0-1.2,0h0S6,4.3,6,4.3C1.6,4.7,0,7.6,0,11.1v60.7c0,2.7,1,5.1,3.3,8.2l13,16.9c2.1,2.7,4.1,3.3,8.2,3.1l31.2-1.9,33.1-2c1.6-.1,2.9-.4,3.9-.9,1-.5,1.7-1.2,2.2-2.1.6-1.1.9-2.5.9-4.2V20.6ZM16.5,17.5l-7.6-6c-.8-.8-.4-1.8,1.6-1.9l53.2-3.9c4.5-.4,6.8,1.2,8.5,2.5l9.1,6.6c.4.2,1.4,1.4.2,1.4l-54.9,3.3h-.7s0,0,0,0c-5.2.4-6.4.4-9.4-2ZM89.1,84c0,2.5-.4,4.7-3.9,4.9l-60.4,3.5c-3.5.2-5-1-5-4.1h0V30.4c0-2.5.8-3.7,3.1-3.9l63.1-3.7c2.1-.2,3.1,1.2,3.1,3.7v57.5Z"/>
  <path d="M79.4,33.5l-13.4.8c-1.9.2-3.5,1.7-3.1,3.9l5,.6v26.8l-19.8-30.3-14.4,1c-2.7.2-3.7,2.7-3.3,4.5l4.9.4v38.3l-3.5,1c-1.4.4-1.7,2.3-1.4,3.1l13.4-.8c4.9,0,4.9-3.5,4.9-3.5l-6-1.4v-29l19,29.9c2.3,2.9,3.1,3.9,6.2,3.9s4.3-.8,6.8-2.1v-42.8l2.9-.6c1.8-.2,2.1-2,1.8-3.7h0Z"/>
</svg>