<?xml version="1.0" encoding="UTF-8"?>
<svg id="Layer_1" xmlns="http://www.w3.org/2000/svg" version="1.1" xmlns:xlink="http://www.w3.org/1999/xlink" viewBox="0 0 319 477">
  <!-- Generator: Adobe Illustrator 29.3.1, SVG Export Plug-In . SVG Version: 2.1.0 Build 151)  -->
  <defs>
    <style>
      .st0 {
        opacity: .8;
      }

      .st1 {
        fill-rule: evenodd;
      }

      .st2 {
        opacity: 0;
      }

      .st3 {
        opacity: .5;
      }
    </style>
  </defs>
  <g class="st3">
    <path class="st1" d="M150.5,144C67.4,144,0,233.9,0,343.4s67.4,133.6,150.5,133.6,150.5-24.1,150.5-133.6-67.4-199.4-150.5-199.4ZM82.6,302.9c-.3,0-.6,0-.9,0-6.6,0-12.9-2.5-17.7-7-5.1-4.7-8-11.2-8.3-18.1-.2-6.9,2.2-13.6,7-18.6,4.7-5.1,11.2-8,18.1-8.3,14.3-.5,26.4,10.7,26.9,25.1.5,14.3-10.7,26.4-25.1,26.9ZM212.9,308.3c-.3,0-.6,0-.9,0-13.9,0-25.5-11.1-26-25.1-.5-14.3,10.7-26.4,25.1-26.9,14.3-.5,26.4,10.7,26.9,25.1.5,14.3-10.8,26.4-25.1,26.9Z"/>
  </g>
  <g>
    <g>
      <path d="M145.7,317.1c-1.4,0-2.8,0-4.2-.2-9.3-1.1-16.4-5.1-21-11.9-.9-1.4-.6-3.2.8-4.2,1.4-.9,3.2-.6,4.2.8,3.6,5.4,9.1,8.4,16.7,9.3,7.7.9,14.3-1,20.2-5.8,1.3-1,3.2-.9,4.2.4,1,1.3.8,3.2-.4,4.2-6,4.9-12.9,7.3-20.4,7.3Z"/>
      <g>
        <path class="st1" d="M93.2,264.6c-3.2-2.9-7.4-4.7-12.1-4.5-4.7.2-8.8,2.2-11.8,5.4-2.9,3.2-4.7,7.4-4.5,12.1.2,4.7,2.2,8.8,5.4,11.8,3.2,2.9,7.4,4.7,12.1,4.5,4.7-.2,8.8-2.2,11.8-5.4,2.9-3.2,4.7-7.4,4.5-12.1-.2-4.7-2.2-8.8-5.4-11.8ZM75.4,280.6c-3.9.1-7.1-2.9-7.2-6.8-.1-3.9,2.9-7.1,6.8-7.2,3.9-.1,7.1,2.9,7.2,6.8.1,3.9-2.9,7.1-6.8,7.2Z"/>
        <path class="st1" d="M223.6,269.9c-3.2-3-7.5-4.7-12.2-4.6-4.7.2-8.9,2.2-11.8,5.4-3,3.2-4.7,7.5-4.6,12.2.2,4.7,2.2,8.9,5.4,11.8,3.2,3,7.5,4.7,12.2,4.6,4.7-.2,8.9-2.2,11.8-5.4,3-3.2,4.7-7.5,4.6-12.2-.2-4.7-2.2-8.9-5.4-11.8ZM205.6,286.1c-3.9.1-7.1-2.9-7.2-6.8-.1-3.9,2.9-7.1,6.8-7.2s7.1,2.9,7.2,6.8c.1,3.9-2.9,7.1-6.8,7.2Z"/>
      </g>
    </g>
    <g class="st2">
      <path d="M80.7,391.6l23.8-25.3c2.1-2.2,2-5.7-.2-7.8s-5.7-2-7.8.2l-23.4,24.9-32.6-33.9c-2.1-2.2-5.6-2.3-7.8-.2-2.2,2.1-2.3,5.6-.2,7.8l33,34.3-16.1,17.1c-2.1,2.2-2,5.7.2,7.8,1.1,1,2.4,1.5,3.8,1.5s2.9-.6,4-1.7l15.7-16.7,33.4,34.7c1.1,1.1,2.5,1.7,4,1.7s2.7-.5,3.8-1.5c2.2-2.1,2.3-5.6.2-7.8l-33.7-35.1Z"/>
      <path d="M267.3,349.5c-2.2-2.1-5.7-2-7.8.2l-32.6,33.9-23.4-24.9c-2.1-2.2-5.6-2.3-7.8-.2-2.2,2.1-2.3,5.6-.2,7.8l23.8,25.3-33.7,35.1c-2.1,2.2-2,5.7.2,7.8,1.1,1,2.4,1.5,3.8,1.5s2.9-.6,4-1.7l33.4-34.7,15.7,16.7c1.1,1.2,2.5,1.7,4,1.7s2.7-.5,3.8-1.5c2.2-2.1,2.3-5.6.2-7.8l-16.1-17.1,33-34.3c2.1-2.2,2-5.7-.2-7.8Z"/>
      <path d="M158.8,213l25.6-25.6c2.1-2.1,2.1-5.6,0-7.8-2.1-2.1-5.6-2.1-7.8,0l-25.6,25.6-25.6-25.6c-2.1-2.1-5.6-2.1-7.8,0-2.1,2.1-2.1,5.6,0,7.8l25.6,25.6-15.6,15.6c-2.1,2.1-2.1,5.6,0,7.8,1.1,1.1,2.5,1.6,3.9,1.6s2.8-.5,3.9-1.6l15.6-15.6,15.6,15.6c1.1,1.1,2.5,1.6,3.9,1.6s2.8-.5,3.9-1.6c2.1-2.1,2.1-5.6,0-7.8l-15.6-15.6Z"/>
    </g>
  </g>
  <g>
    <path class="st0" d="M118.3,148.6c0-11.2.8-23.6,2.5-36.9.6-4.8,1.4-9.6,2.5-14.3-30.9-31.1-74.2-41.4-83.5-32.6-10.6,10.1-13.3,80.7,13.2,127,18.5-20.9,40.8-36,65.3-43.1Z"/>
    <path class="st0" d="M215.8,163.8c21.1,13.5,39.5,33.4,53.7,57.7,39-37.8,55.2-109.2,47.1-121.9-7-11.1-54.4-12.1-92.6,12.4-.2,4.1-.5,8.2-1,12.2-1.8,14.7-4.1,27.9-7.2,39.6Z"/>
    <path d="M118.3,148.6c10.4-3,21.2-4.6,32.2-4.6,23.4,0,45.5,7.1,65.3,19.8,3.1-11.6,5.4-24.9,7.2-39.6.5-4.1.8-8.1,1-12.2C226.2,56.7,199.3,2.3,186.8.8c-12.4-1.5-51.6,43.3-63.6,96.5-1.1,4.7-1.9,9.5-2.5,14.3-1.6,13.4-2.5,25.7-2.5,36.9Z"/>
  </g>
</svg>