<?xml version="1.0" encoding="UTF-8"?>
<svg id="Layer_1" xmlns="http://www.w3.org/2000/svg" version="1.1" viewBox="0 0 595.5 624.1">
  <!-- Generator: Adobe Illustrator 29.3.1, SVG Export Plug-In . SVG Version: 2.1.0 Build 151)  -->
  <path d="M0,3.1L7.5,0h534.1c5.6-.2,8.4,3.1,5.3,8.4l-152.9,209.1-4.4,1.5c-11.3-5-55.6-63.9-62.1-65s-2.9,0-4.4.5c-2.5.9-32.6,39.5-33.7,42.3s-1.7,2.9-1.4,5.7c.8,7.6,89.4,91.8,99.7,105.4l5.4.7c68.1-72.1,131.2-150,199.3-221.4l3.2,1.8-.5,533.5-5.5,1.5H6.4s-6.4-2-6.4-2V3.1ZM84.3,478.4c-2.3,1.8-25.4,35.5-24.9,37.7,1.5,7.8,36.7,26.4,44.6,29.4,67.2,25.6,182.8,6.4,163.5-89.5-12.4-61.6-92.5-54.3-132.6-75.4-12.2-6.5-18.5-16.1-10.4-29.5,12.2-20.2,54-13.4,72.7-6.8,6.7,2.4,34,18.9,36,18.6s26.2-32,27-35.2c2.6-10-31.1-25.4-39-28.4-66.9-25.8-181.2,1-152.3,92.3,19.7,62.1,125.1,49,141.3,76.7s-12.7,36.6-30.9,38.6c-27.7,3.1-51.4-5.1-74.7-19.1s-13-15.1-20.4-9.5ZM349.5,471.1h138c4.7,0-1.1-39-2-43-26.1-112.5-194.7-89.9-191.6,31.6,2.2,85,93.7,119.3,163.1,82,20.4-11,20-12.3,6.4-30.4-15.3-20.3-11.3-9.1-32.2-1.4s-47.2,10.3-66.7-5.8c-5-4.2-23.8-30.2-15-33Z"/>
  <path d="M440,437.1h-93c3.2-55.7,90.5-57,93,0Z"/>
</svg>