<?xml version="1.0" encoding="UTF-8"?>
<svg id="Layer_1" xmlns="http://www.w3.org/2000/svg" version="1.1" viewBox="0 0 512 512">
  <!-- Generator: Adobe Illustrator 29.3.1, SVG Export Plug-In . SVG Version: 2.1.0 Build 151)  -->
  <path d="M390.8,225.2c-13,2.2-10.8,23.9,3.7,21.7,12.8-1.9,10.7-24.1-3.7-21.7Z"/>
  <path d="M464.1,0H47.9C21.5,0,0,21.5,0,47.9v416.2c0,26.5,21.5,47.9,47.9,47.9h416.2c26.5,0,47.9-21.5,47.9-47.9V47.9C512,21.5,490.5,0,464.1,0ZM279,348l9.5-14c5.5-11.2,5.5-21.9,5.9-34.1,12.4-5.4,25.9-9.7,39.5-9-.2,30.5-25.5,54.1-55,57ZM399.2,301.3c-20.3-5-40.1-17.2-43.1-39.6-12.4-5-1.6,17.9,1.9,22.3-18.5-3.9-37-2-55,3.5-3.2,1-16.2,5.5-18,7-1.3,1-1.2,20-2.3,24.7-3.2,14.7-20.7,39.8-37.2,39.8h-16.5c2.1-38.4-9-86.2,23-115-21.8,4.6-32.8,24.4-36.7,44.8-1.5,8,1.3,14.6-6.6,18.4-19.1,9-55.4,10.1-75.4,4.1-6.8-2-12.9-5.2-19.2-8.3-4,15.6,10,16.2,20,20.5,41.7,18.2,28.9,50.8-1.7,72.3-42.7,30-63.2-8.7-67.3-47.3-15.1-141.8,116.5-252.6,254-219,40,9.8,79.6,36.3,98.2,73.8,4.6,9.3,6.4,19.6,11.3,28.7,6.5,12,18.7,22.2,20.4,36.6,3.4,29.6-25.6,38.6-49.7,32.7Z"/>
</svg>