<?xml version="1.0" encoding="UTF-8" standalone="no"?>
<!DOCTYPE svg PUBLIC "-//W3C//DTD SVG 1.1//EN" "http://www.w3.org/Graphics/SVG/1.1/DTD/svg11.dtd">
<svg width="100%" height="100%" viewBox="0 0 1876 1876" version="1.1" xmlns="http://www.w3.org/2000/svg" xmlns:xlink="http://www.w3.org/1999/xlink" xml:space="preserve" xmlns:serif="http://www.serif.com/" style="fill-rule:evenodd;clip-rule:evenodd;stroke-linejoin:round;stroke-miterlimit:2;">
    <g transform="matrix(4.166667,0,0,4.166667,930.615275,0.162641)">
        <path d="M0,449.956C-119.903,449.129 -224.151,349.621 -223.343,223.201C-222.565,101.553 -121.478,-0.866 3.605,-0.034C125.169,0.774 227.731,101.683 226.644,225.304C227.651,347.804 124.587,450.822 0,449.956ZM-61.11,206.291C-71.223,205.789 -79.829,213.581 -80.332,223.694C-80.834,233.807 -73.042,242.414 -62.929,242.916C-62.528,242.935 -62.131,242.944 -61.731,242.935C-51.799,243.507 -43.287,235.922 -42.716,225.991C-42.696,225.659 -42.685,225.328 -42.685,224.994C-42.517,214.831 -50.621,206.459 -60.781,206.291L-61.11,206.291ZM2.207,206.291C-7.495,205.979 -15.613,213.592 -15.925,223.294C-15.942,223.851 -15.933,224.409 -15.9,224.967C-15.839,235.886 -8.448,242.988 2.781,242.938C13.822,242.891 20.819,235.673 20.758,224.392C20.7,213.407 13.319,206.205 2.207,206.291ZM-79.021,328.786C-88.372,328.51 -91.894,326.2 -92.822,317.144C-94.011,305.476 -93.672,293.668 -94.414,281.943C-95.794,260.123 -98.212,238.635 -119.463,224.806C-108.516,216.697 -100.616,207.141 -98.107,194.292C-96.346,185.427 -95.14,176.459 -94.497,167.444C-93.882,158.385 -94.975,149.202 -94.182,140.173C-92.913,125.776 -92.013,119.852 -74.621,120.385C-72.043,120.462 -69.448,120.051 -66.616,119.85L-66.616,91.287C-73.497,91.287 -79.589,91.011 -85.662,91.337C-107.004,92.468 -119.924,102.579 -123.446,123.391C-125.883,137.783 -125.505,152.649 -126.571,167.278C-126.811,174.844 -127.622,182.379 -128.991,189.824C-132,203.073 -137.669,207.196 -151.12,207.859C-152.914,208.06 -154.697,208.364 -156.455,208.775L-156.455,240.592C-131.923,241.801 -128.61,250.529 -126.645,276.094C-125.936,285.385 -126.963,294.797 -126.369,304.104C-125.939,312.896 -124.763,321.634 -122.85,330.224C-117.263,353.587 -94.497,361.434 -66.859,356.761L-66.859,328.817C-71.306,328.817 -75.165,328.899 -79.021,328.786ZM85.424,224.873C85.976,214.983 76.906,206.341 66.68,206.291C56.423,206.117 47.919,214.199 47.571,224.453C47.582,234.68 55.882,242.96 66.108,242.947L66.246,242.947C75.479,244.501 84.847,235.596 85.424,224.873ZM134.774,192.374C132.977,185.275 131.884,178.015 131.506,170.701C130.645,157.256 130.777,143.747 129.877,130.302C127.73,98.284 104.613,87.149 71.148,92.706L71.148,120.468C76.393,120.468 80.511,120.388 84.613,120.487C91.773,120.664 97.177,123.385 97.945,131.252C98.657,138.539 98.624,145.895 99.305,153.187C100.685,167.775 101.514,182.479 104.078,196.865C106.198,208.734 114.382,217.536 124.575,224.804C106.761,236.731 101.525,253.813 100.666,272.936C100.075,286.166 99.788,299.409 99.131,312.636C98.538,324.676 94.251,328.585 82.129,328.875C78.775,328.955 75.43,329.278 71.64,329.512L71.64,357.942C78.681,357.942 85.259,358.268 91.789,357.882C112.08,356.684 124.36,346.871 128.334,327.202C130.037,316.346 131.037,305.391 131.327,294.405C132.017,284.399 131.934,274.319 132.938,264.349C134.512,248.732 141.611,242.342 157.187,241.373C158.658,241.147 160.107,240.799 161.52,240.335L161.52,208.527C158.909,208.237 157.013,207.914 155.108,207.826C143.485,207.296 137.73,203.415 134.774,192.374Z"/>
    </g>
</svg>
