<?xml version="1.0" encoding="UTF-8"?>
<svg id="Layer_1" xmlns="http://www.w3.org/2000/svg" version="1.1" xmlns:xlink="http://www.w3.org/1999/xlink" viewBox="0 0 125.6 25.6">
  <!-- Generator: Adobe Illustrator 29.3.1, SVG Export Plug-In . SVG Version: 2.1.0 Build 151)  -->
  <defs>
    <style>
      .st0 {
        fill-rule: evenodd;
      }
    </style>
  </defs>
  <path class="st0" d="M22.2,0H3C1.3,0,0,1.3,0,3v19.2c0,.8.3,1.6.9,2.1.6.6,1.3.9,2.1.9h19.2c.8,0,1.6-.3,2.1-.9s.9-1.3.9-2.1V3c0-1.7-1.3-3-3-3ZM10.9,18.1c0,.3-.1.5-.3.7-.2.2-.4.3-.7.3h-4.2c-.5,0-1-.4-1-1V5.6c0-.5.4-1,1-1h4.2c.5,0,1,.4,1,1v12.5ZM20.6,12.4c0,.3-.1.5-.3.7s-.4.3-.7.3h-4.2c-.5,0-1-.4-1-1v-6.8c0-.5.4-1,1-1h4.2c.5,0,1,.4,1,1v6.8Z"/>
  <g>
    <path d="M52.2,1.8v4.9h-5.8v18.5h-5.6V6.7h-5.8V1.8h17.1Z"/>
    <path d="M59.3,25.2h-5.1V7h5.1v3.5c1-2.5,2.5-3.9,5.3-3.7v5.4c-3.6-.3-5.3.6-5.3,3.5v9.5Z"/>
    <path d="M92.7,25.3c-3.4,0-5.5-1.6-5.5-5.4V0h5.2v19.2c0,1.1.7,1.5,1.6,1.5.3,0,.5,0,.8,0v4.5c-.7.2-1.4.2-2.1.2Z"/>
    <path d="M103.6,25.3c-3.4,0-5.5-1.6-5.5-5.4V0h5.2v19.2c0,1.1.7,1.5,1.6,1.5.3,0,.5,0,.8,0v4.5c-.7.2-1.4.2-2.1.2Z"/>
    <path d="M108.1,16.1c0-5.6,3.2-9.5,8.8-9.5s8.7,3.8,8.7,9.5-3.2,9.5-8.7,9.5-8.8-3.9-8.8-9.5ZM113.2,16.1c0,2.7,1.1,4.9,3.8,4.9s3.7-2.2,3.7-4.9-1.1-4.8-3.7-4.8-3.8,2.1-3.8,4.8Z"/>
    <path d="M71.6,17.7c1.4.2,2.9.2,4.3.3,3.9,0,7.3-1.1,7.3-4.9s-3.4-6.5-7.5-6.5-9.1,4-9.1,9.6,3.1,9.3,10,9.3c2.1,0,4.1-.3,6-1.1v-4.4c-1.8.6-3.8,1.1-5.8,1.1s-4.7-.9-5.1-3.5ZM75.6,10.6c1.5,0,2.6,1,2.6,2.3s-1.8,2.3-4,2.3c-.9,0-1.8,0-2.7-.2,0-.8.3-1.7.7-2.4.7-1.2,1.9-2,3.3-2h0Z"/>
  </g>
</svg>