<?xml version="1.0" encoding="UTF-8"?>
<svg id="Layer_1" xmlns="http://www.w3.org/2000/svg" version="1.1" viewBox="0 0 252.4 400">
  <!-- Generator: Adobe Illustrator 29.3.1, SVG Export Plug-In . SVG Version: 2.1.0 Build 151)  -->
  <path d="M0,0v400h252.4V0H0ZM166.6,170.8c14.4,0,26.1,11.7,26.1,26.1s-11.7,26.1-26.1,26.1-26.1-11.7-26.1-26.1,11.7-26.1,26.1-26.1ZM136.8,173.8c-3.5,4.5-5.9,9.7-7.1,15.3-.4,1.9-.7,3.9-.8,5.9-20.6.4-39.5,10.5-51.3,27.4-3.7-2.3-7.7-3.9-11.9-4.8-2.6-.6-5.2-.8-7.9-.8s-1.3,0-2,0c16.3-28.7,48.2-45.7,81.1-43ZM31.6,254.3c0-14.4,11.7-26.1,26.1-26.1s26.1,11.7,26.1,26.1-11.7,26.1-26.1,26.1-26.1-11.7-26.1-26.1ZM112.2,342.5c-27.9-6-50.6-25.1-61.2-51.3,7.5,1.4,15.4.4,22.3-2.8,8.8,17,24.6,29.1,43.4,33.1h0c2.1.5,4.3.8,6.4,1,.2,7.9,2.8,15.5,7.7,21.9-6.2,0-12.5-.6-18.6-1.9ZM160.7,347.8c-14.4,0-26.1-11.7-26.1-26.1s11.7-26.1,26.1-26.1,26.1,11.7,26.1,26.1-11.7,26.1-26.1,26.1ZM213.6,276.8c-2.8,12.9-8.5,25-16.6,35.2,0,0,0,0,0,0h0s0,0,0,0c-2-7.6-6.4-14.4-12.5-19.5,3.8-6.2,6.6-13,8.1-20.2,3.2-14.8,1-30.1-6-43.4,6.6-4.1,11.7-10.1,14.7-17.2,12.6,19.1,17.1,42.7,12.3,65.1Z"/>
</svg>