<?xml version="1.0" encoding="UTF-8"?>
<svg id="Layer_1" xmlns="http://www.w3.org/2000/svg" version="1.1" viewBox="0 0 176.5 176.5">
  <!-- Generator: Adobe Illustrator 29.3.1, SVG Export Plug-In . SVG Version: 2.1.0 Build 151)  -->
  <defs>
    <style>
      .st0 {
        opacity: .8;
      }

      .st1 {
        opacity: .9;
      }

      .st2 {
        fill: none;
      }

      .st3 {
        opacity: .8;
      }
    </style>
  </defs>
  <g>
    <polygon class="st2" points="30.3 105.9 45.6 88.2 30.3 70.5 30.3 105.9"/>
    <polygon class="st2" points="104.8 88.2 104.8 88.2 104.8 88.2 132.3 114.6 132.3 114.6 132.3 61.9 132.3 61.9 104.8 88.2"/>
    <path d="M8.2,128.6c1.9-.2,3.6-1.1,4.8-2.5l16.5-19.1.9-1.1v-35.4l-.9-1.1-16.5-19.1c-1.2-1.4-2.9-2.3-4.8-2.5-1.9-.2-3.7.3-5.2,1.4h0c-.9.7-1.7,1.6-2.2,2.6C.3,52.9,0,54,0,55.1v66.2c0,1.1.3,2.3.8,3.3.5,1,1.3,1.9,2.2,2.6h0c1.5,1.1,3.4,1.6,5.2,1.4Z"/>
  </g>
  <g class="st1">
    <path d="M45.6,88.2l-15.3,17.7-.9,1.1-16.5,19.1c-1.2,1.4-2.9,2.3-4.8,2.5-1.9.2-3.7-.3-5.2-1.4,0,0,0,0,0,0l29.4,22.1c1.3,1,2.8,1.5,4.4,1.5.9,0,1.9-.2,2.7-.5.9-.4,1.7-.9,2.3-1.5l.5-.5,30-28.8-26.8-31.2h0Z"/>
    <path d="M131.4,3.9c-.6-1.1-1.4-2-2.5-2.6h0C127.7.4,126.3,0,124.9,0c-1.1,0-2.1.2-3.1.7-1,.4-1.8,1.1-2.5,1.9l-46.9,54.5h0s32.5,31.1,32.5,31.1h0s27.4-26.3,27.4-26.3h0V7.4c0-1.2-.3-2.4-.9-3.5Z"/>
  </g>
  <path class="st3" d="M129.1,175.2c1-.7,1.8-1.6,2.4-2.7.6-1.1.9-2.3.9-3.5v-54.5h0s-27.5-26.4-27.5-26.4h0l-32.5-31.1-30-28.8-.5-.5c-.7-.7-1.5-1.2-2.3-1.5-.9-.4-1.8-.5-2.7-.5-1.6,0-3.1.5-4.4,1.5L2.9,49.3s0,0,0,0c1.5-1.1,3.4-1.6,5.2-1.4,1.9.2,3.6,1.1,4.8,2.5l16.5,19.1.9,1.1,15.3,17.7h0s26.8,31.2,26.8,31.2l47,54.6c1.2,1.3,2.8,2.2,4.6,2.5,1.8.2,3.6-.2,5.1-1.1"/>
  <path class="st0" d="M175.6,33.3c-.6-1.1-1.4-2-2.4-2.7L129,1.2s0,0,0,0c1,.7,1.9,1.6,2.5,2.6.6,1.1.9,2.3.9,3.5v161.8c0,1.2-.3,2.4-.9,3.5-.6,1.1-1.4,2-2.4,2.7l26.5-17.6,17.6-11.8c1-.7,1.8-1.6,2.4-2.7.6-1.1.9-2.3.9-3.5V36.8c0-1.2-.3-2.4-.9-3.5Z"/>
</svg>