<?xml version="1.0" encoding="UTF-8"?>
<svg id="Layer_1" xmlns="http://www.w3.org/2000/svg" version="1.1" viewBox="0 0 391.7 392.2">
  <!-- Generator: Adobe Illustrator 29.3.1, SVG Export Plug-In . SVG Version: 2.1.0 Build 151)  -->
  <defs>
    <style>
      .st0 {
        opacity: .6;
      }
    </style>
  </defs>
  <path d="M379.9,43.3l-106.7,19.4-9.2,31.9c-1,3.6,2.1,7,5.8,6.3l39-7.5c4.1-.8,7.3,3.4,5.4,7.1l-111,221.4-2,3.1c-3,4.6-10.2,1.7-9.1-3.7l17.9-86.6c.8-3.7-2.7-6.9-6.3-5.8l-23.4,7.1c-3.6,1.1-7.1-2.1-6.4-5.8l11.3-55.2c.7-3.6-2.5-6.7-6-5.9l-37.9,8.7c-3.3.8-6.3-1.8-6.1-5.2l6.3-106.4L11.8,43.3c-8.3-1.5-14.6,7.4-10.4,14.8l187.6,329.1c3.9,6.8,13.6,6.7,17.4,0L390.4,58c4.1-7.4-2.2-16.2-10.5-14.7Z"/>
  <path class="st0" d="M308.8,93.4l-39,7.5c-3.7.7-6.8-2.7-5.8-6.3l9.2-31.9,16.3-56.4c1-3.6-2.1-7-5.8-6.3l-136.2,26.7c-2.2.4-3.9,2.3-4,4.6l-2.1,35.1-6.3,106.4c-.2,3.3,2.9,5.9,6.1,5.2l37.9-8.7c3.5-.8,6.8,2.3,6,5.9l-11.3,55.2c-.8,3.7,2.7,6.9,6.4,5.8l23.4-7.1c3.6-1.1,7.1,2.1,6.3,5.8l-17.9,86.6c-1.1,5.4,6.1,8.4,9.1,3.7l2-3.1,111-221.4c1.9-3.7-1.3-7.9-5.4-7.1Z"/>
</svg>