<?xml version="1.0" encoding="UTF-8"?>
<svg id="Layer_1" xmlns="http://www.w3.org/2000/svg" version="1.1" viewBox="0 0 265.7 242.4">
  <!-- Generator: Adobe Illustrator 29.3.1, SVG Export Plug-In . SVG Version: 2.1.0 Build 151)  -->
  <defs>
    <style>
      .st0 {
        fill-opacity: .5;
      }
    </style>
  </defs>
  <path d="M199.4,73.5l-63.5,91.8c-.7,1-1.6,1.7-2.8,2.1-1.1.4-2.3.4-3.5,0-1.1-.4-2.1-1.1-2.8-2.1-.7-1-1-2.1-.9-3.3l2.5-50.7-41-8.7c-.9-.2-1.7-.6-2.4-1.2-.7-.6-1.2-1.3-1.5-2.1s-.5-1.7-.4-2.6c.1-.9.4-1.7.9-2.5L147.6,2.4c.7-1,1.6-1.7,2.8-2.1,1.1-.4,2.3-.4,3.5,0,1.1.4,2.1,1.1,2.8,2.1.7,1,1,2.1.9,3.3l-2.5,50.7,41,8.7c.9.2,1.7.6,2.4,1.2.7.6,1.2,1.3,1.5,2.1.3.8.5,1.7.4,2.6-.1.9-.4,1.7-.9,2.5h0Z"/>
  <path class="st0" d="M261.9,100.5c-2.4-2.4-5.6-3.8-9-3.8-3.4,0-6.7,1.3-9.1,3.7l-59.6,59.6c-.2.1-.3.3-.5.4l-50.9,50.9-50.9-50.9c-.2-.2-.3-.3-.5-.4l-59.6-59.6c-2.4-2.4-5.7-3.7-9.1-3.7-3.4,0-6.6,1.4-9,3.8C1.4,102.9,0,106.1,0,109.5c0,3.4,1.3,6.7,3.7,9.1l120,120c1.2,1.2,2.6,2.1,4.2,2.8,1.6.6,3.2,1,4.9,1,0,0,0,0,0,0s0,0,0,0c1.7,0,3.4-.3,4.9-1,1.6-.6,3-1.6,4.2-2.8l120-120c2.4-2.4,3.7-5.7,3.7-9.1,0-3.4-1.4-6.6-3.8-9Z"/>
</svg>