<?xml version="1.0" encoding="UTF-8"?>
<svg id="Layer_1" xmlns="http://www.w3.org/2000/svg" version="1.1" viewBox="0 0 543.7 541.8">
  <!-- Generator: Adobe Illustrator 29.3.1, SVG Export Plug-In . SVG Version: 2.1.0 Build 151)  -->
  <path d="M180.4,421.7c30,8.7,65.5,4.9,91.6-12.5,23.5,16.8,54.8,20.2,82.7,14.3,41.9-8.8,69.5-47.2,72-89,2.7-44.6-1.1-93-1.3-137.8-6-39.1-35.6-72.8-75.7-77.8v213.5c0,.3-1.5,5.5-1.8,6.2-4.6,11.4-22.3,13-31.6,7.1-2.3-1.4-5.6-8-5.6-10.4v-83.5h-77v81.5c0,.8-2.2,6.1-2.8,7.2-6.4,11.2-27.9,11.3-34.4,0-.6-1.1-2.8-6.4-2.8-7.2V118.9c-43.3,7.5-74.2,42.5-77,86.5,6.3,69.6-26.9,189.8,63.8,216.3Z"/>
  <path d="M77.6,251.9c-1.3-47.4-1.1-95.2,32-132.5,26.2-29.5,61.8-40.8,100.5-42.5,38-1.6,85.2-1.9,123.1,0,83.5,4.1,130.2,55.3,133.5,137.5.5,12.5-.5,25.1,0,37.5h77c.5-42.6.4-86.1-15.2-126.3C499.9,52.7,425.9,6.7,349.1.9,226.9,4.1,99.7-25.6,29.4,100.3,2.6,148.3-1.9,197.4.6,251.9h77Z"/>
  <path d="M543.6,290.9h-77c0,31.9,1.5,64-10.2,94.3-20.6,53-68.4,77.2-123.2,79.8-38,1.8-85,1.7-123.1,0-59.1-2.6-108.6-30.3-125.7-89.3-8.1-28-6.9-55.9-6.7-84.8H.6c-.3,32.5-1.1,64.1,6.7,95.8,12.8,52.3,48.2,103.2,95.7,129.3,73.5,40.5,164.6,19.6,245.2,24.9,110.6-7.4,198.5-94.3,195.5-207.5v-42.5Z"/>
</svg>