<?xml version="1.0" encoding="UTF-8" standalone="no"?>
<!DOCTYPE svg PUBLIC "-//W3C//DTD SVG 1.1//EN" "http://www.w3.org/Graphics/SVG/1.1/DTD/svg11.dtd">
<svg width="100%" height="100%" viewBox="0 0 44 44" version="1.1" xmlns="http://www.w3.org/2000/svg" xmlns:xlink="http://www.w3.org/1999/xlink" xml:space="preserve" xmlns:serif="http://www.serif.com/" style="fill-rule:evenodd;clip-rule:evenodd;stroke-linejoin:round;stroke-miterlimit:2;">
    <g transform="matrix(1,0,0,1,0,-5)">
        <path d="M2.924,16.04C6.725,9.444 13.847,5 22,5C30.153,5 37.275,9.444 41.076,16.04C40.445,16.542 39.879,17.222 39.382,18.066C38.175,20.119 37.348,23.314 36.558,26.522C35.973,28.896 35.402,31.275 34.603,33.056C34.348,33.624 34.076,34.122 33.756,34.508C33.535,34.773 33.317,35 33,35C32.683,35 32.465,34.773 32.244,34.508C31.924,34.122 31.652,33.624 31.397,33.056C30.598,31.275 30.027,28.896 29.442,26.522C28.652,23.314 27.825,20.119 26.618,18.066C25.447,16.075 23.89,15 22,15C20.11,15 18.553,16.075 17.382,18.066C16.175,20.119 15.348,23.314 14.558,26.522C13.973,28.896 13.402,31.275 12.603,33.056C12.348,33.624 12.076,34.122 11.756,34.508C11.535,34.773 11.317,35 11,35C10.683,35 10.465,34.773 10.244,34.508C9.924,34.122 9.652,33.624 9.397,33.056C8.598,31.275 8.027,28.896 7.442,26.522C6.652,23.314 5.825,20.119 4.618,18.066C4.121,17.222 3.555,16.542 2.924,16.04ZM42.87,20.025C43.603,22.217 44,24.563 44,27C44,39.142 34.142,49 22,49C9.858,49 0,39.142 0,27C0,24.563 0.397,22.217 1.13,20.025C1.298,20.302 1.453,20.611 1.603,20.944C2.402,22.725 2.973,25.104 3.558,27.478C4.348,30.686 5.175,33.881 6.382,35.934C7.553,37.925 9.11,39 11,39C12.89,39 14.447,37.925 15.618,35.934C16.825,33.881 17.652,30.686 18.442,27.478C19.027,25.104 19.598,22.725 20.397,20.944C20.652,20.376 20.924,19.878 21.244,19.492C21.465,19.227 21.683,19 22,19C22.317,19 22.535,19.227 22.756,19.492C23.076,19.878 23.348,20.376 23.603,20.944C24.402,22.725 24.973,25.104 25.558,27.478C26.348,30.686 27.175,33.881 28.382,35.934C29.553,37.925 31.11,39 33,39C34.89,39 36.447,37.925 37.618,35.934C38.825,33.881 39.652,30.686 40.442,27.478C41.027,25.104 41.598,22.725 42.397,20.944C42.547,20.611 42.702,20.302 42.87,20.025Z"/>
    </g>
</svg>
