<?xml version="1.0" encoding="UTF-8" standalone="no"?>
<!DOCTYPE svg PUBLIC "-//W3C//DTD SVG 1.1//EN" "http://www.w3.org/Graphics/SVG/1.1/DTD/svg11.dtd">
<svg width="100%" height="100%" viewBox="0 0 650 666" version="1.1" xmlns="http://www.w3.org/2000/svg" xmlns:xlink="http://www.w3.org/1999/xlink" xml:space="preserve" xmlns:serif="http://www.serif.com/" style="fill-rule:evenodd;clip-rule:evenodd;stroke-linejoin:round;stroke-miterlimit:16;">
    <g transform="matrix(1.209146,0,0,1.209146,-81.651062,-74.445798)">
        <path d="M290.332,89.837C307.951,86.014 326.242,84 345,84C486.842,84 602,199.158 602,341C602,418.397 567.713,487.848 513.513,534.981L405.959,398.573L395.786,385.67L411.591,381.18L448.092,370.811L359.712,258.904L349.66,246.176L365.203,241.544L394.042,232.95L290.332,89.837Z" style="fill-opacity:0.8;"/>
        <path d="M513.027,535.403C467.96,574.398 409.215,598 345,598C203.158,598 88,482.842 88,341C88,292.748 101.326,247.585 124.496,208.992L188.785,253.383L205.576,264.977L186.661,272.631L166.56,280.765L286.076,366.334L300.595,376.729L284.781,385.02L256.458,399.87L513.027,535.403Z" style="fill-opacity:0.8;"/>
        <path d="M188.785,253.383C188.785,253.383 113.955,201.713 83.394,180.611C80.826,178.837 79.423,175.808 79.733,172.702C80.043,169.596 82.015,166.903 84.884,165.671C126.736,147.698 248.119,95.571 277.178,83.092C280.864,81.509 285.154,82.692 287.508,85.94C303.911,108.576 365.832,194.022 386.942,223.152C388.574,225.404 389.012,228.307 388.119,230.941C387.226,233.574 385.111,235.611 382.446,236.406C374.43,238.794 365.203,241.544 365.203,241.544L349.66,246.176L359.712,258.904C359.712,258.904 418.43,333.253 440.144,360.748C441.919,362.995 442.455,365.979 441.574,368.703C440.693,371.428 438.511,373.533 435.757,374.315C425.164,377.324 411.591,381.18 411.591,381.18L395.786,385.67L405.959,398.573L513.513,534.981L513.027,535.403C513.027,535.403 324.991,436.072 270.87,407.483C268.053,405.995 266.293,403.07 266.298,399.885C266.303,396.7 268.072,393.781 270.893,392.302C277.881,388.638 284.781,385.02 284.781,385.02L300.595,376.729L286.076,366.334C286.076,366.334 209.997,311.865 179.238,289.842C176.695,288.021 175.344,284.96 175.714,281.854C176.083,278.748 178.114,276.089 181.014,274.916C184.207,273.624 186.661,272.631 186.661,272.631L205.576,264.977L188.785,253.383Z" style="fill:none;stroke:black;stroke-width:22px;"/>
    </g>
</svg>
