<?xml version="1.0" encoding="UTF-8" standalone="no"?>
<!DOCTYPE svg PUBLIC "-//W3C//DTD SVG 1.1//EN" "http://www.w3.org/Graphics/SVG/1.1/DTD/svg11.dtd">
<svg width="100%" height="100%" viewBox="0 0 128 106" version="1.1" xmlns="http://www.w3.org/2000/svg" xmlns:xlink="http://www.w3.org/1999/xlink" xml:space="preserve" xmlns:serif="http://www.serif.com/" style="fill-rule:evenodd;clip-rule:evenodd;stroke-linejoin:round;stroke-miterlimit:2;">
    <g transform="matrix(1.001922,0,0,1.000337,-0.281615,0.462945)">
        <path d="M71.774,102.231C67.495,105.968 61.115,105.975 56.826,102.248L5.861,57.951C1.265,53.956 -0.368,47.527 1.763,41.822L14.934,6.576C16.411,2.621 20.189,0 24.41,-0L103.898,0C108.119,0 111.897,2.621 113.374,6.576L126.553,41.846C128.681,47.539 127.058,53.954 122.481,57.952L71.774,102.231ZM17.797,34.315L75.842,34.315C75.987,34.315 76.114,34.411 76.153,34.55C76.192,34.689 76.134,34.838 76.011,34.913L31.767,61.972C31.135,62.359 30.725,63.024 30.663,63.762C30.601,64.501 30.894,65.225 31.453,65.711L59.725,90.329C62.171,92.46 65.818,92.447 68.249,90.299L97.135,64.78C97.269,64.662 97.316,64.474 97.255,64.306C97.193,64.139 97.035,64.026 96.857,64.022L78.688,63.659C78.474,63.655 78.287,63.512 78.227,63.306C78.167,63.1 78.247,62.879 78.425,62.76L109.93,41.679C112.613,39.883 113.725,36.488 112.623,33.454L106.57,16.788C105.242,13.131 101.768,10.697 97.878,10.697L30.391,10.697C26.643,10.697 23.267,12.959 21.84,16.423L15.739,31.241C15.456,31.927 15.534,32.71 15.948,33.327C16.361,33.944 17.055,34.315 17.797,34.315Z"/>
    </g>
</svg>
