<?xml version="1.0" encoding="UTF-8" standalone="no"?>
<!DOCTYPE svg PUBLIC "-//W3C//DTD SVG 1.1//EN" "http://www.w3.org/Graphics/SVG/1.1/DTD/svg11.dtd">
<svg width="100%" height="100%" viewBox="0 0 64 16" version="1.1" xmlns="http://www.w3.org/2000/svg" xmlns:xlink="http://www.w3.org/1999/xlink" xml:space="preserve" xmlns:serif="http://www.serif.com/" style="fill-rule:evenodd;clip-rule:evenodd;stroke-linejoin:round;stroke-miterlimit:2;">
    <g transform="matrix(1.132745,0,0,0.980883,-0.833493,0.055972)">
        <g transform="matrix(1,0,0,1,0,-4.815842)">
            <path d="M16.04,14.269C10.564,15.401 3.478,16.072 2.039,11.496C1.184,8.78 3.449,6.148 9.315,8.226C9.971,8.458 11.97,9.198 15.554,10.407C15.563,9.897 15.594,9.47 15.619,9.17C15.601,9.432 15.579,9.871 15.588,10.418C16.554,10.744 17.634,11.103 18.832,11.496C19.081,11.577 19.897,11.897 21.058,12.341C22.502,11.922 23.913,11.51 25.243,11.157C25.968,10.964 31.736,9.303 38.332,8.708C47.678,7.864 49.993,10.832 50.593,11.462C48.426,9.373 44.252,7.537 29.648,11.052C29.45,11.1 28.131,11.357 22.23,12.787C24.767,13.744 28.279,15.016 31.309,15.857C33.245,15.23 34.992,14.725 36.167,14.714C38.79,14.689 39.537,16.325 37.979,16.884C36.829,17.297 35.729,17.16 32.139,16.285C28.874,17.406 24.062,19.065 21.178,18.71C18.99,18.442 17.526,17.282 16.657,15.726C16.397,15.26 16.195,14.768 16.04,14.269ZM15.569,11.436C12.326,10.203 8.264,8.595 8.263,8.595C1.331,6.245 0.924,11.634 3.967,13.751C6.58,15.569 11.117,14.96 15.899,13.766C15.697,12.962 15.604,12.159 15.569,11.436ZM19.434,12.81C19.048,12.698 18.827,12.633 18.824,12.632C18.121,12.395 16.953,11.962 15.643,11.464C15.705,12.167 15.827,12.95 16.052,13.728C17.174,13.445 18.308,13.131 19.434,12.81ZM30.919,15.984C30.705,15.931 30.483,15.875 30.254,15.818C27.599,15.153 23.166,13.889 20.673,13.169C19.516,13.462 17.95,13.868 16.213,14.233C16.932,16.279 18.44,18.162 21.542,18.293C23.942,18.394 27.657,17.053 30.919,15.984ZM32.483,16.167C32.981,16.291 33.459,16.398 33.909,16.486C34.008,16.506 36.974,17.204 38.188,16.376C39.043,15.793 37.513,14.826 34.986,15.383C34.439,15.503 33.559,15.799 32.483,16.167ZM15.642,8.903C15.642,8.903 15.642,8.903 15.642,8.903C15.642,8.903 15.642,8.903 15.642,8.903ZM15.619,9.17C15.631,9.006 15.641,8.911 15.642,8.903C15.636,8.975 15.628,9.065 15.619,9.17Z"/>
        </g>
        <g transform="matrix(1,0,0,1,0.475961,0.027715)">
            <circle cx="49.847" cy="6.785" r="0.316"/>
        </g>
        <path d="M49.764,5.924C49.764,5.924 50.202,6.471 50.086,6.604C49.932,6.781 50.061,6.909 50.323,6.909C50.584,6.909 51.056,6.846 49.811,5.911"/>
    </g>
    <g transform="matrix(-1.132745,0,0,0.980883,64.833493,0.055972)">
        <g transform="matrix(1,0,0,1,0,-4.815842)">
            <path d="M22.225,12.794C24.342,12.272 26.608,11.717 29.036,11.189C32.994,10.329 44.825,7.145 49.822,10.786C50.234,11.086 50.216,11.106 50.593,11.462C48.387,9.089 44.232,7.516 33.198,9.386C28.545,10.175 24.583,11.3 21.046,12.329C20.203,11.995 19.311,11.655 17.824,11.165C17.018,10.9 16.277,10.652 15.594,10.42C15.58,9.579 15.637,8.992 15.642,8.903C15.631,9.035 15.561,9.603 15.549,10.405C8.766,8.108 7.651,7.436 5.346,7.477C0.523,7.562 0.917,13.187 5.296,14.57C8.273,15.51 11.796,15.146 16.042,14.252C16.57,15.959 17.628,17.599 19.688,18.357C22.375,19.345 25.851,18.433 32.139,16.29C33.808,16.698 35.184,16.994 35.92,17.07C38.454,17.331 39.549,16.045 38.269,15.2C36.49,14.024 33.045,15.331 32.087,15.631C31.833,15.71 31.584,15.789 31.34,15.866C29.111,15.244 26.587,14.372 23.953,13.437C23.262,13.192 22.714,12.985 22.225,12.794ZM15.646,11.465C16.51,11.787 17.478,12.144 18.564,12.538C18.652,12.57 18.953,12.663 19.417,12.802C18.254,13.139 17.135,13.456 16.05,13.737C15.827,12.957 15.707,12.171 15.646,11.465ZM15.907,13.774C13.533,14.384 11.321,14.814 9.161,14.882C8.496,14.903 3.471,15.222 2.308,11.52C1.486,8.906 3.742,6.722 9.123,8.913C9.955,9.251 11.696,9.991 15.567,11.436C15.605,12.155 15.702,12.964 15.907,13.774ZM30.943,15.993C24.767,17.961 21.68,19.156 18.794,17.549C17.451,16.801 16.661,15.545 16.202,14.218C17.613,13.918 19.104,13.56 20.681,13.174C23.199,13.907 27.472,15.113 30.943,15.993ZM32.489,16.171C32.592,16.136 32.695,16.1 32.8,16.064C32.948,16.014 36.553,14.521 38.15,15.618C39.058,16.241 37.638,16.94 35.7,16.761C34.754,16.674 33.673,16.466 32.489,16.171Z"/>
        </g>
        <g transform="matrix(1,0,0,1,0.475961,0.027715)">
            <circle cx="49.847" cy="6.785" r="0.316"/>
        </g>
        <path d="M49.764,5.924C49.764,5.924 50.202,6.471 50.086,6.604C49.932,6.781 50.061,6.909 50.323,6.909C50.584,6.909 51.056,6.846 49.811,5.911"/>
    </g>
</svg>
