<?xml version="1.0" encoding="UTF-8" standalone="no"?><!DOCTYPE svg PUBLIC "-//W3C//DTD SVG 1.1//EN" "http://www.w3.org/Graphics/SVG/1.1/DTD/svg11.dtd"><svg width="100%" height="100%" viewBox="0 0 500 100" version="1.1" xmlns="http://www.w3.org/2000/svg" xmlns:xlink="http://www.w3.org/1999/xlink" xml:space="preserve" xmlns:serif="http://www.serif.com/" style="fill-rule:evenodd;clip-rule:evenodd;stroke-linejoin:round;stroke-miterlimit:2;"><g><path d="M236.355,28.403c0.021,-3.054 2.513,-5.524 5.556,-5.524l0.18,0l0,56.755c0,4.548 -3.7,8.259 -8.259,8.259l-13.465,0c-3.064,0 -5.566,-2.492 -5.566,-5.566l0,-0.18l19.042,0c1.389,0 2.513,-1.124 2.513,-2.513l0,-51.231Zm-5.036,40.459c0,4.548 -3.7,8.259 -8.259,8.249l-8.259,0l0,-54.232l8.259,0c4.548,0 8.259,3.7 8.259,8.259l0,37.724Zm-5.747,0l0,-37.724c0,-1.389 -1.124,-2.513 -2.513,-2.513l-2.513,0l0,42.749l2.513,0c0.679,0 1.304,-0.254 1.781,-0.732c0.467,-0.477 0.732,-1.113 0.732,-1.781Zm51.369,-45.983c4.548,0 8.259,3.711 8.259,8.259l0,37.713c0,4.548 -3.7,8.259 -8.259,8.259c-4.548,0 -8.259,-3.7 -8.259,-8.259l0,-37.713c0,-4.548 3.7,-8.259 8.259,-8.259Zm0,48.496c1.389,0 2.513,-1.134 2.513,-2.523l0,-37.713c0,-1.389 -1.124,-2.513 -2.513,-2.513c-1.389,0 -2.513,1.124 -2.513,2.513l0,37.724c0,1.389 1.124,2.513 2.513,2.513Zm8.259,-59.088c0,3.064 -2.502,5.566 -5.566,5.566l-64.834,0l0,-0.18c0,-3.064 2.502,-5.566 5.566,-5.566l64.834,0l0,0.18Zm-5.566,69.86c3.064,0 5.566,2.502 5.566,5.566l0,0.18l-19.042,0c-2.205,0 -4.283,-0.859 -5.842,-2.417c-1.559,-1.559 -2.417,-3.637 -2.417,-5.842l0,-21.555c0,-1.389 -1.124,-2.513 -2.513,-2.513l-2.513,0l0,26.761c0,3.064 -2.492,5.566 -5.566,5.566l-0.18,0l0,-64.993l0.18,-0.021l7.909,0.021l0.18,-0.021c4.548,0 8.259,3.7 8.259,8.259l0,16.169c0,1.983 -0.71,3.891 -2.004,5.386c1.294,1.495 2.004,3.403 2.004,5.386l0,21.555c0,1.389 1.124,2.513 2.513,2.513l13.465,0Zm-21.735,-51.009c0,-1.336 -1.028,-2.407 -2.343,-2.481l-2.682,0l0,21.163l2.513,0c1.389,0 2.513,-1.124 2.513,-2.513l0,-16.169Zm-258.629,15.101c0.525,-0.013 0.869,-0.718 1.393,-0.731c0.703,-0.017 160.299,-2.33 165.262,-2.394c0.268,-0.003 3.06,-0.04 3.361,0.09c0.712,0.308 1.586,0.377 2.134,0.925c0.012,0.013 0.894,2.112 0.892,2.12c-0.295,0.701 -0.354,1.562 -0.892,2.1c-0.548,0.548 -1.371,0.784 -2.134,0.925c-1.102,0.203 -2.241,0.105 -3.361,0.09c-4.948,-0.064 -164.559,-2.377 -165.262,-2.394c-0.525,-0.013 -0.869,-0.718 -1.393,-0.731Zm59.498,-14.942c0.457,-0.017 0.704,-0.714 1.161,-0.731c0.463,-0.017 103.956,-2.33 107.174,-2.394c0.175,-0.003 1.892,-0.038 2.183,0.091c0.711,0.313 1.583,0.393 2.133,0.943c0.012,0.012 0.895,2.093 0.892,2.101c-0.295,0.695 -0.358,1.548 -0.892,2.081c-0.55,0.55 -1.377,0.762 -2.133,0.943c-0.708,0.17 -1.455,0.106 -2.183,0.091c-3.204,-0.064 -106.711,-2.377 -107.174,-2.394c-0.457,-0.017 -0.704,-0.714 -1.161,-0.731Zm76.225,29.883c0.374,-0.044 0.488,-0.687 0.862,-0.731c0.154,-0.018 31.773,-2.33 32.756,-2.394l0.674,0.091c0.712,0.353 1.572,0.499 2.134,1.06c0.014,0.014 0.895,1.976 0.892,1.984c-0.295,0.656 -0.383,1.455 -0.892,1.964c-0.562,0.561 -1.399,0.758 -2.134,1.06c-0.21,0.086 -0.448,0.106 -0.674,0.091c-0.969,-0.063 -32.602,-2.376 -32.756,-2.394c-0.374,-0.044 -0.488,-0.687 -0.862,-0.731Zm365.738,-14.942c-0.525,0.013 -0.869,0.718 -1.393,0.731c-0.703,0.017 -160.299,2.33 -165.262,2.394c-0.268,0.003 -3.06,0.04 -3.361,-0.09c-0.712,-0.308 -1.586,-0.377 -2.134,-0.925c-0.012,-0.013 -0.894,-2.112 -0.892,-2.12c0.295,-0.701 0.354,-1.562 0.892,-2.1c0.548,-0.548 1.371,-0.784 2.134,-0.925c1.102,-0.203 2.241,-0.105 3.361,-0.09c4.948,0.064 164.559,2.377 165.262,2.394c0.525,0.013 0.869,0.718 1.393,0.731Zm-59.498,-14.942c-0.457,0.017 -0.704,0.714 -1.161,0.731c-0.463,0.017 -103.956,2.33 -107.174,2.394c-0.175,0.003 -1.892,0.038 -2.183,-0.091c-0.711,-0.313 -1.583,-0.393 -2.133,-0.943c-0.012,-0.012 -0.895,-2.093 -0.892,-2.101c0.295,-0.695 0.358,-1.548 0.892,-2.081c0.55,-0.55 1.377,-0.762 2.133,-0.943c0.708,-0.17 1.455,-0.106 2.183,-0.091c3.204,0.064 106.711,2.377 107.174,2.394c0.457,0.017 0.704,0.714 1.161,0.731Zm-76.225,29.883c-0.374,0.044 -0.488,0.687 -0.862,0.731c-0.154,0.018 -31.773,2.33 -32.756,2.394c-0.054,0.004 -0.432,0.028 -0.674,-0.091c-0.712,-0.353 -1.572,-0.499 -2.134,-1.06c-0.014,-0.014 -0.895,-1.976 -0.892,-1.984c0.295,-0.656 0.383,-1.455 0.892,-1.964c0.562,-0.561 1.399,-0.758 2.134,-1.06c0.21,-0.086 0.448,-0.106 0.674,-0.091c0.969,0.063 32.602,2.376 32.756,2.394c0.374,0.044 0.488,0.687 0.862,0.731Z" style="fill:#005993;"/></g></svg>