<?xml version="1.0" encoding="UTF-8" standalone="no"?>
<!DOCTYPE svg PUBLIC "-//W3C//DTD SVG 1.1//EN" "http://www.w3.org/Graphics/SVG/1.1/DTD/svg11.dtd">
<svg width="100%" height="100%" viewBox="0 0 500 100" version="1.1" xmlns="http://www.w3.org/2000/svg" xmlns:xlink="http://www.w3.org/1999/xlink" xml:space="preserve" xmlns:serif="http://www.serif.com/" style="fill-rule:evenodd;clip-rule:evenodd;stroke-linejoin:round;stroke-miterlimit:2;">
    <g transform="matrix(0.025446,0,0,0.025446,250,50)">
        <g transform="matrix(1,0,0,1,-1383.333333,-1489.166667)">
            <clipPath id="_clip1">
                <rect x="0" y="0" width="2766.667" height="2978.333"/>
            </clipPath>
            <g clip-path="url(#_clip1)">
                <g transform="matrix(4.166667,0,0,4.166667,0,0)">
                    <path d="M203.3,153.7L203.3,636.9C203.3,650 192.7,660.6 179.6,660.6L0,660.6L0,662.3C0,691.3 23.6,714.8 52.5,714.8L179.5,714.8C222.5,714.8 257.4,679.8 257.4,636.9L257.4,101.6L255.7,101.6C227,101.6 203.5,124.9 203.3,153.7Z" style="fill-rule:nonzero;"/>
                    <path d="M155.8,535.3L155.8,179.5C155.8,136.5 120.8,101.6 77.9,101.6L0,101.6L0,613.1L77.9,613.1C120.9,613.2 155.8,578.2 155.8,535.3ZM101.6,535.3C101.6,541.6 99.1,547.6 94.7,552.1C90.2,556.6 84.3,559 77.9,559L54.2,559L54.2,155.8L77.9,155.8C91,155.8 101.6,166.4 101.6,179.5L101.6,535.3Z" style="fill-rule:nonzero;"/>
                    <path d="M586.1,101.6C543.1,101.6 508.2,136.6 508.2,179.5L508.2,535.2C508.2,578.2 543.2,613.1 586.1,613.1C629.1,613.1 664,578.1 664,535.2L664,179.5C664,136.6 629,101.6 586.1,101.6ZM586.1,559C573,559 562.4,548.4 562.4,535.3L562.4,179.5C562.4,166.4 573,155.8 586.1,155.8C599.2,155.8 609.8,166.4 609.8,179.5L609.8,535.2C609.8,548.3 599.2,559 586.1,559Z" style="fill-rule:nonzero;"/>
                    <path d="M664,1.7L664,0L52.5,0C23.6,0 0,23.6 0,52.5L0,54.2L611.5,54.2C640.4,54.2 664,30.6 664,1.7Z" style="fill-rule:nonzero;"/>
                    <path d="M611.5,660.6L484.5,660.6C471.4,660.6 460.8,650 460.8,636.9L460.8,433.6C460.8,414.9 454.1,396.9 441.9,382.8C454.1,368.7 460.8,350.7 460.8,332L460.8,179.5C460.8,136.5 425.8,101.6 382.9,101.6L381.2,101.8L306.6,101.6L304.9,101.8L304.9,714.8L306.6,714.8C335.6,714.8 359.1,691.2 359.1,662.3L359.1,409.9L382.8,409.9C395.9,409.9 406.5,420.5 406.5,433.6L406.5,636.9C406.5,657.7 414.6,677.3 429.3,692C444,706.7 463.6,714.8 484.4,714.8L664,714.8L664,713.1C664,684.2 640.4,660.6 611.5,660.6ZM406.5,179.5L406.5,332C406.5,345.1 395.9,355.7 382.8,355.7L359.1,355.7L359.1,156.1L384.4,156.1C396.8,156.8 406.5,166.9 406.5,179.5Z" style="fill-rule:nonzero;"/>
                </g>
            </g>
        </g>
    </g>
    <g transform="matrix(1,0,0,1,-10.671293,-3)">
        <g transform="matrix(1.282968,0,0,1,-50.125296,-0.760623)">
            <path d="M179.328,50L47.387,50" style="fill:none;"/>
            <path d="M46.818,50C47.227,49.987 47.495,49.282 47.904,49.269C48.452,49.252 172.848,46.939 176.716,46.875C176.925,46.872 179.101,46.835 179.336,46.965C179.891,47.273 180.572,47.342 180.999,47.89C181.008,47.903 181.696,50.002 181.694,50.01C181.464,50.711 181.418,51.572 180.999,52.11C180.572,52.658 179.93,52.894 179.336,53.035C178.477,53.238 177.589,53.14 176.716,53.125C172.859,53.061 48.452,50.748 47.904,50.731C47.495,50.718 47.227,50.013 46.818,50Z"/>
        </g>
        <g transform="matrix(0.832018,0,0,1,30.74268,-15.702348)">
            <path d="M179.328,50L47.387,50" style="fill:none;"/>
            <path d="M46.509,50C47.058,49.983 47.355,49.286 47.904,49.269C48.46,49.252 172.848,46.939 176.716,46.875C176.926,46.872 178.99,46.837 179.34,46.966C180.195,47.279 181.243,47.359 181.904,47.909C181.919,47.921 182.98,50.002 182.976,50.01C182.621,50.705 182.546,51.558 181.904,52.091C181.243,52.641 180.249,52.853 179.34,53.034C178.489,53.204 177.591,53.14 176.716,53.125C172.865,53.061 48.46,50.748 47.904,50.731C47.355,50.714 47.058,50.017 46.509,50Z"/>
        </g>
        <g transform="matrix(0.254295,0,0,1,134.344661,14.181103)">
            <path d="M179.328,50L47.387,50" style="fill:none;"/>
            <path d="M44.513,50C45.985,49.956 46.433,49.313 47.904,49.269C48.511,49.251 172.85,46.939 176.716,46.875L179.367,46.966C182.166,47.319 185.548,47.465 187.757,48.026C187.811,48.04 191.277,50.002 191.263,50.01C190.104,50.666 189.756,51.465 187.757,51.974C185.548,52.535 182.256,52.732 179.367,53.034C178.542,53.12 177.606,53.14 176.716,53.125C172.905,53.062 48.512,50.749 47.904,50.731C46.433,50.687 45.985,50.044 44.513,50Z"/>
        </g>
    </g>
    <g transform="matrix(-1,0,0,1,510.671293,-3)">
        <g transform="matrix(1.282968,0,0,1,-50.125296,-0.760623)">
            <path d="M179.328,50L47.387,50" style="fill:none;"/>
            <path d="M46.818,50C47.227,50.013 47.495,50.718 47.904,50.731C48.452,50.748 172.848,53.061 176.716,53.125C176.925,53.128 179.101,53.165 179.336,53.035C179.891,52.727 180.572,52.658 180.999,52.11C181.008,52.097 181.696,49.998 181.694,49.99C181.464,49.289 181.418,48.428 180.999,47.89C180.572,47.342 179.93,47.106 179.336,46.965C178.477,46.762 177.589,46.86 176.716,46.875C172.859,46.939 48.452,49.252 47.904,49.269C47.495,49.282 47.227,49.987 46.818,50Z"/>
        </g>
        <g transform="matrix(0.832018,0,0,1,30.74268,-15.702348)">
            <path d="M179.328,50L47.387,50" style="fill:none;"/>
            <path d="M46.509,50C47.058,50.017 47.355,50.714 47.904,50.731C48.46,50.748 172.848,53.061 176.716,53.125C176.926,53.128 178.99,53.163 179.34,53.034C180.195,52.721 181.243,52.641 181.904,52.091C181.919,52.079 182.98,49.998 182.976,49.99C182.621,49.295 182.546,48.442 181.904,47.909C181.243,47.359 180.249,47.147 179.34,46.966C178.489,46.796 177.591,46.86 176.716,46.875C172.865,46.939 48.46,49.252 47.904,49.269C47.355,49.286 47.058,49.983 46.509,50Z"/>
        </g>
        <g transform="matrix(0.254295,0,0,1,134.344661,14.181103)">
            <path d="M179.328,50L47.387,50" style="fill:none;"/>
            <path d="M44.513,50C45.985,50.044 46.433,50.687 47.904,50.731C48.511,50.749 172.85,53.061 176.716,53.125C176.929,53.129 178.416,53.153 179.367,53.034C182.166,52.681 185.548,52.535 187.757,51.974C187.811,51.96 191.277,49.998 191.263,49.99C190.104,49.334 189.756,48.535 187.757,48.026C185.548,47.465 182.256,47.268 179.367,46.966C178.542,46.88 177.606,46.86 176.716,46.875C172.905,46.938 48.512,49.251 47.904,49.269C46.433,49.313 45.985,49.956 44.513,50Z"/>
        </g>
    </g>
</svg>
