<?xml version="1.0" encoding="UTF-8"?>
<svg id="Layer_1" xmlns="http://www.w3.org/2000/svg" version="1.1" viewBox="0 0 22.7 22.7">
  <!-- Generator: Adobe Illustrator 29.3.1, SVG Export Plug-In . SVG Version: 2.1.0 Build 151)  -->
  <path d="M12.9,9.9c-1,0-1.5.9-1.5,2s.6,1.9,1.5,1.9,1.2-.4,1.3-1.1c0-.1,0-.3,0-.4v-.9c0-.1,0-.3,0-.4-.1-.6-.6-1.1-1.3-1.1Z"/>
  <path d="M19.1,0H3.6C1.6,0,0,1.6,0,3.6v15.5c0,2,1.6,3.6,3.6,3.6h15.5c2,0,3.6-1.6,3.6-3.6V3.6c0-2-1.6-3.6-3.6-3.6ZM8.5,15h-1.5V6.5h1.5v8.4ZM14.5,15v-1h0c-.4.7-1.1,1.1-2,1.1-1.5,0-2.6-1.2-2.6-3.1,0-2,1.3-3.3,2.7-3.3s1.4.3,1.7.8h0v-3.4h1.5v7.2c0,.6,0,1.3,0,1.7h-1.4Z"/>
</svg>