<?xml version="1.0" encoding="UTF-8"?>
<svg id="Layer_1" xmlns="http://www.w3.org/2000/svg" version="1.1" viewBox="0 0 22.7 22.7">
  <!-- Generator: Adobe Illustrator 29.3.1, SVG Export Plug-In . SVG Version: 2.1.0 Build 151)  -->
  <path d="M19.1,0H3.6C1.6,0,0,1.6,0,3.6v15.5c0,2,1.6,3.6,3.6,3.6h15.5c2,0,3.6-1.6,3.6-3.6V3.6c0-2-1.6-3.6-3.6-3.6ZM11,11.1c-.6.6-1.6.9-2.7.9s-.5,0-.8,0v3.2h-1.5V6.8c.6,0,1.3-.2,2.4-.2s1.9.2,2.5.7c.5.4.8,1.1.8,1.9s-.2,1.5-.7,1.9ZM16.3,10.3c-.1,0-.3,0-.5,0-.7,0-1.2.5-1.4,1.2,0,.1,0,.3,0,.5v3.2h-1.5v-4.1c0-.8,0-1.4,0-2h1.3v1.2h.1c.3-.9,1-1.3,1.7-1.3s.2,0,.4,0v1.5Z"/>
  <path d="M8.5,7.8c-.4,0-.7,0-.9,0v2.8c.2,0,.4,0,.8,0,1.2,0,1.9-.6,1.9-1.6s-.7-1.4-1.7-1.4Z"/>
</svg>