<?xml version="1.0" encoding="UTF-8"?>
<svg id="Layer_1" xmlns="http://www.w3.org/2000/svg" version="1.1" viewBox="0 0 22.7 22.7">
  <!-- Generator: Adobe Illustrator 29.3.1, SVG Export Plug-In . SVG Version: 2.1.0 Build 151)  -->
  <path d="M14.7,10c-1,0-1.5.9-1.5,2s.6,1.9,1.5,1.9,1.2-.4,1.3-1.1c0-.1,0-.3,0-.4v-.9c0-.1,0-.3,0-.4-.1-.6-.6-1.1-1.3-1.1Z"/>
  <path d="M19.1,0H3.6C1.6,0,0,1.6,0,3.6v15.5c0,2,1.6,3.6,3.6,3.6h15.5c2,0,3.6-1.6,3.6-3.6V3.6c0-2-1.6-3.6-3.6-3.6ZM9.3,15l-.9-1.7c-.4-.6-.6-1.1-.8-1.6h0c-.2.5-.4.9-.8,1.6l-.8,1.7h-1.8l2.5-4.3-2.4-4.2h1.8l.9,1.7c.3.5.5.9.7,1.4h0c.2-.5.4-.9.7-1.4l.9-1.7h1.8l-2.5,4.1,2.6,4.3h-1.8ZM16.2,15v-1h0c-.4.7-1.1,1.1-2,1.1-1.5,0-2.6-1.2-2.6-3.1,0-2,1.3-3.3,2.7-3.3s1.4.3,1.7.8h0v-3.4h1.5v7.2c0,.6,0,1.3,0,1.7h-1.4Z"/>
</svg>