<?xml version="1.0" encoding="UTF-8"?>
<svg id="Layer_1" xmlns="http://www.w3.org/2000/svg" version="1.1" viewBox="0 0 22.7 22.7">
  <!-- Generator: Adobe Illustrator 29.3.1, SVG Export Plug-In . SVG Version: 2.1.0 Build 151)  -->
  <path d="M15.1,9.6c-.9,0-1.3.9-1.4,1.5h2.7c0-.6-.2-1.5-1.3-1.5Z"/>
  <path d="M19.1,0H3.6C1.6,0,0,1.6,0,3.6v15.5c0,2,1.6,3.6,3.6,3.6h15.5c2,0,3.6-1.6,3.6-3.6V3.6c0-2-1.6-3.6-3.6-3.6ZM10,14.8l-.8-2.4h-2.7l-.7,2.4h-1.6l2.7-8.4h2l2.7,8.4h-1.7ZM17.8,12.2h-4.1c0,1.1.9,1.6,1.9,1.6s1.2-.1,1.7-.3l.2,1.1c-.5.2-1.2.4-2.1.4-2,0-3.1-1.2-3.1-3.1s1-3.3,3-3.3,2.6,1.6,2.6,3,0,.5,0,.6Z"/>
  <path d="M7.9,7.6h0c-.1.5-.3,1.1-.4,1.6l-.7,2.1h2.2l-.7-2.1c-.2-.5-.3-1.1-.4-1.6Z"/>
</svg>