<?xml version="1.0" encoding="UTF-8"?>
<svg xmlns="http://www.w3.org/2000/svg" version="1.1" xmlns:cc="http://creativecommons.org/ns#" xmlns:dc="http://purl.org/dc/elements/1.1/" xmlns:inkscape="http://www.inkscape.org/namespaces/inkscape" xmlns:rdf="http://www.w3.org/1999/02/22-rdf-syntax-ns#" xmlns:sodipodi="http://sodipodi.sourceforge.net/DTD/sodipodi-0.dtd" xmlns:svg="http://www.w3.org/2000/svg" xmlns:xlink="http://www.w3.org/1999/xlink" viewBox="0 0 260.5 88.3">
  <!-- Generator: Adobe Illustrator 29.3.1, SVG Export Plug-In . SVG Version: 2.1.0 Build 151)  -->
  <g id="svg2" sodipodi:docname="logo.svg">
    <sodipodi:namedview id="base" bordercolor="#666666" borderopacity="1.0" fit-margin-bottom="0" fit-margin-left="0" fit-margin-right="0" fit-margin-top="0" inkscape:current-layer="layer1" inkscape:cx="-887.52247" inkscape:cy="148.89888" inkscape:document-units="px" inkscape:guide-bbox="true" inkscape:pageopacity="0.0" inkscape:pageshadow="2" inkscape:window-height="713" inkscape:window-maximized="1" inkscape:window-width="1366" inkscape:window-x="0" inkscape:window-y="27" inkscape:zoom="0.49497475" pagecolor="#ffffff" showgrid="false" showguides="true"/>
    <g>
      <path d="M42.9,2.7s-2.4-3.9-5.3-2.2c-1.4.8-3.7,3.1-6.4,6.5l2.5,4.8c1.7-2.4,3.4-4.6,5.1-6.4-.8.9-2.4,2.9-4.8,6.5,2.6-.1,6.6-.7,9.8-1.2,1-5.4-.9-7.9-.9-7.9ZM39.1,4.9c.1-.1.2-.2.2-.2,0,0-.1.1-.2.2Z"/>
      <path d="M9.1,63.8c.4-1.2.9-2.5,1.4-3.8.1-.3.2-.6.3-.9h0s0,0,0,0c.4-1.2.9-2.3,1.3-3.5.1-.3.3-.7.4-1,.6-1.5,1.2-3,1.8-4.5.6-1.5,1.2-2.9,1.8-4.4.6-1.5,1.2-2.9,1.9-4.4.6-1.5,1.3-3,2-4.5.7-1.5,1.4-2.9,2-4.4.2-.5.5-1,.8-1.6.4-.9.9-1.8,1.3-2.7,0,0,0,0,0-.1l-2.2-4.3,2.2,4.3c.7-1.4,1.4-2.7,2.1-4.1.8-1.4,1.5-2.8,2.3-4.2.8-1.4,1.6-2.8,2.5-4.1,0,0,0-.2.1-.2.8-1.3,1.6-2.6,2.5-3.8l-2.5-4.7c-.2.2-.4.5-.6.7-.7.9-1.5,1.9-2.3,2.9-.9,1.2-1.8,2.4-2.7,3.7-.8,1.2-1.7,2.5-2.6,3.8-.7,1.1-1.5,2.3-2.2,3.4,0,0,0,0,0,.1h0c0,.1,0,.2-.2.3-.8,1.3-1.5,2.5-2.3,3.8-.8,1.3-1.5,2.7-2.2,4-.6,1.2-1.2,2.3-1.8,3.5-.1.2-.2.5-.3.7-.7,1.5-1.4,2.9-1.9,4.3-.7,1.5-1.2,3-1.7,4.4-.3.9-.6,1.8-.9,2.7-.2.7-.4,1.5-.7,2.2-.5,1.7-.9,3.4-1.3,5.1h0c0,0,0,.2,0,.2-.4,2.1-.7,4.2-.9,6.2,0,0,0,.1,0,.2-1-1.6-3.8-3.3-3.8-3.2,2,2.9,3.5,5.7,3.7,8.5-1.1.2-2.5,0-4.2-.7,1.7,1.6,3,2,3.6,2.2-1.6,0-3.3,1.2-4.9,2.5,2.5-1,4.5-1.4,5.9-1.1-2.3,6.4-4.5,13.4-6.8,20.9.7-.2,1.1-.7,1.3-1.3.4-1.4,3.1-10.3,7.3-21.9.1-.3.2-.7.4-1,0,0,0-.2,0-.3Z"/>
      <path d="M43.4,12.2c.1-.6.3-1.1.4-1.6-3.2.5-7.2,1.1-9.8,1.2-.7,1.1-1.5,2.4-2.4,3.9,0,0,0,.1-.1.2-.8,1.3-1.5,2.7-2.4,4.2-.7,1.3-1.5,2.7-2.3,4.3-.7,1.3-1.4,2.7-2.1,4.2h0s0,0,0,0h-.3s-.2-.4-.2-.4c0,0,0,0,0,.1-.4.9-.9,1.8-1.3,2.7-.2.5-.5,1-.8,1.6-.7,1.5-1.4,2.9-2,4.4-.7,1.5-1.3,3-2,4.5-.6,1.5-1.3,2.9-1.9,4.4s-1.2,2.9-1.8,4.4c-.6,1.5-1.2,3-1.8,4.5-.1.3-.3.7-.4,1-.5,1.2-.9,2.4-1.3,3.5l.4.8h.3c0,.2-.2.4-.2.6-.4,1.2-.9,2.4-1.3,3.7,0,0,0,0,0,0,0,.2-.1.3-.2.5-.3.8-.5,1.6-1.1,3.3,1,.4,1.7,1.6,2.5,2.9,0-1.4-.6-2.7-1.7-3.6,4.8.2,8.9-1,11-4.5.2-.3.4-.6.5-1-1,1.2-2.2,1.7-4.4,1.6,3.3-1.5,5-2.9,6.4-5.3.3-.6.7-1.2,1-1.8-2.9,3-6.3,3.8-9.8,3.2,0,0,0,0-.2,0,3.2-.4,7.4-2.8,10.1-5.7,1.3-1.4,2.4-2.9,3.4-4.8.8-1.4,1.5-2.9,2.2-4.6.6-1.5,1.2-3.1,1.8-4.8-.7.4-1.6.7-2.5.9-.2,0-.3,0-.5,0-.2,0-.3,0-.5,0,3-1.1,4.8-3.3,6.2-6-.8.5-2,1.2-3.6,1.6-.2,0-.4,0-.6.1,0,0,0,0-.2,0,1-.4,1.9-.9,2.7-1.5.2-.1.3-.2.5-.4.2-.2.4-.4.7-.6.1-.1.3-.3.4-.4.3-.3.6-.7.8-1.1,0-.1.2-.2.2-.4,0-.2.2-.4.3-.6.4-.8.7-1.6,1-2.2.1-.3.2-.6.3-.9,0-.1,0-.2.1-.3,0-.3.2-.6.3-.8,0-.4.2-.7.2-.9,0,0-.2.2-.3.2-.6.3-1.4.6-2.2.9h-.4c0,.1-.2.1-.3.2v-.2h-.3c1.8-1,2.8-1.9,3.7-3.2.3-.4.6-.8.8-1.3.9-1.3,1.7-2.8,2.4-4.3.7-1.4,1.4-2.8,1.8-4.1.3-.8.6-1.5.7-2.2ZM33.4,27.5h0c0,0,0,0-.1,0,0,0,0,0,0,0,0,0-.1,0-.2,0,0,0,.2,0,.3-.1h.1Z"/>
      <path d="M53.4,70.7c0,1.3-.2,2.4-.5,3.3-.3.9-.8,1.6-1.5,2.1-.6.5-1.4.9-2.2,1.1-.8.2-1.7.3-2.7.3-1,0-2,0-2.8-.2-.9-.1-1.7-.3-2.5-.5v8.3c.7.2,1.6.4,2.7.5,1.1.2,2.3.2,3.7.2h0c2.4,0,4.5-.3,6.5-.9,2-.6,3.6-1.5,5-2.8,1.4-1.3,2.5-2.9,3.3-4.8.8-2,1.2-4.3,1.2-7V25.1h-10v45.6Z"/>
      <path d="M207.2,39.8c-1.3-1.4-3-2.4-4.9-3.1-1.9-.7-4-1.1-6.4-1.1h0c-2.4,0-4.7.4-6.7,1.2-2,.8-3.7,2-5.1,3.6-1.4,1.6-2.5,3.5-3.3,5.9s-1.2,5.1-1.2,8.3.4,5.8,1.3,8.1c.9,2.3,2.1,4.2,3.7,5.7,1.6,1.5,3.4,2.6,5.6,3.4,2.2.8,4.5,1.1,7.1,1.1s2.5,0,3.7-.2c1.1,0,2.2-.2,3.1-.4,1-.2,1.9-.5,2.7-.8.9-.3,1.8-.7,2.6-1.2v-7.6c-.9.5-1.9.9-2.8,1.3-.9.3-1.8.6-2.7.9-.9.2-1.9.4-2.9.6-1,.1-2,.2-3.1.2s-2.5-.2-3.5-.6c-1-.4-1.9-1-2.6-1.7-.7-.8-1.3-1.7-1.7-2.8-.4-1.1-.6-2.4-.6-3.7h21.9v-4.8c0-2.6-.4-4.9-1.1-6.9-.7-2-1.7-3.8-3.1-5.1ZM189.7,50.1c.2-2.6.8-4.5,2-5.7,1.2-1.2,2.6-1.8,4.3-1.8h0c1,0,1.9.2,2.7.6.8.4,1.4.9,1.9,1.6.5.7.9,1.5,1.2,2.4.3.9.4,1.9.4,3h-12.5Z"/>
      <path d="M234.5,35.6c-.3,0-.6,0-.9,0-.3,0-.6,0-.8,0h0c-1.2,0-2.3.1-3.2.4-.9.3-1.8.7-2.5,1.2-.7.5-1.4,1.2-2,1.9-.6.8-1.2,1.6-1.7,2.5h-.5l-1.4-5.4h-7.4v35.9h9.8v-18.3c0-1.7.2-3.1.6-4.3.4-1.2,1-2.1,1.8-2.8.8-.7,1.7-1.3,2.7-1.6,1.1-.3,2.2-.5,3.5-.5.2,0,.5,0,.8,0,.3,0,.6,0,1,0,.3,0,.7,0,1,.1.3,0,.5,0,.7.1v-9.2c-.1,0-.3,0-.6,0-.2,0-.5,0-.8-.1Z"/>
      <path d="M92.6,61.1h-.2l-10.2-35.9h-13.6v47h8.9v-21.9c0-.6,0-1.3,0-2,0-.8,0-1.5,0-2.3,0-.8,0-1.6,0-2.5,0-.8,0-1.7-.1-2.4,0-1.8-.2-3.7-.3-5.7h.3l10.3,36.9h9.2l11.1-36.8h.3c0,2-.1,3.8-.2,5.6,0,.8,0,1.6-.1,2.4,0,.8,0,1.6,0,2.4,0,.8,0,1.5,0,2.3,0,.7,0,1.3,0,1.9v22.2h9.3V25.1h-13.6l-10.8,35.9Z"/>
      <path d="M172,65c-1.1,0-2-.3-2.7-1s-1-1.7-1-3.1v-17.3h8.7v-7.4h-8.7v-7.7h-6.3,0s-2.8,7.6-2.8,7.6l-5.4,3.3v4.1h4.7v17.3c0,2.3.3,4.2.8,5.8.6,1.5,1.4,2.7,2.4,3.7,1,.9,2.2,1.5,3.5,1.9,1.4.4,2.8.5,4.4.5s3.1-.2,4.4-.5c1.4-.3,2.5-.7,3.4-1.2v-7.3c-.9.3-1.8.6-2.7.8-.9.2-1.8.3-2.7.3Z"/>
      <path d="M148.2,39.8c-1.3-1.4-3-2.4-4.9-3.1-1.9-.7-4-1.1-6.4-1.1h0c-2.4,0-4.7.4-6.7,1.2-2,.8-3.7,2-5.1,3.6-1.4,1.6-2.5,3.5-3.3,5.9s-1.2,5.1-1.2,8.3.4,5.8,1.3,8.1c.9,2.3,2.1,4.2,3.7,5.7,1.6,1.5,3.4,2.6,5.6,3.4,2.2.8,4.5,1.1,7.1,1.1s2.5,0,3.7-.2c1.1,0,2.2-.2,3.1-.4,1-.2,1.9-.5,2.7-.8.9-.3,1.8-.7,2.6-1.2v-7.6c-.9.5-1.9.9-2.8,1.3-.9.3-1.8.6-2.7.9-.9.2-1.9.4-2.9.6-1,.1-2,.2-3.1.2s-2.5-.2-3.5-.6c-1-.4-1.9-1-2.6-1.7-.7-.8-1.3-1.7-1.7-2.8-.4-1.1-.6-2.4-.6-3.7h21.9v-4.8c0-2.6-.4-4.9-1.1-6.9-.7-2-1.7-3.8-3.1-5.1ZM130.6,50.1c.2-2.6.8-4.5,2-5.7,1.2-1.2,2.6-1.8,4.3-1.8h0c1,0,1.9.2,2.7.6.8.4,1.4.9,1.9,1.6.5.7.9,1.5,1.2,2.4.3.9.4,1.9.4,3h-12.5Z"/>
      <polygon points="240.9 26.9 243.5 26.9 243.5 35.4 245.7 35.4 245.7 26.9 248.3 26.9 248.3 25.1 240.9 25.1 240.9 26.9"/>
      <path d="M257.5,25.1l-2.4,7.9h0l-2.2-7.9h-3v10.3h2v-4.8c0-.1,0-.3,0-.4,0-.2,0-.3,0-.5,0-.2,0-.4,0-.5,0-.2,0-.4,0-.5,0-.4,0-.8,0-1.3h0l2.3,8.1h2l2.4-8.1h0c0,.4,0,.8,0,1.2,0,.2,0,.3,0,.5,0,.2,0,.4,0,.5,0,.2,0,.3,0,.5v5.3h2v-10.3h-3Z"/>
      <path d="M60.3,1.1l-7,16.8h1.8l2.2-5.3h7.6l2.2,5.3h1.8L61.7,1.1h-1.4ZM57.6,11.3l3.5-8.3s3.4,8.3,3.4,8.3h-6.8Z"/>
      <path d="M72.2,11.7h5.5c2.9,0,4.8-2.6,4.8-5.3s-2.1-5.3-5-5.3h-7v16.8h1.6v-6.2ZM72.2,2.6h5.2c1.9,0,3.4,1.7,3.4,3.8s-1.3,3.9-3.3,3.9h-5.4V2.6Z"/>
      <path d="M83.3,17.9l2.2-5.3h7.6l2.2,5.3h1.8l-7-16.8h-1.4l-7,16.8h1.7ZM89.3,3l3.4,8.3h-6.8l3.5-8.3Z"/>
      <path d="M104.8,18c2.6,0,5.6-1.4,6.7-3.9l-1.4-.7c-1.1,2.2-3.3,3.1-5.2,3.1-3.6,0-6.3-3.4-6.3-7.1s2.2-7,6.2-7,3.9.8,5,3l1.3-.8c-1-2.2-3.2-3.7-6.2-3.7-5.1,0-8,4.3-8,8.4s3.3,8.7,7.9,8.7Z"/>
      <polygon points="115.4 10 125.4 10 125.4 17.9 127 17.9 127 1.1 125.4 1.1 125.4 8.6 115.4 8.6 115.4 1.1 113.8 1.1 113.8 17.9 115.4 17.9 115.4 10"/>
      <polygon points="142.1 16.4 132.5 16.4 132.5 10 140.7 10 140.7 8.6 132.5 8.6 132.5 2.6 141.9 2.6 141.9 1.1 130.8 1.1 130.8 17.9 142.1 17.9 142.1 16.4"/>
    </g>
  </g>
</svg>