<?xml version="1.0" encoding="UTF-8"?>
<svg id="Layer_1" xmlns="http://www.w3.org/2000/svg" version="1.1" viewBox="0 0 1000 1000">
  <!-- Generator: Adobe Illustrator 29.3.1, SVG Export Plug-In . SVG Version: 2.1.0 Build 151)  -->
  <path d="M840,0H0v840c0,88.4,71.6,160,160,160h680c88.4,0,160-71.6,160-160V160C1000,71.6,928.4,0,840,0ZM358.1,920s0,0,0,0h0s0,0,0,0c-64.2,0-103.9-36.2-103.1-102.8v-168.4c0-33.7,9.9-59.4,29.6-77,35.5-34.2,117.8-36.3,152.6.5,21.4,18.9,29.5,57.5,27.6,93.5h-73.7c.6-14.2-.2-35.6-8.5-43.7-10.8-14.6-39.4-12.9-46.9,2.3-4.6,8.3-7,20.5-7,36.7v146.2c0,30.7,10.6,46.2,32,46.5,10,0,17.5-3.6,22.7-10.8,7.2-8.6,8.3-27.6,7.7-41.3h73.7c5,70.1-36.3,119.2-106.7,118.3ZM592.1,920h0c-71.2,1-103-49.6-101-118.3h69.6c-1.9,29.9,8.3,57.2,33,55.3,11,0,18.7-3.4,23.2-10.3,8.5-12.6,10.1-49-2.1-63-8.5-13.5-39-25.5-55.2-33.6-23-11-39.6-24.1-49.8-39.3-22.9-33.6-20.8-107.5,11.3-137.4,31.2-36.9,112.6-38.6,143.8-.8,19.2,19.5,27.7,57.9,26,93.2h-67c.6-14.5-.8-38-6.4-46.5-4-7.2-11.4-10.8-22.4-10.8-19.6,0-29.4,11.7-29.4,35.1.2,24.9,9.9,35.1,32.5,45.5,29.2,11.4,66.4,30.8,79.9,54.2,40.2,71.5,12.6,180.8-86.1,176.6ZM816.9,920h0c-71.2,1-103-49.6-101-118.3h69.6c-1.9,29.9,8.3,57.2,33,55.3,11,0,18.7-3.4,23.2-10.3,8.5-12.6,10.1-49-2.1-63-8.5-13.5-39-25.5-55.2-33.6-23-11-39.6-24.1-49.8-39.3-22.9-33.6-20.8-107.5,11.3-137.4,31.2-36.9,112.6-38.6,143.8-.8,19.2,19.5,27.7,57.9,26,93.2h-67c.6-14.5-.8-38-6.4-46.5-4-7.2-11.4-10.8-22.4-10.8-19.6,0-29.4,11.7-29.4,35.1.2,24.9,9.9,35.1,32.5,45.5,29.2,11.4,66.4,30.8,79.9,54.2,40.2,71.5,12.6,180.8-86.1,176.6Z"/>
</svg>