<?xml version="1.0" encoding="UTF-8"?>
<svg id="Layer_1" xmlns="http://www.w3.org/2000/svg" version="1.1" viewBox="0 0 672.5 530.8">
  <!-- Generator: Adobe Illustrator 29.3.1, SVG Export Plug-In . SVG Version: 2.1.0 Build 151)  -->
  <path d="M661.6,218.1c-16.5-11.1-59.8-15.8-91.3-7.4-1.7-31.4-17.9-57.8-47.5-80.9l-11-7.4-7.3,11c-14.3,21.8-20.4,50.8-18.3,77.2,1.7,16.3,7.3,34.5,18.3,47.8-41,23.8-78.8,18.4-246.1,18.4H0c-.8,37.8,5.3,110.5,51.5,169.6,5.1,6.5,10.7,12.9,16.8,18.9,37.6,37.6,94.4,65.2,179.3,65.3,129.5.1,240.5-69.9,308-239.2,22.2.4,80.9,4,109.5-51.5.7-.9,7.3-14.7,7.3-14.7l-10.9-7.4ZM168.7,183.5h-72.7v72.7h72.7v-72.7ZM262.5,183.5h-72.7v72.7h72.7v-72.7ZM356.4,183.5h-72.7v72.7h72.7v-72.7ZM450.2,183.5h-72.7v72.7h72.7v-72.7ZM74.8,183.5H2.2v72.7h72.7v-72.7ZM168.7,91.8h-72.7v72.7h72.7v-72.7ZM262.5,91.8h-72.7v72.7h72.7v-72.7ZM356.4,91.8h-72.7v72.7h72.7v-72.7ZM356.4,0h-72.7v72.7h72.7V0Z"/>
</svg>