<?xml version="1.0" encoding="UTF-8"?>
<svg id="Layer_1" xmlns="http://www.w3.org/2000/svg" version="1.1" viewBox="0 0 1667 2500">
  <!-- Generator: Adobe Illustrator 29.3.1, SVG Export Plug-In . SVG Version: 2.1.0 Build 151)  -->
  <defs>
    <style>
      .st0 {
        opacity: .8;
      }
    </style>
  </defs>
  <path id="path0_fill" d="M416.8,2500c230,0,416.7-186.7,416.7-416.7v-416.7h-416.7C186.8,1666.7.2,1853.3.2,2083.3s186.7,416.7,416.7,416.7Z"/>
  <path id="path1_fill" d="M.2,1250c0-230,186.7-416.7,416.7-416.7h416.7v833.3h-416.7C186.8,1666.7.2,1480,.2,1250Z"/>
  <path id="path1_fill1" data-name="path1_fill" d="M.2,416.7C.2,186.7,186.8,0,416.8,0h416.7v833.3h-416.7C186.8,833.3.2,646.7.2,416.7Z"/>
  <path id="path2_fill" class="st0" d="M833.5,0h416.7c230,0,416.7,186.7,416.7,416.7s-186.7,416.7-416.7,416.7h-416.7V0Z"/>
  <path id="path3_fill" class="st0" d="M1666.8,1250c0,230-186.7,416.7-416.7,416.7s-416.7-186.7-416.7-416.7,186.7-416.7,416.7-416.7,416.7,186.7,416.7,416.7Z"/>
</svg>