<?xml version="1.0" encoding="UTF-8"?>
<svg id="Layer_1" xmlns="http://www.w3.org/2000/svg" version="1.1" viewBox="0 0 20.4 22">
  <!-- Generator: Adobe Illustrator 29.3.1, SVG Export Plug-In . SVG Version: 2.1.0 Build 151)  -->
  <path d="M20.4,9.7c0-.4,0-.8-.2-1.3-.1-.5-.3-1-.6-1.5-.3-.5-.6-1.1-1.1-1.6s-.4-.4-.6-.6c.3-1.3-.4-2.3-.4-2.3-1.2,0-2,.4-2.2.6h-.2c-.2,0-.4-.2-.6-.2s-.4,0-.7-.2c-.2,0-.5,0-.7,0h0C12.5.9,11,.2,11,.2c-1.6,1.1-2,2.5-2,2.5,0,0-.2,0-.3.2-.1,0-.2,0-.4,0,0,0-.2,0-.4.2-.2,0-.5.2-.7.4-.2.2-.5.3-.7.4-2.3-.9-4.3.2-4.3.2-.2,2.4.9,4,1.1,4.3,0,.2,0,.3-.2.5-.2.5-.3,1.1-.4,1.7v.2c-2.1,1.1-2.7,3.2-2.7,3.2,1.8,2,3.8,2.2,3.8,2.2.3.5.5.9.9,1.3.2.2.3.4.4.5-.6,1.8,0,3.4,0,3.4,2,0,3.2-.9,3.5-1.1.2,0,.4,0,.6.2.6.2,1.2.2,1.8.3h.7c.9,1.3,2.5,1.5,2.5,1.5,1.2-1.2,1.2-2.4,1.2-2.7.2-.2.5-.4.7-.6.5-.4.9-.9,1.2-1.4v-.2c1.3,0,2.2-.8,2.2-.8-.2-1.4-1-2-1.2-2.2v-2c-.2-.6-.4-1.1-.7-1.6-.3-.5-.7-.9-1.1-1.3-.4-.4-.9-.7-1.4-.9s-1-.4-1.6-.4h-1.6c-.5,0-1,.3-1.4.5-.4.3-.8.6-1.1.9-.3.4-.5.8-.7,1.2-.2.4-.2.9-.3,1.3v.6c0,.2,0,.4,0,.6,0,.4.3.7.5,1.1.2.3.5.5.8.7s.6.4.9.4.6.1.9.1h.8c0,0,.2,0,.4-.2.1,0,.2,0,.3-.2.1,0,.1-.2,0-.3,0,0-.2,0-.3,0,0,0-.2,0-.3,0h-.9c-.2,0-.4,0-.7-.2-.2,0-.4-.2-.6-.4s-.4-.4-.5-.6c0-.2-.2-.5-.3-.7v-.9c0-.6.4-1.1.9-1.6s.2-.2.4-.3c.1,0,.3-.2.4-.2.2,0,.3-.1.4-.2h1.5c.4,0,.7.2,1,.4.6.4,1.1.9,1.5,1.5.2.3.3.7.4,1v1.9c0,.2,0,.4-.2.5-.2.4-.4.7-.6,1.1-.5.6-1.1,1.2-1.8,1.5-.4.2-.7.3-1.1.4h-1.2c-.4,0-.9,0-1.3-.2-.4,0-.8-.3-1.2-.5-.7-.4-1.4-.9-2-1.6-.3-.3-.5-.7-.7-1.1-.2-.4-.4-.8-.5-1.2-.1-.4-.2-.8-.2-1.2v-1.3c0-.2,0-.4,0-.6,0-.2,0-.4.2-.6,0-.4.3-.8.4-1.2.4-.7.8-1.4,1.3-1.9,0-.1.3-.3.4-.4.2,0,.3-.2.5-.3.2-.1.3-.2.5-.3,0,0,.2,0,.2-.1h.2c.2,0,.4,0,.5-.2h3.1c.4,0,.7,0,1.1.1.7,0,1.3.4,1.9.6.6.3,1.1.6,1.5,1,0,0,.1,0,.2.2,0,0,.1,0,.2.2l.2.2c.2.2.4.4.5.6.3.4.6.8.8,1.2v.6c0,.2.2.4.2.5,0,.3.2.5.2.7,0,0,0,.2.2,0,0,0,.2,0,.2-.2.2-.5.2-.7.1-1l.5-.7Z"/>
</svg>