<?xml version="1.0" encoding="UTF-8"?>
<svg id="Layer_1" xmlns="http://www.w3.org/2000/svg" version="1.1" xmlns:sketch="http://www.bohemiancoding.com/sketch/ns" xmlns:xlink="http://www.w3.org/1999/xlink" viewBox="0 0 175 387">
  <!-- Generator: Adobe Illustrator 29.3.1, SVG Export Plug-In . SVG Version: 2.1.0 Build 151)  -->
  <defs>
    <style>
      .st0 {
        fill-rule: evenodd;
      }
    </style>
  </defs>
  <path class="st0" d="M86.7,304.7c-22.6,0-40-3.4-48.4-5.4-5.7-1.4-10.3-2.8-13.8-4.3l11.2,19.1,4.4,59.7c0,6.7,21.3,12.1,47.5,12.1s47.5-5.4,47.5-12.1l3.5-60.4,10.6-18.5c-3.5,1.5-8.2,2.9-14,4.3-8.4,2-25.8,5.4-48.4,5.4Z"/>
  <path class="st0" d="M123.5,87.1l7.6-30.6,43.2-45.6s0,0,0,0c.9-1-.9-4.2-4-7-3.1-2.7-6.4-3.7-7.4-2.6,0,0,0,0,0,0l-46.1,48.5-9.5,36.6c-6.4-.2-13-.3-19.8-.3C39.4,86,.5,91.4.5,98s39,12,87,12,87-5.4,87-12-20.9-9-51-10.9ZM111.9,104.3c-5.7,0-10.3-1.3-10.3-2.8s.8-1.3,2.2-1.7v.5c-.2,0-.2.2-.2.2,0,1,3.7,1.8,8.3,1.8s8.3-.8,8.3-1.8l.2-.6c1.2.5,1.9,1,1.9,1.6,0,1.6-4.6,2.8-10.3,2.8Z"/>
  <path class="st0" d="M149.5,110.4c-16.6,2.3-38.6,3.6-61.9,3.6s-45.3-1.3-61.9-3.6c-8.2-1.1-14.7-2.5-19.3-4-1.1-.4-3-1-4.7-2l10.3,94.5c.5-1.6,1-3.3,1.6-4.9,1.2-3.3,2.6-6.6,4.2-9.7,1.6-3.2,3.3-6.2,5.2-9,1.9-2.8,3.8-5.4,5.9-7.8,2.1-2.4,4.3-4.4,6.5-6.1,2.2-1.7,4.4-3,6.7-4,2.3-1,4.5-1.4,6.7-1.4s5,.7,7.4,2.1c2.4,1.4,4.6,3.7,6.7,6.8.5.7.8,1.4.9,2.1.1.7.2,1.4.2,2,0,1.5-.4,2.7-1.1,3.5-.7.9-1.6,1.3-2.5,1.3s-1.7-.5-2.5-1.4c-.8-.9-1.6-2.3-2.6-4.1-.9-1.6-1.9-2.7-3-3.5-1.1-.7-2.2-1.1-3.5-1.1-2,0-4.1.8-6.3,2.4-2.2,1.6-4.4,3.8-6.6,6.4-2.2,2.7-4.3,5.7-6.3,9.2-2,3.4-3.8,7-5.3,10.6-1.5,3.6-2.8,7.2-3.7,10.7-.9,3.5-1.4,6.6-1.4,9.4s0,1.9.2,2.9c.1,1,.4,1.9.7,2.7.3.8.8,1.5,1.4,2,.6.5,1.4.8,2.3.8s2.2-.3,3.5-1c1.3-.7,2.7-1.6,4.1-2.7,1.4-1.1,2.8-2.4,4.3-3.8,1.4-1.4,2.8-2.9,4-4.3,1.2-1.5,2.3-2.9,3.3-4.2,1-1.3,1.7-2.5,2.1-3.5l3.9-11.7c.5-1.3,1.1-2.2,1.9-2.7.8-.5,1.6-.8,2.4-.8s.8,0,1.2.2c.4.1.7.3,1.1.6.3.3.6.6.7,1.1.2.4.3,1,.3,1.6,0,1.6-.1,3.1-.4,4.5-.3,1.4-.6,2.8-1.1,4.1-.4,1.3-.9,2.7-1.4,4-.5,1.3-1.1,2.7-1.6,4.2-.1.2-.3.7-.6,1.6-.3.9-.7,2-1.1,3.3-.4,1.3-.9,2.8-1.4,4.5-.5,1.6-1,3.3-1.5,5-.5,1.7-1,3.4-1.5,5-.5,1.6-.9,3.1-1.3,4.5-.4,1.3-.7,2.4-.9,3.3-.3.9-.4,1.4-.5,1.6-.1.5-.4,1.1-.7,1.8-.3.6-.7,1.3-1.1,1.8-.4.6-.9,1.1-1.4,1.4-.5.4-1,.6-1.6.6-.9,0-1.5-.3-2-.9-.4-.6-.6-1.7-.6-3.3v-.7c0-.2,0-.5,0-.7,0-.5.2-1.5.6-3,.4-1.5.9-3.1,1.4-5,.5-1.8,1.1-3.8,1.8-5.7.6-2,1.2-3.7,1.7-5.3-1.5,1.7-3.1,3.3-4.8,5-1.7,1.6-3.5,3.1-5.3,4.4-1.8,1.3-3.7,2.4-5.5,3.2-1.8.8-3.6,1.2-5.3,1.2s-3.6-.4-5.1-1.3c-.3-.2-.5-.3-.7-.5l5.7,59.9c1.5,3.7,29.5,12.9,66.4,12.9s64.9-9.2,66.4-12.9l8.2-71.2c-.7.6-1.3,1.2-2,1.8-2.4,2.2-4.6,4.1-6.7,5.6-2.1,1.6-4.1,2.8-6.1,3.7-2,.9-4.1,1.3-6.4,1.3s-3.8-.5-4.9-1.4c-1.2-.9-1.7-2.2-1.7-3.8v-.4c0-.1,0-.3,0-.4.1-1,.5-2.1,1.3-3.4.8-1.3,1.7-2.6,2.7-4,1.1-1.4,2.2-2.8,3.4-4.2,1.2-1.4,2.3-2.8,3.3-4.1,1-1.3,1.9-2.4,2.5-3.5.7-1.1,1-1.9,1-2.6s-.1-.7-.4-.9c-.3-.2-.7-.3-1.4-.3-1.1,0-2.3.3-3.5.9-1.2.6-2.4,1.4-3.5,2.3-1.2,1-2.3,2.1-3.4,3.4-1.1,1.3-2.1,2.6-3.1,3.9-1,1.4-1.8,2.7-2.6,4.1-.8,1.4-1.5,2.6-2,3.8-.2.4-.4.9-.7,1.5-.3.7-.6,1.4-1,2.2-.4.8-.8,1.7-1.2,2.6-.4.9-.8,1.7-1.1,2.5-.3.8-.6,1.5-.9,2.1-.3.6-.5,1-.6,1.3-.1.3-.4.9-.7,1.7-.3.8-.7,1.8-1.1,2.9-.4,1.1-.9,2.3-1.3,3.5-.5,1.2-.9,2.4-1.3,3.5-.4,1.1-.8,2.1-1.1,2.9-.3.8-.5,1.4-.6,1.7-.3.9-.6,1.7-1,2.4-.4.8-.8,1.4-1.3,2-.5.6-1,1-1.7,1.4-.6.4-1.3.5-2.1.5s-1.8-.2-2.5-.7c-.7-.5-1-1.4-1-2.8s0-1.3.3-2c.2-.7.4-1.4.6-2.1.3-.7.5-1.3.8-2,.3-.6.5-1.3.7-1.9,1.5-3.3,3.1-6.6,4.6-10,1.6-3.3,3.1-6.6,4.5-9.9.3-.7.6-1.4.9-2,0,0-.2.2-.3.3-1.8,1.8-3.6,3.3-5.4,4.7-1.8,1.3-3.6,2.4-5.4,3.2-1.8.8-3.5,1.2-5.2,1.2s-2.1-.2-2.9-.5c-.8-.4-1.4-.9-1.8-1.5-.5-.6-.8-1.4-1-2.2,0-.3-.1-.6-.2-.9-.5.4-1,.8-1.5,1.1-1.7,1.2-3.4,2.2-5.1,3-1.7.7-3.2,1.1-4.5,1.1s-2.4-.4-3.3-1.3c-.8-.9-1.3-2.4-1.3-4.6s.2-3.3.7-5.3c-.7,1.3-1.6,2.6-2.7,3.9-1.1,1.3-2.3,2.5-3.7,3.6-1.4,1.1-3,2-4.7,2.7-1.7.7-3.6,1-5.7,1s-1.8-.1-2.7-.3c-.9-.2-1.6-.6-2.2-1.2-.6-.6-1.2-1.3-1.6-2.3-.4-.9-.6-2.1-.6-3.6s0-.5.2-1.5c.1-1,.5-2.5,1.1-4.6.6-2.1,1.5-4.8,2.8-8.2,1.3-3.4,3-7.4,5.3-12.2.6-1.3,1.3-2.2,2-2.7.8-.5,1.6-.8,2.5-.8s.8,0,1.2.2c.4.1.8.3,1.2.5.4.2.7.6.9.9.2.4.3.8.3,1.3s0,.6-.1.9c-.1.6-.4,1.3-.9,2.2-.5.9-1,2-1.6,3.1-.6,1.2-1.3,2.4-2,3.8-.7,1.4-1.3,2.8-1.9,4.2s-1.1,2.9-1.5,4.5-.7,3-.7,4.4c0,.6.1,1.1.4,1.6.3.5.7.7,1.4.7,1.8,0,3.6-.6,5.2-1.8,1.7-1.2,3.2-2.7,4.6-4.5,1.4-1.8,2.7-3.7,3.8-5.7,1.1-2,2.1-3.9,2.8-5.6.5-1.1,1-2.3,1.4-3.6.4-1.3.8-2.5,1.3-3.6.5-1.1,1-2,1.6-2.7.6-.7,1.4-1.1,2.3-1.1s1.8.4,2.4,1.1c.6.8.9,1.7.9,2.7s-.2,1.4-.6,2.5c-.4,1-.9,2.2-1.4,3.6-.6,1.3-1.2,2.8-1.9,4.3-.7,1.5-1.3,3.1-1.9,4.7-.6,1.6-1.1,3.1-1.4,4.6-.4,1.5-.6,2.9-.6,4.2s.6,1.8,1.8,1.8,1.9-.3,3.2-.9c1.3-.6,2.6-1.4,4.1-2.5.4-.3.7-.5,1.1-.8.4-1.6.9-3.1,1.4-4.5,1-2.6,2-5.2,3-7.7,1-2.6,1.9-4.9,2.8-7l12.7-32.1c.5-1.3,1.2-2.2,2-2.7.9-.5,1.7-.8,2.6-.8s1.7.3,2.4.8c.7.6,1.1,1.5,1.1,2.7s-.1,1.2-.4,1.9c-.2.7-.5,1.4-.9,2.1-.7,1.6-1.5,3.5-2.5,5.7-1,2.3-2,4.7-3.1,7.4-1.1,2.7-2.2,5.4-3.4,8.3-1.2,2.9-2.3,5.7-3.4,8.4-1.1,2.7-2.1,5.3-3.1,7.7-1,2.4-1.8,4.6-2.5,6.3-.3.8-.6,1.7-.9,2.7-.3,1-.4,1.9-.4,2.7s0,.9.3,1.2c.2.3.5.4,1,.4s1.3-.2,2.2-.6c.9-.4,1.8-1,2.9-1.6,1-.7,2.1-1.5,3.2-2.3,1.1-.9,2.2-1.8,3.3-2.7,1.1-.9,2.1-1.9,3.1-2.8,1-.9,1.9-1.8,2.7-2.6.2-.2.4-.3.6-.4.5-1.4.9-2.8,1.3-4.2.2-.6.5-1.4.9-2.5.4-1.1.8-2.2,1.3-3.2.5-1.1,1.1-2,1.7-2.8.6-.8,1.3-1.2,2-1.2,1.1,0,1.9.3,2.4.8.5.5.8,1.3.8,2.3s0,.5,0,.9c0,.4-.1.9-.2,1.4,0,.5-.2.9-.3,1.4,0,.4-.2.7-.3.9,1-1.1,2.2-2.2,3.4-3.4,1.2-1.1,2.5-2.1,3.7-3,1.3-.9,2.6-1.6,4-2.2,1.3-.6,2.7-.8,4-.8s1.8.1,2.8.4c.9.3,1.7.7,2.4,1.2.7.5,1.3,1.2,1.7,1.9.4.8.7,1.7.7,2.7s-.3,2.8-1,4.4c-.7,1.5-1.5,3.1-2.6,4.7-1,1.6-2.2,3.1-3.4,4.6-1.2,1.5-2.3,2.8-3.4,4-1.1,1.2-1.9,2.2-2.6,3.1-.7.8-1.1,1.4-1.1,1.7,0,.4.1.7.4,1,.3.2.7.4,1.3.4s1.2-.3,2.1-.8c.9-.5,2.2-1.5,3.9-2.8,1.7-1.3,3.8-3.1,6.3-5.3,1.8-1.5,3.8-3.3,6.1-5.4l11.1-102.9c-1.8,1-3.7,1.6-4.8,2-4.6,1.5-11.1,2.9-19.3,4Z"/>
</svg>