<?xml version="1.0" encoding="UTF-8"?>
<svg id="Layer_1" xmlns="http://www.w3.org/2000/svg" version="1.1" viewBox="0 0 362.8 512">
  <!-- Generator: Adobe Illustrator 29.3.1, SVG Export Plug-In . SVG Version: 2.1.0 Build 151)  -->
  <defs>
    <style>
      .st0 {
        opacity: .8;
      }

      .st1 {
        opacity: 0;
      }
    </style>
  </defs>
  <path d="M33.8,0h23v22.8h21.2V0h23v69h-23v-23h-21v23h-23.2M131.4,23h-20.3V0h63.7v23h-20.4v46h-23M184.9,0h24.1l14.8,24.3L238.6,0h24.1v69h-23v-34.2l-16.1,24.8-16.1-24.8v34.2h-22.6M274.1,0h23v46.2h32.6v22.8h-55.6"/>
  <g>
    <polygon points="117.2 221.7 121.4 268.2 181.2 268.2 181.4 268.2 181.4 221.7 181.2 221.7 117.2 221.7"/>
    <path d="M0,100.6l33,370.4,148.1,41,148.7-41.2,33-370.2H0ZM301.4,447l-120,33.5v-46.9l-93.2-26-6.4-71.3h45.6l3.2,36.3,50.7,13.6h0v-72.6h-.2c0,0-101.4,0-101.4,0l-12.4-137.2h114v-45.3h148.3l-28.3,316Z"/>
    <polygon class="st0" points="181.4 176.3 295 176.3 290.8 221.7 181.4 221.7 181.4 268.2 286.7 268.2 274.2 407.6 181.4 433.3 181.4 433.6 181.4 480.5 301.4 447 329.7 131 181.4 131 181.4 176.3"/>
    <polygon class="st0" points="237.2 313.6 181.4 313.6 181.4 386.1 231.9 372.6 237.2 313.6"/>
    <polygon class="st1" points="181.3 386.2 130.6 372.6 127.4 336.3 81.8 336.3 88.2 407.6 181.4 433.6 181.4 433.3 181.4 386.2 181.3 386.2"/>
    <polygon class="st1" points="181.2 176.3 67.4 176.3 79.8 313.5 181.2 313.5 181.2 268.2 121.4 268.2 117.2 221.7 181.2 221.7 181.4 221.7 181.4 176.3 181.2 176.3"/>
  </g>
</svg>