<?xml version="1.0" encoding="UTF-8"?>
<svg id="Layer_1" xmlns="http://www.w3.org/2000/svg" version="1.1" viewBox="0 0 60 20">
  <!-- Generator: Adobe Illustrator 29.3.1, SVG Export Plug-In . SVG Version: 2.1.0 Build 151)  -->
  <path d="M30.7,2.5h2.2v11.2c0,3-1.3,5-4.4,5s-2.1-.2-2.7-.4v-2.1c.7.3,1.5.4,2.3.4,1.9,0,2.5-1.1,2.5-2.7V2.5Z"/>
  <path d="M37,1.6c.9,0,1.5.5,1.5,1.5s-.6,1.5-1.5,1.5-1.5-.5-1.5-1.5.6-1.5,1.5-1.5ZM35.9,6.4h2.2v12.3h-2.2V6.4Z"/>
  <path d="M43.4,18.6h-2.1V6.4h2.1v2.1c.7-1.4,2-2.5,4.4-2.3v2.1c-2.7-.3-4.4.5-4.4,3.1v7.2Z"/>
  <path d="M57.9,16.4c-.8,1.6-2.3,2.5-4.2,2.5-3.3,0-5-2.8-5-6.4s1.8-6.4,5.2-6.4,3.2.8,4,2.4v-2.1h2.2v12.3h-2.2v-2.2ZM54.2,16.9c1.9,0,3.6-1.2,3.6-3.9v-1c0-2.7-1.6-3.9-3.4-3.9s-3.7,1.6-3.7,4.4c0,3,1.2,4.4,3.4,4.4Z"/>
  <path d="M19.5,0h-9.8c0,2.4,2,4.3,4.4,4.3h1.8v1.7c0,2.4,2,4.3,4.4,4.3V.8c0-.5-.4-.8-.8-.8Z"/>
  <path d="M14.6,4.8H4.8c0,2.4,2,4.3,4.4,4.3h1.8v1.7c0,2.4,2,4.3,4.4,4.3V5.6c0-.4-.4-.8-.8-.8Z"/>
  <path d="M9.8,9.6H0c0,2.4,2,4.3,4.4,4.3h1.8v1.7c0,2.4,2,4.3,4.4,4.3v-9.6c0-.5-.4-.8-.8-.8Z"/>
</svg>