<?xml version="1.0" encoding="UTF-8"?>
<svg id="Layer_1" xmlns="http://www.w3.org/2000/svg" version="1.1" viewBox="0 0 470 456.2">
  <!-- Generator: Adobe Illustrator 29.3.1, SVG Export Plug-In . SVG Version: 2.1.0 Build 151)  -->
  <path d="M210.9,195.6c4.7,0,8.5-3.7,8.7-8.4l2.9-51.7c-3.6.7-6.8,1.3-10.4,1.9h0c-18.2,4.1-34.9,13.3-48.2,26.5l43,30.7c1.2.7,2.5,1,3.9,1Z"/>
  <path d="M187.9,229.6c3-3.6,2.5-8.9-1-12l-38.5-34.3h0c-11.5,19.1-16.6,41.3-14.5,63.4l50.1-14.5c1.6-.3,3-1.3,3.9-2.6Z"/>
  <path d="M238.3,284.2c-3.6-1.9-7.8-.6-10.4,2.3l-25.5,46.2c10.6,3.4,21.6,5.1,32.6,5.2,7.6,0,15.2-.9,22.6-2.6h0c3.2-1,6.5-1.6,9.4-2.6l-24.9-44.9c-1.1-1.4-2.4-2.6-3.9-3.6Z"/>
  <path d="M191.1,262.3l-51.4,8.7h0c7.6,20.9,21.8,38.7,40.4,50.8l19.7-47.5c.6-1.7.7-3.5.3-5.2-.9-4.2-4.8-7.1-9-6.8Z"/>
  <polygon points="220.9 247.7 235.1 254.4 249.3 247.7 252.5 232.5 242.8 220.2 227 220.2 217.3 232.5 220.9 247.7"/>
  <path d="M252.2,192c2.7,3.4,7.6,4.3,11.3,1.9l42.3-30.1h0c-15.7-15.7-36.2-25.6-58.2-28.1l2.9,52.7c.2,1.3.8,2.5,1.6,3.6Z"/>
  <path d="M428.7,101.8c-1.9-9-8.4-16.8-16.8-21L248.3,2.9C244.2,1,239.7,0,235.1,0h0c-4.6,0-9.2.9-13.6,2.6L57.9,80.8c-8.5,4.1-14.7,11.8-16.8,21L.7,277.4c-1.9,9.3.3,19,6.1,26.5l113.2,140.6c5.9,7.4,14.8,11.7,24.2,11.6h181.4c9.4,0,18.4-4.2,24.3-11.6l113.1-140.6c6.1-7.4,8.4-17.2,6.1-26.5l-40.4-175.5ZM398,281.6c-.9,0-1.8,0-2.6-.3-.3-.3-.6-.4-1-.3-.7,0-1.3-.3-1.9-.3-2-.6-4-1.3-5.8-2.3-1-.3-1.9-1-2.9-1.3h-.3c-6.1-2.3-11.6-4.2-16.8-4.8h-.7c-1.9,0-2.9,1-4.2,1.6-.3,0-.3.3-.7.3l-3.9-.7c-9.5,29.6-29.5,54.8-56.2,70.8l1.6,3.9c0,.3-.3.3-.3.7-.3,1.6-1,2.9-.3,5.2,1.6,4.9,4.9,9.7,8.4,15.2v.2c.7,1,1.3,1.6,1.9,2.6,1.4,1.6,2.6,3.3,3.6,5.2.4.5.7,1,1,1.6,0,.3.3.3.3.6,1.2,2.5,1.4,5.4.7,8.1-.8,2.5-2.5,4.6-4.8,5.8-1.2.6-2.5,1-3.9,1-4.1,0-7.9-2.4-9.7-6.1-.2-.2-.3-.4-.3-.6-.4-.6-.7-1-1-1.6-.8-1.9-1.4-3.8-1.9-5.8l-1-2.9v-.3c-2.3-6.2-4.2-11.6-6.8-16.2-.9-1.5-2.4-2.6-4.2-2.9q-.3-.3-.7-.3l-1.9-3.6c-5.5,2-11.1,3.6-16.8,4.9-9.2,2.2-18.7,3.3-28.1,3.2-15.5,0-30.8-2.9-45.3-8.4l-2.3,4.2q-.3.3-.7.3c-1.3.6-2.9,1-4.2,2.9-2.9,4.5-4.5,9.7-6.8,16.2l-1,2.9c-.7,1.9-.9,3.6-1.9,5.8-.4.5-.7,1-1,1.6-.2.2-.3.4-.3.6-1.9,3.6-5.6,5.9-9.7,6.1-1.4,0-2.7-.4-3.9-1-4.9-2.3-6.8-8.4-4.2-13.9.2-.2.3-.4.3-.6.3-.6.6-1.1,1-1.6,1.3-1.9,2.3-3.6,3.5-5.2.6-1,1.3-1.6,1.9-2.6v-.3c3.3-4.8,6.1-9.9,8.4-15.2.5-1.7.3-3.6-.6-5.2,0-.3-.3-.3-.3-.7l1.9-4.2c-4.8-2.8-9.5-6-13.9-9.4-19.8-15.6-34.5-36.8-42.4-60.8l-4.5.7c-.3,0-.3-.3-.6-.3-1.2-1-2.7-1.5-4.2-1.6h-.7c-5.2.6-10.7,2.6-16.8,4.8h-.3c-1,.3-1.9,1-2.9,1.3-1.9.9-3.8,1.7-5.8,2.3-.7,0-1.3.3-1.9.3,0,.3-.3.3-.7.3-.8.3-1.7.4-2.6.3-5.2,0-9.4-2.9-10.4-7.4-1-5.2,2.6-10.7,8.4-12,.3-.3.6-.4,1-.3.6,0,1.3-.3,1.9-.3,2-.4,4.1-.6,6.1-.6,1.1-.3,2.1-.4,3.2-.3h.3c6.8-.6,12.6-1.3,17.5-2.9,1.6-.7,2.8-2,3.6-3.5,0-.3.3-.3.3-.7l4.2-1.3c-4.3-29.8,2.2-60.1,18.3-85.5.4-.9,1-1.8,1.6-2.6l-3.2-2.9v-.6c0-1.6,0-3.2-1.6-4.9-3.9-3.5-8.7-6.4-14.5-10-.9-.7-1.9-1.2-2.9-1.6-1.9-1-3.7-2-5.5-3.2-.6-.3-1-1-1.6-1.3-.3,0-.3-.3-.7-.3-4.5-3.9-5.5-10.3-2.3-14.5,1.8-2.3,4.5-3.6,7.4-3.6,2.6,0,5.1.9,7.1,2.6,0,.3.3.3.6.6.6.7,1.3,1,1.6,1.3,1.5,1.4,2.9,2.9,4.2,4.5.8.7,1.6,1.4,2.3,2.3,4.5,4.9,8.7,9.1,12.9,12,.8.6,1.9,1,2.9,1,.6,0,1.3-.3,1.9-.3h.6l3.2,2.3c17.2-18.2,39.5-30.9,64-36.2,5.8-1.2,11.6-2,17.5-2.6l.3-4.2.7-.6c1-1,2.3-1.9,2.6-4.2.6-5.2-.3-11-1-17.5v-.3c-.3-1.3-.3-2.2-.6-3.2-.7-2-1-4.1-1-6.2v-2.6c0-2.8,1-5.5,2.9-7.4,1.9-2,4.4-3.1,7.1-3.2,5.5,0,10,4.9,10,10.7v2.9c-.4,2.3-.7,4.2-1,6.1-.4,1-.6,2.1-.7,3.2v.3c-.7,6.5-1.3,12.3-1,17.5.3,2.3,1.6,3.2,2.6,4.2l.6.6.3,4.2c24.6,2.3,48.1,11.6,67.6,26.9,4.7,3.8,9.1,7.9,13.2,12.3l3.9-2.6h.7c.6.3,1.3.4,1.9.3,1,0,2.1-.4,2.9-1,4.7-3.4,9.1-7.3,12.9-11.6.8-.7,1.6-1.4,2.3-2.3,1.3-1.6,2.7-3.1,4.2-4.5.6-.3,1-1,1.6-1.3l.7-.6c2-1.6,4.5-2.5,7.1-2.6,2.9,0,5.7,1.3,7.4,3.5,3.2,4.2,2.3,10.7-2.3,14.5,0,.3-.3.3-.7.7-.6.6-1.3,1-1.6,1.3-1.8,1.2-3.6,2.3-5.5,3.2-1,.6-1.9,1-2.9,1.6-5.8,3.5-10.7,6.5-14.5,10-1.1,1.4-1.7,3.1-1.6,4.9v.6l-3.2,2.9c8.5,13,14.6,27.3,18.1,42.3,3.5,14.9,4.2,30.4,2.2,45.6l4.2,1.3c0,.3.3.3.3.7.6,1.6,1.9,2.9,3.6,3.5,5.2,1.6,10.7,2.3,17.5,2.9h.3c1.1.3,2.1.4,3.2.3,2.1,0,4.1.3,6.2.6.6,0,1.3.3,1.9.3,0,.3.3.3.6.3h.4c5.8,1.7,9.4,6.8,9.4,10.7-1.5,4.4-5.7,7.4-10.3,7.4Z"/>
  <path d="M321.4,183.3l-39.1,35.2c-1,1-1.6,2.2-1.9,3.6-1,4.5,1.7,9.1,6.1,10.3l49.5,14.2c1-10.9.2-22-2.3-32.7-2.4-10.8-6.6-21.2-12.3-30.7Z"/>
  <path d="M273.9,262.9c-3.7,1.8-5.6,6-4.5,10l20.4,48.8c12.5-8.1,23.1-18.8,31-31.4h0c4.2-6,7.4-12.7,9.4-19.7l-51.7-8.7c-1.6,0-3.1.3-4.5,1Z"/>
</svg>