<?xml version="1.0" encoding="UTF-8"?>
<svg xmlns="http://www.w3.org/2000/svg" version="1.1" xmlns:cc="http://creativecommons.org/ns#" xmlns:dc="http://purl.org/dc/elements/1.1/" xmlns:inkscape="http://www.inkscape.org/namespaces/inkscape" xmlns:rdf="http://www.w3.org/1999/02/22-rdf-syntax-ns#" xmlns:sodipodi="http://sodipodi.sourceforge.net/DTD/sodipodi-0.dtd" xmlns:svg="http://www.w3.org/2000/svg" viewBox="0 0 156.5 177.8">
  <!-- Generator: Adobe Illustrator 29.3.1, SVG Export Plug-In . SVG Version: 2.1.0 Build 151)  -->
  <g id="Layer_1" inkscape:export-xdpi="90" inkscape:export-ydpi="90" sodipodi:docname="mocha-logo.svg">
    <sodipodi:namedview id="namedview28" bordercolor="#666666" borderopacity="1" fit-margin-bottom="5" fit-margin-left="5" fit-margin-right="5" fit-margin-top="5" gridtolerance="10" guidetolerance="10" inkscape:current-layer="Layer_1" inkscape:cx="96" inkscape:cy="98.137283" inkscape:pageopacity="0" inkscape:pageshadow="2" inkscape:window-height="1031" inkscape:window-maximized="0" inkscape:window-width="1920" inkscape:window-x="1360" inkscape:window-y="23" inkscape:zoom="1" objecttolerance="10" pagecolor="#ffffff" showgrid="false"/>
    <path d="M60.4,83.2c-.6-.6-1.2-1-2-1.4-.8-.4-1.6-.6-2.6-.6s-1.8.2-2.6.6c-.8.4-1.4.9-2,1.4-.6.6-1,1.3-1.3,2.1-.3.9-.5,1.7-.5,2.6h0c0,1,.2,1.9.5,2.8.3.9.8,1.5,1.3,2.2.6.6,1.2,1,2,1.4.8.4,1.7.6,2.6.6s1.8-.2,2.6-.6c.8-.4,1.4-.9,2-1.4s1-1.3,1.3-2.1c.3-.9.5-1.7.5-2.6h0c0-1-.2-1.9-.5-2.8-.3-.9-.8-1.5-1.3-2.2Z"/>
    <polygon points="128.6 82.4 125.3 90 131.8 90 128.6 82.4"/>
    <path d="M73.9,71.9h5.6c.3,0,.5,0,.8-.3,3.2-3.9,3.7-11.5,3.7-14.1s-.5-1-1-1h-12.6c-.6,0-1,.5-1,1,0,2.7.5,10.3,3.7,14.1.2.2.4.3.7.3ZM80.1,64.7c2.3-.9,2.4-1.7,2.4-1.7-.4,2.6-1.1,5.5-2.8,7.4-.2.2-.4.3-.6.3h-4.8c-.2,0-.5,0-.6-.3-1.1-1.4-1.9-3.3-2.4-5.3,0,0,5.5.8,8.7-.4Z"/>
    <path d="M151.7,41L83,1.3c-3-1.7-6.6-1.7-9.5,0L4.8,41c-3,1.7-4.8,4.8-4.8,8.2v79.4c0,3.3,1.8,6.5,4.8,8.2l68.7,39.7c3,1.7,6.6,1.7,9.5,0l68.7-39.7c2.9-1.7,4.7-4.9,4.8-8.2V49.2c0-3.3-1.8-6.5-4.8-8.2ZM145.7,123c0,2.9-1.5,5.6-4.1,7.1l-59.4,34.3c-1.2.8-2.7,1.1-4.1,1.1s-2.9-.4-4.1-1.1l-59.4-34.3c-2.6-1.4-4.1-4.1-4.1-7.1V54.5c0-2.9,1.5-5.6,4.1-7.1L74,13.2c1.2-.8,2.7-1.1,4.1-1.1s2.9.4,4.1,1.1l59.4,34.3c2.6,1.4,4.1,4.1,4.1,7.1v68.5Z"/>
    <path d="M140.2,50L80.8,15.7c-.9-.5-1.7-.8-2.7-.8s-1.8.3-2.7.8L16.1,50c-1.6,1-2.7,2.8-2.7,4.7v68.5c0,1.9,1,3.7,2.7,4.7l59.4,34.3c.8.5,1.7.8,2.7.8s1.8-.3,2.7-.8l59.4-34.3c1.6-1,2.7-2.8,2.7-4.7V54.6c0-1.9-1-3.7-2.7-4.7ZM78.5,41.8c-.5.7,0,2.3,1.3,4.2,2.1,3.6-1.3,5.6-1.3,5.6,0-.6-.3-2.4-1-3.2-2.3-3.4-.2-5.1,1-6.6ZM74.7,45.4c-.4.4,0,1.5.9,2.8,1.4,2.5-.9,3.8-.9,3.8,0-.4-.2-1.6-.7-2.1-1.5-2.4-.2-3.4.7-4.5ZM67.7,53.6h17.9c.6,0,1,.5,1,1,0,3.3-.5,14.5-5.2,19.8-.2.2-.4.3-.7.3h-8c-.3,0-.5,0-.7-.3-4.8-5.4-5.2-16.6-5.2-19.8s.5-1,1-1ZM76.3,90.6c.3.9.8,1.5,1.3,2.2.6.6,1.2,1.1,2,1.4.8.3,1.6.6,2.5.6s2.2-.2,3-.7,1.6-1,2.5-1.8l2.2,2.2c-.5.6-1,1-1.5,1.4s-1.1.8-1.7,1c-.6.3-1.3.6-2,.7-.9.2-1.7.2-2.6.2-1.4,0-2.7-.3-3.8-.8-1.1-.5-2.2-1.2-3.1-2.1-.9-.9-1.5-1.9-2-3.1-.5-1.2-.8-2.5-.8-3.8h0c0-1.4.3-2.8.8-3.9.5-1.1,1.1-2.2,2-3.1.9-.9,1.9-1.6,3.1-2.1s2.5-.8,4-.8,1.6,0,2.4.2c.8.2,1.3.4,2,.6.6.3,1.1.6,1.6,1,.5.4,1,.8,1.4,1.2l-2.2,2.5c-.8-.7-1.5-1.2-2.4-1.7s-1.8-.7-3-.7-1.7.2-2.5.6-1.4.9-2,1.4c-.6.6-1,1.3-1.3,2.1-.3.9-.5,1.7-.5,2.6h0c0,1,.2,1.9.5,2.8ZM17.4,67.7h48.7c0,.4,0,.7,0,1H17.4v-1ZM65.8,87.9h0c0,1.4-.3,2.7-.8,3.9-.5,1.1-1.1,2.2-2.1,3.1s-1.9,1.6-3.1,2.1c-1.2.6-2.6.8-4,.8s-2.8-.3-4-.8c-1.2-.5-2.3-1.2-3.1-2.1-.9-.9-1.5-1.9-2-3.1-.5-1.1-.8-2.5-.8-3.8h0c0-1.4.3-2.7.8-3.9.5-1.1,1.1-2.2,2.1-3.1s1.9-1.6,3.1-2.1c1.2-.6,2.6-.8,4-.8s2.8.3,4,.8,2.3,1.2,3.1,2.1c.9.9,1.5,1.9,2,3.1.5,1.1.8,2.5.8,3.8ZM29.2,92.9h0l-5.9-8.9v13.6h-3.3v-19.2h3.5l5.8,9,5.8-9h3.5v19.1h-3.3v-13.6l-6,9ZM139.1,104.6H17.4v-1h121.7v1ZM108.9,86.4v-7.9h3.3v19.1h-3.3v-8h-9.2v8h-3.3v-19.1h3.3v7.9h9.2ZM118.7,97.6l8.4-19.2h3.1l8.4,19.2h-3.5l-1.9-4.6h-9l-2,4.6h-3.4ZM139.1,68.8h-51.8c0-.4,0-.7,0-1h51.7v1Z"/>
  </g>
</svg>