<?xml version="1.0" encoding="UTF-8"?>
<svg id="svg2" xmlns="http://www.w3.org/2000/svg" version="1.1" xmlns:cc="http://creativecommons.org/ns#" xmlns:dc="http://purl.org/dc/elements/1.1/" xmlns:inkscape="http://www.inkscape.org/namespaces/inkscape" xmlns:rdf="http://www.w3.org/1999/02/22-rdf-syntax-ns#" xmlns:sodipodi="http://sodipodi.sourceforge.net/DTD/sodipodi-0.dtd" xmlns:svg="http://www.w3.org/2000/svg" viewBox="0 0 526.8 143.2">
  <!-- Generator: Adobe Illustrator 29.3.1, SVG Export Plug-In . SVG Version: 2.1.0 Build 151)  -->
  <sodipodi:namedview id="namedview4" bordercolor="#666666" borderopacity="1" gridtolerance="10" guidetolerance="10" inkscape:current-layer="g10" inkscape:cx="210.82244" inkscape:cy="57.558266" inkscape:pageopacity="0" inkscape:pageshadow="2" inkscape:window-height="1145" inkscape:window-maximized="1" inkscape:window-width="1920" inkscape:window-x="0" inkscape:window-y="0" inkscape:zoom="2.0079853" objecttolerance="10" pagecolor="#ffffff" showgrid="false"/>
  <g>
    <path d="M34.9,8.3c-2.1-2.9-4.1-8-4.1-8h0c0-.1,0-.3-.1-.4-.2,2.9-.3,4-3,6.9C23.4,10.1,1.8,28.2,0,65c-1.6,34.3,24.8,54.7,28.4,57.3,2.6,6,2.3,16.2,2.3,16.2l3.7,1.2s-.8-9.9.3-14.7c.3-1.4,1.1-2.7,1.9-3.8.6-.4,2.3-1.6,4.6-3.7,0,0,.2,0,.2,0,0,0,0,0,0,0,8.8-8.1,25.7-28.5,20-61.9-7.3-32.3-24.7-43-26.5-47Z"/>
    <path d="M431.3,61.3c-5.4-4.7-13.1-7.1-22.1-7.1s-14.8.3-20.6.3-9.7-.3-11.5-.3c-.5.6-2.1,3.4-1.9,4,2.6.3,4.4.6,5.8.9,2.7.6,4,1.4,4.3,4.6.2,3.8.1,15.6.1,21.7s.1,16-.2,22.3c-.2,3.4-.6,4.3-2.5,5.1-1.1.5-1.8.5-4.1.8-.7,0-1.9,3.2-1.5,4.1h.1c8.8.1,19.4.3,25.6.3,11.6,0,19.7-2.6,26-7.3,6.3-4.5,12.5-12.4,12.5-26.1s-3.5-17.6-10.1-23.3ZM422.5,107.9c-4.7,4.3-9.6,5.2-14.5,5.2s-8.1-.7-10.3-2.4c-1.3-.9-2-3-2.1-4.3-.2-1.4-.2-13.2-.2-21.6s0-22.1.2-24c0-.4.6-1.2.9-1.4,1.1-.5,3.1-.6,5-.6,6.7,0,12.5,1.1,17.1,4,8,4.9,11.9,13.2,11.9,23.5s-3.3,17.4-8.1,21.7Z"/>
    <path d="M488.4,82c-.3-.1-.3-.3,0-.4,5.3-2.2,9.5-6.9,9.5-12.7,0-11.8-10.9-14.6-18.8-14.6s-11.7.2-18.3.2-9.7-.3-10.7-.3c-.5.4-2.1,3.5-1.6,4,2.1.3,4.6.6,6.2.9,2,.5,3,1.4,3.1,4.3.1,3.7,0,11.1,0,22s0,19.3-.2,22.4c-.3,3.7-.6,4.5-3.1,5.1-1.7.5-3,.6-4.7.7-.6.5-2,3.8-1.3,4.1,6.9-.1,19.3.4,23.9.4s12-.7,16.9-2.8c7.9-3.5,13.4-8.9,13.4-17.7s-6.7-13.6-14.3-15.5ZM467.7,60.8c0-.5.5-1.5.9-1.6,1.3-.2,3.1-.2,3.7-.2,9.1,0,15.3,3.4,15.3,12.2s-1.5,7.4-4.8,9c-1.2.6-3.5,1.1-7.4,1.1s-6.1-.1-7.4-.2c-.2,0-.5-.3-.5-.5,0-6.6.1-16.1.2-19.8ZM478.6,113.1c-2.6,0-6.3-.2-7.9-1.1-1.5-.7-2.8-3.1-3-4.9-.3-4.1-.2-14.3-.2-20.7s.3-.4.6-.5c.9-.2,4.7-.1,5.2-.1,12,0,18.6,5.1,18.6,14h0c0,9.3-6.3,13.3-13.4,13.3Z"/>
    <path d="M158.2,114.5c-2.2-.4-4-.7-5.3-1.3-1-.3-1.7-1.6-1.7-2.1,0-2,0-5,0-8.1,0-3.6,0-7.4,0-10.5,0-10.5-5-16.8-13.4-16.8s-8.9,2.4-14.2,6.5c-.1.2-.3.3-.6.3s-.4-.1-.6-.4c-2.7-4.3-6.1-6.4-10.5-6.4s-7.9,1.6-13.7,6.2c-.1.1-.3.2-.5.2-.4,0-.8-.3-.8-.7,0-1.2,0-2.3.2-3.3,0-.3,0-.7,0-1,0-.8-.2-1.2-.4-1.5-3.1,1.4-10.9,3.3-13.8,3.6-1.1.2-1.7.9-1.7,1.4,0,.5.5,1,1.3,1.2,2.2.7,4,1.5,5.5,2.4,1,.7,1,1.8,1,2.6v.2c.1,7.2,0,17.5-.2,23-.1,2.3-.8,3.3-2.6,3.8-1.1.3-2,.5-3.9.8-.1.2-.3.6-.3,1.4,0,1,.1,1.8.3,2.1h0c1,0,2.1,0,3.3-.1,1.8,0,4-.2,7.2-.2s5.1.1,7.1.2c1.3,0,2.4.1,3.3.1.4-.7.5-2.9.3-3.4-.6-.1-1.1-.2-1.7-.3-.9-.1-1.7-.3-2.1-.4-2-.5-2.4-1.8-2.5-2.8-.2-3.5-.1-11.7-.1-18.2,0-2,0-3.8,0-5.4s.4-1.7.9-2.1c2.9-2.2,6.4-3.5,9.2-3.5,4.8,0,7.8,2.7,8.9,7.9.6,3.3.4,16.3.1,20.8-.1,1.9-.7,2.8-2.2,3.2-.9.2-1.8.4-2.9.6-.4,0-.8.1-1.2.2-.2.2-.3.8-.3,1.7s.2,1.6.3,1.8c.9,0,2.4,0,4,0,2,0,4.3-.1,5.7-.1,4.6,0,7.8,0,10.9.2,0,0,.2-.3.4-.9.2-1,.2-2.2,0-2.6-1.2-.2-2.1-.4-2.9-.6-.4,0-.8-.2-1.4-.3-1-.4-2.2-.9-2.2-2.8,0-2.9,0-6.8,0-10.8,0-2,0-4,0-5.9,0-3.3,0-5.6-.4-7.4h0c0-.3.1-.7.3-.9,3.4-2.6,7-3.5,9.3-3.5,6,0,8.7,4.3,9.3,7.9.6,3.5.2,18.3.2,20-.1,2.4-.6,3.2-2.4,3.8-1,.3-1.8.5-3.4.8-.3.5-.2,2.7,0,3.4,2.8-.2,5.7-.3,11.3-.3s5.2.1,6.9.2c1,0,1.7,0,2.3,0,.3-.5.7-2.8.5-3.4h0Z"/>
    <path d="M187.8,75.6c-4.6,0-9.7,1.5-13.9,4.1-6,4-9,9.8-9,17.2,0,10.6,5.5,21.9,21,21.9s9.5-2,12.5-3.8c6.2-4.1,9.5-10.6,9.5-18.8,0-12.1-8.2-20.6-20-20.6ZM194.7,112.2c-1.7,1.5-3.8,2.2-6.3,2.2-8.5,0-14.5-8.3-14.5-20.2s1.8-10.7,5.4-12.9c1.3-.9,3-1.4,4.9-1.4h0c8.7,0,14.5,7.9,14.5,19.6s-1.4,10.5-4,12.6Z"/>
    <path d="M347.8,75.6c-4.6,0-9.7,1.5-13.9,4.1-6,4-9,9.8-9,17.2,0,10.6,5.5,21.9,21,21.9s9.5-2,12.5-3.8c6.2-4.1,9.5-10.6,9.5-18.8,0-12.1-8.2-20.6-20-20.6ZM354.7,112.2c-1.7,1.5-3.8,2.2-6.3,2.2-8.6,0-14.5-8.3-14.5-20.2s1.8-10.7,5.4-12.9c1.3-.9,3-1.4,4.9-1.4,8.7,0,14.5,7.9,14.5,19.6s-1.4,10.5-4,12.6Z"/>
    <path d="M310.2,83.7s.8.2,2.4.4c.1,0,.3,0,.5,0,1.6,0,3.2-.7,4-1.7.9-1.2,1.2-3,1.1-4.2,0-1.2-.3-1.7-.3-1.8-1.3,1.3-2.8,2.4-6.4,2.4s-4.1-.3-5.9-.9c-3.3-1.2-5.7-2.1-9.9-2.2h-.2c-4.1,0-10.5,2.4-13,4.4-3.7,2.7-5.8,6.8-5.8,11.4,0,7.1,3.2,11.8,9.5,13.9.2,0,.3.3.3.5,0,.2,0,.4-.2.6-.9.8-2.6,1.8-4.1,2.7-1,.6-2,1.2-2.6,1.6-.8.6-.7,1.1-.5,1.7,0,0,0,.2,0,.2.4,1.5,1.7,4.1,5.9,5.8.2,0,.3.2.3.4s-.1.3-.3.4c-5.2,3.6-7.4,5.6-8.4,6.7-1.6,1.9-1.8,3.8-1.8,4.6,0,2.6,1.5,6.4,4.8,9,3.4,2.6,7.4,3.8,13,3.8s8.2-.9,12.1-2.7c8-3.9,12.8-10.2,12.8-16.9s-2.6-8.2-6.8-9.7c-3-1-9.5-1.5-14.6-1.8-.9,0-1.7-.1-2.5-.2-3.9-.3-4.7-1.9-4.7-3.3s1.8-2.5,2.5-2.7h0c0,0,.7,0,1.2-.1.8,0,1.1-.1,1.2-.1h0c4-.4,7.6-1.8,10.6-4.1,3.2-2.4,6.1-5.7,6.1-13.1s-.4-3.1-.6-3.9c0,0,0,0,0-.2-.1-.3-.2-.5,0-.6h.4ZM291.9,119.7h0c5.6,0,10.1.6,12.8,1.5,3.5,1.3,5.3,3.6,5.3,7,0,4.9-4.1,9.9-13.4,9.9s-8.3-1.1-10.9-3.3c-2.2-1.8-3.2-3.9-3.2-6.5s1.7-5.2,5.5-7.6c.8-.4,2.1-1,3.9-1ZM299.5,100c-1.1,1.3-3.5,1.8-4.8,1.8-7.5,0-10.1-6.9-10.1-12.7s3.1-9.6,7.8-9.6,9.9,4.5,9.9,12.1-1.1,6.8-2.9,8.3Z"/>
    <path d="M261.3,112.8c-.3-.2-.7-1.1-.7-1.4-.2-3.1-.2-12.3-.2-18.3s-.8-9.1-2.9-12.2c-2.5-3.5-6-5.5-10.5-5.5s-9.4,2.7-13.8,6.5c-.1.1-.8.7-.8-.3,0-1,.2-3,.3-4.3,0-1.3-.7-1.9-.7-1.9-2.9,1.4-11,3.3-14,3.7-2.2.4-2.7,2.5-.4,3.2h0s0,0,0,0c2.4.7,4.1,1.5,5.3,2.3.9.7.8,1.7.8,2.5.1,6.8.1,17.3-.2,22.9-.1,2.2-.7,3-2.4,3.5h.2c-1.2.3-2.3.5-3.8.7-.5.5-.5,3.5,0,4.1,1,0,6.3-.3,10.6-.3s9,.3,10.6.3c.6-.7.8-3.5.4-4.1-1.7-.1-3-.3-4.2-.6-1.6-.4-2.1-1.2-2.2-3-.2-4.8-.2-14.9-.2-21.8s.5-2.8,1.1-3.4c2.1-1.8,5.4-3,8.4-3s4.8.9,6.3,2.1c2,1.6,2.7,4,2.9,5.7.4,3.9.3,11.6.3,18.3s-.3,4.6-1.6,5c-.6.3-2.3.6-4.2.8-.6.6-.4,3.5,0,4.1,2.7,0,5.8-.3,10.3-.3s9.3.3,10.7.3c.6-.7.8-3.4.4-4.1-2.3-.3-3.9-.6-5.9-1.5Z"/>
    <path d="M518.9,101.8c-4.5,0-8,3.5-8,7.9s3.5,7.9,7.9,7.9,7.9-3.5,7.9-8.1-3.5-7.8-7.9-7.8ZM518.9,117c-4,0-7.2-3.2-7.2-7.2s3.2-7.2,7.3-7.2,7.2,3.2,7.2,7.2-3.2,7.2-7.2,7.2Z"/>
    <path d="M522,107.6c0-1.8-.9-2.8-3.1-2.8h-3v10h1.2v-4.4h1.7l2.1,4.4h1.3l-2.1-4.6c1.3-.3,2-1.2,2-2.7ZM517.1,109.3v-3.5h1.6c1.6,0,2.1.4,2.1,1.7s-.5,1.8-1.9,1.8h-1.7Z"/>
  </g>
</svg>