<?xml version="1.0" encoding="UTF-8"?>
<svg id="art" xmlns="http://www.w3.org/2000/svg" version="1.1" viewBox="0 0 149.8 170.3">
  <!-- Generator: Adobe Illustrator 29.3.1, SVG Export Plug-In . SVG Version: 2.1.0 Build 151)  -->
  <path d="M148.6,42.6c-.8-1.4-1.9-2.5-3.2-3.2L79.3,1.2c-1.3-.8-2.8-1.2-4.4-1.2s-3.1.4-4.4,1.2L4.4,39.4c-1.3.7-2.4,1.8-3.2,3.2S0,45.5,0,47v76.3c0,1.5.4,3,1.2,4.4h0c.8,1.4,1.9,2.5,3.2,3.2l66.1,38.2c1.3.8,2.8,1.2,4.4,1.2s3.1-.4,4.4-1.2l66.1-38.2c1.3-.7,2.4-1.8,3.2-3.2.8-1.4,1.2-2.9,1.2-4.4V47c0-1.5-.4-3-1.2-4.4ZM113.1,114.5c0,4.5-4,8.3-9.7,8.3s-8.7-1.6-11.6-5.2l-38.1-45.6v42.3h0c0,4.7-3.8,8.5-8.5,8.5s-8.5-3.8-8.5-8.5v-58.4c0-4.5,4-8.3,9.7-8.3s8.7,1.6,11.6,5.2l2.6,3.1,35.5,42.5v-42.3c0-4.7,3.8-8.5,8.5-8.5s8.5,3.8,8.5,8.5v58.4Z"/>
</svg>