<?xml version="1.0" encoding="UTF-8"?>
<svg id="Layer_1" xmlns="http://www.w3.org/2000/svg" version="1.1" xmlns:xlink="http://www.w3.org/1999/xlink" viewBox="0 0 442.4 270.9">
  <!-- Generator: Adobe Illustrator 29.3.1, SVG Export Plug-In . SVG Version: 2.1.0 Build 151)  -->
  <g>
    <path d="M218.6,270.9c-1.5,0-2.9-.4-4.2-1.1l-13.3-7.9c-2-1.1-1-1.5-.4-1.7,2.7-.9,3.2-1.1,6-2.7.3-.2.7-.1,1,0l10.2,6.1c.4.2.9.2,1.2,0l40-23.1c.4-.2.6-.6.6-1.1v-46.1c0-.5-.2-.9-.6-1.1l-39.9-23c-.4-.2-.9-.2-1.2,0l-39.9,23c-.4.2-.6.7-.6,1.1v46.1c0,.4.2.9.6,1.1l10.9,6.3c5.9,3,9.6-.5,9.6-4v-45.5c0-.6.5-1.2,1.2-1.2h5.1c.6,0,1.2.5,1.2,1.2v45.5c0,7.9-4.3,12.5-11.8,12.5s-4.1,0-9.2-2.5l-10.5-6c-2.6-1.5-4.2-4.3-4.2-7.3v-46.1c0-3,1.6-5.8,4.2-7.3l39.9-23.1c2.5-1.4,5.9-1.4,8.4,0l39.9,23.1c2.6,1.5,4.2,4.3,4.2,7.3v46.1c0,3-1.6,5.8-4.2,7.3l-39.9,23.1c-1.3.7-2.7,1.1-4.2,1.1Z"/>
    <path d="M231,239.2c-17.5,0-21.1-8-21.1-14.8s.5-1.2,1.2-1.2h5.2c.6,0,1.1.4,1.1,1,.8,5.3,3.1,7.9,13.7,7.9s12-1.9,12-6.4-1-4.5-14.1-5.8c-10.9-1.1-17.7-3.5-17.7-12.2s6.8-12.9,18.2-12.9,19.1,4.4,19.9,14c0,.3,0,.6-.3.9-.2.2-.5.4-.8.4h-5.2c-.5,0-1-.4-1.1-.9-1.2-5.5-4.3-7.3-12.5-7.3s-10.3,3.2-10.3,5.6,1.3,3.8,13.7,5.4c12.3,1.6,18.1,3.9,18.1,12.5,0,8.7-7.3,13.7-19.9,13.7Z"/>
  </g>
  <path d="M288.6,190.8c0,4.2-3.5,7.7-7.7,7.7s-7.7-3.4-7.7-7.7,3.6-7.7,7.7-7.7c4.2,0,7.7,3.3,7.7,7.7ZM274.4,190.8c0,3.6,2.9,6.5,6.4,6.5s6.5-3,6.5-6.5-2.9-6.4-6.5-6.4c-3.5,0-6.4,2.8-6.4,6.4ZM278,186.5h3c1,0,3,0,3,2.3s-1,1.9-1.6,2.1c1.2,0,1.3.9,1.4,2,0,.7.2,1.9.4,2.3h-1.8c0-.4-.3-2.6-.3-2.7-.1-.5-.3-.7-.9-.7h-1.5v3.5h-1.7v-8.6h0ZM279.6,190.3h1.3c1.1,0,1.3-.8,1.3-1.2,0-1.2-.8-1.2-1.3-1.2h-1.4v2.4h0Z"/>
  <path d="M94.9,90.5c0-1.8-1-3.5-2.6-4.4l-42.4-24.4c-.7-.4-1.5-.6-2.3-.7h-.4c-.8,0-1.6.3-2.3.7L2.6,86.1c-1.6.9-2.6,2.6-2.6,4.4v65.6c0,.9.6,1.8,1.4,2.2.8.5,1.8.5,2.5,0l25.2-14.4c1.6-.9,2.6-2.6,2.6-4.4v-30.7c0-1.8,1-3.5,2.6-4.4l10.7-6.2c.8-.5,1.7-.7,2.6-.7s1.8.2,2.5.7l10.7,6.2c1.6.9,2.6,2.6,2.6,4.4v30.7c0,1.8,1,3.5,2.6,4.4l25.2,14.4c.8.5,1.8.5,2.6,0,.8-.4,1.3-1.3,1.3-2.2v-65.6Z"/>
  <path d="M298.7.3c-.8-.4-1.8-.4-2.5,0-.8.5-1.3,1.3-1.3,2.2v65c0,.6-.3,1.2-.9,1.6-.6.3-1.2.3-1.8,0l-10.6-6.1c-1.6-.9-3.5-.9-5.1,0l-42.4,24.5c-1.6.9-2.6,2.6-2.6,4.4v48.9c0,1.8,1,3.5,2.6,4.4l42.4,24.5c1.6.9,3.5.9,5.1,0l42.4-24.5c1.6-.9,2.6-2.6,2.6-4.4V18.9c0-1.9-1-3.6-2.6-4.5L298.7.3ZM294.8,124.7c0,.5-.2.9-.6,1.1l-14.5,8.4c-.4.2-.9.2-1.3,0l-14.5-8.4c-.4-.2-.6-.6-.6-1.1v-16.8c0-.5.2-.9.6-1.1l14.5-8.4c.4-.2.9-.2,1.3,0l14.5,8.4c.4.2.6.7.6,1.1v16.8h0Z"/>
  <g>
    <path d="M439.8,107.5c1.6-.9,2.5-2.6,2.5-4.4v-11.9c0-1.8-1-3.5-2.5-4.4l-42.1-24.4c-1.6-.9-3.5-.9-5.1,0l-42.4,24.5c-1.6.9-2.6,2.6-2.6,4.4v48.9c0,1.8,1,3.5,2.6,4.4l42.1,24c1.6.9,3.5.9,5,0l25.5-14.2c.8-.4,1.3-1.3,1.3-2.2,0-.9-.5-1.8-1.3-2.2l-42.6-24.5c-.8-.5-1.3-1.3-1.3-2.2v-15.3c0-.9.5-1.8,1.3-2.2l13.3-7.6c.8-.5,1.8-.5,2.6,0l13.3,7.6c.8.5,1.3,1.3,1.3,2.2v12.1c0,.9.5,1.8,1.3,2.2.8.5,1.8.5,2.6,0l25.4-14.7Z"/>
    <path d="M394.5,105.2c.3-.2.7-.2,1,0l8.1,4.7c.3.2.5.5.5.9v9.4c0,.4-.2.7-.5.9l-8.1,4.7c-.3.2-.7.2-1,0l-8.1-4.7c-.3-.2-.5-.5-.5-.9v-9.4c0-.4.2-.7.5-.9l8.1-4.7Z"/>
  </g>
  <path d="M165.8,62.6c-1.6-.9-3.5-.9-5.1,0l-42.1,24.3c-1.6.9-2.5,2.6-2.5,4.4v48.7c0,1.8,1,3.5,2.5,4.4l42.1,24.3c1.6.9,3.5.9,5.1,0l42.1-24.3c1.6-.9,2.5-2.6,2.5-4.4v-48.7c0-1.8-1-3.5-2.5-4.4l-42.1-24.3Z"/>
</svg>