<?xml version="1.0" encoding="UTF-8"?>
<svg id="svg3430" xmlns="http://www.w3.org/2000/svg" version="1.1" xmlns:cc="http://creativecommons.org/ns#" xmlns:dc="http://purl.org/dc/elements/1.1/" xmlns:rdf="http://www.w3.org/1999/02/22-rdf-syntax-ns#" xmlns:svg="http://www.w3.org/2000/svg" viewBox="0 0 691.2 363.6">
  <!-- Generator: Adobe Illustrator 29.3.1, SVG Export Plug-In . SVG Version: 2.1.0 Build 151)  -->
  <path d="M515.4,130.2h-27.2l-14.8,76.2h24.1c16,0,27.9-3,35.8-9,7.8-6,13.1-16.1,15.9-30.2,2.6-13.5,1.4-23.1-3.6-28.7-5-5.6-15.1-8.4-30.2-8.4h0Z"/>
  <path d="M344.5,0C153.1,0-2,81.4-2,181.8s155.1,181.7,346.5,181.7,346.5-81.4,346.5-181.7S535.9,0,344.5,0ZM255.4,214.5h0c-7.9,7.5-16.7,12.8-26.4,15.9-9.7,3.2-22,4.7-37,4.7h-34l-9.4,48.4h-39.7l35.4-182.2h76.3c23,0,39.7,6,50.2,18.1s13.7,28.9,9.5,50.5c-1.7,8.9-4.7,17-8.8,24.4-4.1,7.4-9.5,14.1-16.2,20.2ZM375.1,235.2l15.7-80.6c1.8-9.2,1.1-15.4-2-18.8-3.1-3.3-9.7-5-19.8-5h-31.5l-20.3,104.4h-39.4l35.4-182.2h39.4l-9.4,48.4h35.1c22.1,0,37.3,3.9,45.7,11.5,8.4,7.7,10.9,20.2,7.5,37.4l-16.5,84.8h0c0,0-40,0-40,0ZM590.2,170c-1.7,8.9-4.7,17-8.8,24.4-4.1,7.4-9.5,14.1-16.2,20.2-7.9,7.4-16.7,12.7-26.4,15.8-9.7,3.2-22,4.7-37,4.7h-34l-9.4,48.4h-39.7l35.4-182.2h76.3c23,0,39.7,6,50.2,18.1s13.7,28.9,9.5,50.5h.1Z"/>
  <path d="M205.6,130.2h-27.2l-14.8,76.2h24.1c16,0,27.9-3,35.8-9,7.8-6,13.1-16.1,15.9-30.2,2.6-13.5,1.4-23.1-3.6-28.7-5-5.6-15.1-8.4-30.2-8.4h0Z"/>
</svg>