<?xml version="1.0" encoding="UTF-8"?>
<svg id="Layer_1" xmlns="http://www.w3.org/2000/svg" version="1.1" viewBox="0 0 923.1 235.6">
  <!-- Generator: Adobe Illustrator 29.3.1, SVG Export Plug-In . SVG Version: 2.1.0 Build 151)  -->
  <g id="g11144">
    <path id="rect11122" d="M554.7,0h48.1v43.2h-48.1V0Z"/>
    <path id="rect11124" d="M770.5,0h47.1v45.9h-47.1V0Z"/>
    <path id="rect11126" d="M626.9,186h47.1v45.9h-47.1v-45.9Z"/>
    <path id="rect11128" d="M554.7,56.9h48.1v45.9h-48.1v-45.9Z"/>
    <path id="path11130" d="M554.7,116.5v54.2c0,12.7-6.8,20.5-18.3,20.5s-18.6-6.8-18.6-20.8V0h-6.8c-28.8,0-44.2,18.6-44.2,54.7v117.2c0,43.9,25.1,63.7,66.6,63.7s69.6-22.5,69.3-64.7v-54.2h-48.1v-.2Z"/>
    <path id="path11132" d="M387.7,0h-30.5c-28.8,0-44.2,18.6-44.2,54.7v177.5h50.8v-82.5h22.5c42,0,59.8-29.3,59.8-77.9S425.8,0,387.7,0h0ZM378.4,108.4h-14.6V41.7h14.9c12,0,17.8,9,17.8,31.5s-6.3,35.2-18.1,35.2Z"/>
    <path id="path11134" d="M74.7,0h-30.5C15.4,0,0,18.6,0,54.7v177.5h50.8v-82.5h22.5c42,0,59.8-29.3,59.8-77.9S112.8,0,74.7,0ZM65.2,108.4h-14.6V41.7h14.9c12,0,17.8,9,17.8,31.5.2,23.9-6.3,35.2-18.1,35.2h0Z"/>
    <path id="path11136" d="M281.2,0c-28.8,0-44.2,18.6-44.2,54.7v37.8h-36.1V0h-6.6c-28.8,0-44.2,18.6-44.2,54.7v177.5h50.8v-93.7h36.1v93.7h50.5V.2h-6.3v-.2Z"/>
    <path id="path11138" d="M923.1,95v-36.4h-23.7V19.3h-14.9c-20.8,0-32,13.4-32,39.3h-15.4v36.4h15.4v102.5c0,25.6,18.3,37.1,41.3,37.1s20.5-1.7,29.1-4.6v-37.4c-3.7.7-8.8,1-13.7,1-7.6,0-9.8-3.7-9.8-10v-88.6h23.7Z"/>
    <path id="path11140" d="M710.2,53c-15.4,0-27.6,6.6-36.1,18.8v-14.9h-15.4c-20.8,0-32,13.4-32,39.3v76.2h47.1v-61.8c0-10.5,5.1-18.3,12.9-18.3s12.7,8.1,12.7,15.4v124.3h46.9V90.1c.5-22.9-15.9-37.1-36.1-37.1h0Z"/>
    <path id="path11142" d="M802.5,58.6c-20.8,0-32,13.4-32,39.3v134h47.1V58.6h-15.1Z"/>
  </g>
</svg>