<?xml version="1.0" encoding="UTF-8"?>
<svg id="katman_1" xmlns="http://www.w3.org/2000/svg" version="1.1" xmlns:xlink="http://www.w3.org/1999/xlink" viewBox="0 0 302 302">
  <!-- Generator: Adobe Illustrator 29.3.1, SVG Export Plug-In . SVG Version: 2.1.0 Build 151)  -->
  <path d="M170.2,1.2C87.5-9.4,11.8,49,1.2,131.7c-10.6,82.7,47.8,158.4,130.5,169s158.4-47.8,169-130.5S252.9,11.8,170.2,1.2ZM235.1,98.3s0,0,0,0l-15.1-15.2h0s19.2-19.3,19.2-19.3c8.3,9,8,23-.7,31.7-1,1.1-2.2,2-3.3,2.8ZM62.5,234.1l11.9-11.9,15.4,15.3h0s0,0,0,0l-26.7-1.8c-.4,0-.7-.2-.8-.6-.2-.4,0-.7.2-1ZM206.6,112.1l-59.1,51.9-2.6-2.6-.9-.9-.2-.2-.9-.8-.3-.3-.8-.8-1.8-1.8,55.8-55.9c.2-.2.4-.3.6-.5,1.6-1.3,3.5-1.9,5.3-1.8.5,0,.9,0,1.4.2.2,0,.3,0,.5.1.4.1.8.3,1.2.5,0,0,.1,0,.2.1.9.5,1.7,1.1,2.3,1.9,1.1,1.2,1.7,2.7,1.8,4.2.3,2.5-.7,5.1-2.7,6.8ZM129.6,166.9l1-1,1.5-1.5,5.7-5.7h0c0,0,2.8,2.9,2.8,2.9l2.9,2.9.6.6-4.1.9-6.4,1.4-3.3.7c-.3,0-.7,0-.8-.4,0-.1-.1-.3-.1-.4,0,0,0,0,0,0,0-.2,0-.3.2-.4ZM123.7,144.8l11,11.1-24.9,5.4c-.5.1-.9,0-1.1-.5-.2-.4,0-.9.2-1.2l14.8-14.8h0ZM193.8,98.7l-55.9,55.9-12-12c55.7-55.5,65.3-55.6,75.7-47-2.8,0-5.6,1-7.7,3.1ZM94.1,236.1c-.8.4-1.7,0-2.1-.6l-15.5-15.4h0s47.6-47.5,47.6-47.5l6.2-1.3c.2,0,.4,0,.6,0l15.9-3.4,11,11h0c-15.9,13.8-37.4,27.7-64.2,41.1-1.2.6-1.8,1.9-1.5,3.2l2.6,10.9c.4.8,0,1.7-.6,2.1ZM160.1,176.8l-10.5-10.5,59-51.8c.2-.2.3-.3.5-.5.3-.3.7-.7.9-1.1-2,16.9-25.6,40.6-50,63.9ZM207.6,96.9c-.2-.1-.4-.3-.5-.5-4.7-4.2-7.7-10.3-7.7-17.1,0-12.6,10.3-22.9,22.9-22.9s10.6,1.9,14.7,5.3l-20.3,20.3c-.3.3-.5.7-.4,1.1,0,.4.1.8.4,1.1l15.6,15.6c-3.1,1.6-6.6,2.4-10,2.4-5.6,0-10.7-2-14.6-5.3Z"/>
  <path d="M239.7,76.5c-.3-.9-1.3-1.4-2.2-1.1s-1.4,1.3-1.1,2.2c0,.2.1.3.2.4.9,1.9.7,4.1-.6,5.7-.6.7-.5,1.8.2,2.5.7.7,1.8.5,2.5-.2,2.1-2.7,2.5-6.4,1-9.5Z"/>
</svg>