<?xml version="1.0" encoding="UTF-8"?>
<svg xmlns="http://www.w3.org/2000/svg" version="1.1" xmlns:cc="http://creativecommons.org/ns#" xmlns:dc="http://purl.org/dc/elements/1.1/" xmlns:inkscape="http://www.inkscape.org/namespaces/inkscape" xmlns:rdf="http://www.w3.org/1999/02/22-rdf-syntax-ns#" xmlns:sodipodi="http://sodipodi.sourceforge.net/DTD/sodipodi-0.dtd" xmlns:svg="http://www.w3.org/2000/svg" viewBox="0 0 115.3 114">
  <!-- Generator: Adobe Illustrator 29.3.1, SVG Export Plug-In . SVG Version: 2.1.0 Build 151)  -->
  <g id="Layer_1" sodipodi:docname="prometheus_logo_orange.svg">
    <sodipodi:namedview id="namedview4491" bordercolor="#666666" borderopacity="1" gridtolerance="10" guidetolerance="10" inkscape:current-layer="Layer_1" inkscape:cx="60.603667" inkscape:cy="60.329656" inkscape:pageopacity="0" inkscape:pageshadow="2" inkscape:window-height="886" inkscape:window-maximized="0" inkscape:window-width="1484" inkscape:window-x="54" inkscape:window-y="7" inkscape:zoom="5.2784901" objecttolerance="10" pagecolor="#ffffff" showgrid="false"/>
    <path d="M56.7.7C25.4.7,0,26,0,57.3s25.4,56.7,56.7,56.7,56.7-25.4,56.7-56.7S88,.7,56.7.7ZM56.7,106.7c-8.9,0-16.1-5.9-16.1-13.3h32.2c0,7.3-7.2,13.3-16.1,13.3ZM83.3,89H30v-9.7h53.3v9.7ZM83.1,74.4H30.2c-.2-.2-.4-.4-.5-.6-5.5-6.6-6.7-10.1-8-13.6,0-.1,6.6,1.4,11.3,2.4,0,0,2.4.6,6,1.2-3.4-4-5.4-9-5.4-14.2,0-11.4,8.7-21.3,5.6-29.3,3.1.2,6.3,6.5,6.6,16.2,3.3-4.5,4.6-12.7,4.6-17.7s3.4-11.3,6.9-11.5c-3.1,5,.8,9.4,4.2,20.1,1.3,4,1.1,10.8,2.1,15.1.3-8.9,1.9-22,7.5-26.5-2.5,5.7.4,12.8,2.3,16.2,3.2,5.5,5.1,9.7,5.1,17.5s-2,10.3-5.2,14.1c3.7-.7,6.3-1.3,6.3-1.3l12.2-2.4s-1.8,7.3-8.5,14.3Z"/>
  </g>
</svg>