<?xml version="1.0" encoding="UTF-8"?>
<svg id="Layer_1" xmlns="http://www.w3.org/2000/svg" version="1.1" viewBox="0 0 6.3 5.7">
  <!-- Generator: Adobe Illustrator 29.3.1, SVG Export Plug-In . SVG Version: 2.1.0 Build 151)  -->
  <defs>
    <style>
      .st0 {
        opacity: .3;
      }

      .st1 {
        opacity: .8;
      }

      .st2 {
        opacity: .7;
      }
    </style>
  </defs>
  <g id="Page-1">
    <g id="sketch-symbol">
      <g id="Group">
        <polygon id="Path" points="1.3 2 3.2 5.7 0 2 1.3 2"/>
        <polygon id="Path1" data-name="Path" points="5 2 3.2 5.7 6.3 2 5 2"/>
        <polygon id="Path2" data-name="Path" class="st1" points="1.3 2 5 2 3.2 5.7 1.3 2"/>
      </g>
      <g id="Group1" data-name="Group">
        <polygon id="Path3" data-name="Path" class="st2" points="3.2 0 1.4 .2 1.3 2 3.2 0"/>
        <polygon id="Path4" data-name="Path" class="st2" points="3.2 0 4.9 .2 5 2 3.2 0"/>
        <polygon id="Path5" data-name="Path" class="st1" points="6.3 2 4.9 .2 5 2 6.3 2"/>
        <polygon id="Path6" data-name="Path" class="st1" points="0 2 1.4 .2 1.3 2 0 2"/>
        <polygon id="Path7" data-name="Path" class="st0" points="3.2 0 1.3 2 5 2 3.2 0"/>
      </g>
    </g>
  </g>
</svg>