<?xml version="1.0" encoding="UTF-8" standalone="no"?>
<!DOCTYPE svg PUBLIC "-//W3C//DTD SVG 1.1//EN" "http://www.w3.org/Graphics/SVG/1.1/DTD/svg11.dtd">
<svg width="100%" height="100%" viewBox="0 0 35 21" version="1.1" xmlns="http://www.w3.org/2000/svg" xmlns:xlink="http://www.w3.org/1999/xlink" xml:space="preserve" xmlns:serif="http://www.serif.com/" style="fill-rule:evenodd;clip-rule:evenodd;stroke-linejoin:round;stroke-miterlimit:2;">
    <path d="M17.183,0C12.6,0 9.737,2.291 8.59,6.873C10.309,4.583 12.313,3.723 14.604,4.296C15.911,4.622 16.846,5.57 17.879,6.62C19.564,8.33 21.514,10.309 25.773,10.309C30.355,10.309 33.218,8.018 34.364,3.437C32.646,5.727 30.641,6.587 28.351,6.013C27.043,5.687 26.108,4.739 25.075,3.689C23.39,1.98 21.44,0 17.183,0ZM8.59,10.309C4.01,10.309 1.145,12.6 0,17.182C1.718,14.891 3.723,14.032 6.013,14.605C7.321,14.931 8.256,15.879 9.289,16.929C10.974,18.639 12.924,20.618 17.183,20.618C21.765,20.618 24.628,18.328 25.773,13.746C24.055,16.036 22.051,16.896 19.76,16.323C18.453,15.996 17.518,15.047 16.484,13.998C14.8,12.288 12.85,10.309 8.591,10.309L8.59,10.309Z" style="fill-rule:nonzero;"/>
</svg>
