<?xml version="1.0" encoding="UTF-8"?>
<svg id="Layer_1" xmlns="http://www.w3.org/2000/svg" version="1.1" viewBox="0 0 512 512">
  <!-- Generator: Adobe Illustrator 29.3.1, SVG Export Plug-In . SVG Version: 2.1.0 Build 151)  -->
  <path d="M435.2,0H76.8C34.4,0,0,34.4,0,76.8v358.4c0,42.4,34.4,76.8,76.8,76.8h358.4c42.4,0,76.8-34.4,76.8-76.8V76.8c0-42.4-34.4-76.8-76.8-76.8ZM297,284h-64v183h-51v-183h-64v-41h179v41ZM462,434.1c-4,9-10.9,15.7-19,21-8,4.9-17,8.7-28,11s-22,3.4-34,3.4-24-1-35-3.1c-11-2.1-20.9-5.2-29-9.4v-48c7.1,5.9,17.1,11.6,28.1,15.4,10,3.8,21,5.7,32,5.7s12.3-.6,17-1.7c4.9-1.2,8.8-2.8,12-4.8s5.6-4.4,7.1-7.2c1.5-2.8,2.3-5.8,2.3-9,0-4.6-1.3-8.6-3.8-12-2.3-3.4-5.7-6.6-10-9.5-4-2.9-9-5.7-15-8.4-6-2.7-12.1-5.5-19-8.3-17-8-30.4-16-39-27-8.7-10-13-23-13-38s2.3-21.6,7-30c5-9,10.9-15.6,19-21,8-5.5,17-9.5,28-12s22-3.8,34-3.8,22,.7,31,2.1c9,1.4,17.4,3.6,25,6.5v47c-3.5-2.6-7.6-4.9-12-6.9-4.7-2-9.3-3.6-14-4.9s-9.4-2.3-14-2.9c-4.4-.6-8.8-.9-13-.9-6.1,0-11.3.5-16,1.6-4.8,1.1-8.8,2.6-12,4.6s-5.7,4.3-7.5,7.1-2.7,5.9-2.7,9.3,1,7,3,10c2,2.9,4.8,5.7,8.5,8.4,3.3,2.6,7.8,5.2,13,7.8,6,2.6,11.4,5.2,18,7.9,9,3.8,17,8,24,12s12.9,8.7,18,14c5.4,5,9.3,11,12,18s4.1,14.9,4.1,24c0,13-3.1,23-7.1,32Z"/>
</svg>