<?xml version="1.0" encoding="UTF-8"?>
<svg id="Layer_1" xmlns="http://www.w3.org/2000/svg" version="1.1" viewBox="0 0 100 100">
  <!-- Generator: Adobe Illustrator 29.3.1, SVG Export Plug-In . SVG Version: 2.1.0 Build 151)  -->
  <defs>
    <style>
      .st0 {
        opacity: .9;
      }

      .st1 {
        fill: #1f9cf0;
      }

      .st2 {
        fill: none;
      }

      .st3 {
        opacity: .8;
      }

      .st4 {
        fill: #007acc;
      }
    </style>
  </defs>
  <polygon class="st2" points="75 72.7 75 27.3 45.1 50 75 72.7"/>
  <path class="st2" d="M69.2,1.7c-.2.1-.3.2-.5.4.1-.1.3-.3.5-.4,0,0,0,0,0,0Z"/>
  <path d="M75,27.3V4.7c0-3.1-3.5-4.7-5.8-3-.2.1-.3.2-.5.4L29.3,38l15.8,12,29.9-22.7Z"/>
  <path d="M1.3,63.6c-1.8,1.7-1.8,4.5,0,6.2l5.5,5c1.5,1.4,3.7,1.4,5.3.2l17.2-13-13.1-12L1.3,63.6Z"/>
  <path class="st4" d="M69.2,98.3c.1.1.3.2.4.3-.2-.1-.3-.2-.4-.3,0,0,0,0,0,0Z"/>
  <path class="st0" d="M45.1,50l-15.8-12-17.2-13c-1.6-1.2-3.8-1.1-5.3.2l-5.5,5c-1.8,1.7-1.8,4.5,0,6.2l14.9,13.6,13.1,12,39.4,36s0,0,0,0c0,0,0,0,0,0,.1.1.3.3.5.4,2.3,1.7,5.8,0,5.8-3v-22.6l-29.9-22.7Z"/>
  <path class="st1" d="M68.8,2.1c.1-.1.3-.3.5-.4-.2.1-.3.2-.5.4Z"/>
  <path class="st1" d="M69.2,98.3c-.2-.1-.3-.2-.4-.4.1.1.3.3.4.4Z"/>
  <path class="st1" d="M96.5,10.8L75.9.9c-2.2-1.1-4.8-.7-6.6.8,0,0,0,0,0,0,1.9-1.5,4.4-1.9,6.6-.8l20.6,9.9c2.2,1,3.5,3.2,3.5,5.6h0c0-2.4-1.4-4.6-3.5-5.6Z"/>
  <path class="st1" d="M96.5,89.2l-20.6,9.9c-2,1-4.4.8-6.2-.5,1.8,1.2,4.2,1.5,6.2.5l20.6-9.9c2.2-1,3.5-3.2,3.5-5.6h0c0,2.4-1.4,4.6-3.5,5.6Z"/>
  <path class="st3" d="M96.5,10.8L75.9.9c-2.2-1.1-4.8-.7-6.6.8,2.3-1.7,5.8,0,5.8,3v90.7c0,3.1-3.5,4.7-5.8,3,.1.1.3.2.4.3,1.8,1.2,4.2,1.5,6.2.5l20.6-9.9c2.2-1,3.5-3.2,3.5-5.6V16.4c0-2.4-1.4-4.6-3.5-5.6Z"/>
  <path class="st1" d="M68.8,97.9s0,0,0,0c.1.1.3.3.4.4,0,0,0,0,0,0-.2-.1-.3-.2-.5-.4Z"/>
</svg>