<?xml version="1.0" encoding="UTF-8"?>
<svg id="Layer_1" xmlns="http://www.w3.org/2000/svg" version="1.1" viewBox="0 0 34 34">
  <!-- Generator: Adobe Illustrator 29.3.1, SVG Export Plug-In . SVG Version: 2.1.0 Build 151)  -->
  <defs>
    <style>
      .st0 {
        opacity: .4;
      }
    </style>
  </defs>
  <path class="st0" d="M17,25.5c-4.5,0-8.2-3.7-8.2-8.2s3.7-8.2,8.2-8.2,8.2,3.7,8.2,8.2-3.7,8.2-8.2,8.2ZM17,11c-3.4,0-6.2,2.8-6.2,6.2s2.8,6.2,6.2,6.2,6.2-2.8,6.2-6.2-2.8-6.2-6.2-6.2Z"/>
  <path d="M17,21.4c-2.3,0-4.2-1.9-4.2-4.2s1.9-4.2,4.2-4.2,4.2,1.9,4.2,4.2-1.9,4.2-4.2,4.2ZM17,15c-1.2,0-2.2,1-2.2,2.2s1,2.2,2.2,2.2,2.2-1,2.2-2.2-1-2.2-2.2-2.2Z"/>
  <path d="M17,29.7c-6.9,0-12.5-5.6-12.5-12.5s5.6-12.5,12.5-12.5,12.5,5.6,12.5,12.5-5.6,12.5-12.5,12.5ZM17,6.7c-5.8,0-10.5,4.7-10.5,10.5s4.7,10.5,10.5,10.5,10.5-4.7,10.5-10.5-4.7-10.5-10.5-10.5Z"/>
  <path d="M20,6.7c-.6,0-1-.4-1-1v-2.7c0-.4-.3-.8-.8-.8h-2.5c-.4,0-.8.3-.8.8v2.7c0,.6-.4,1-1,1s-1-.4-1-1v-2.7c0-1.5,1.2-2.8,2.8-2.8h2.5c1.5,0,2.8,1.2,2.8,2.8v2.7c0,.6-.4,1-1,1Z"/>
  <path d="M7.3,11.3c-.3,0-.6-.1-.8-.4l-1.7-2.1c-.5-.6-.7-1.3-.6-2s.4-1.4,1-1.9l1.9-1.6c.6-.5,1.3-.7,2-.6.7,0,1.4.4,1.9,1l1.7,2.1c.4.4.3,1.1-.1,1.4-.4.4-1.1.3-1.4-.1l-1.7-2.1c-.1-.2-.3-.3-.5-.3-.2,0-.4,0-.6.2l-1.9,1.6c-.2.1-.3.3-.3.5,0,.2,0,.4.2.6l1.7,2.1c.4.4.3,1.1-.1,1.4-.2.2-.4.2-.6.2Z"/>
  <path d="M5.1,19.2c0,0-.1,0-.2,0l-2.7-.5c-.7-.1-1.4-.5-1.8-1.1-.4-.6-.6-1.3-.5-2.1l.4-2.5c.3-1.5,1.7-2.5,3.2-2.2l2.7.5c.5,0,.9.6.8,1.2,0,.5-.6.9-1.2.8l-2.7-.5c-.2,0-.4,0-.6.1-.2.1-.3.3-.3.5l-.4,2.5c0,.2,0,.4.1.6.1.2.3.3.5.3l2.7.5c.5,0,.9.6.8,1.2,0,.5-.5.8-1,.8Z"/>
  <path d="M5.3,28.2c-.2,0-.5,0-.7,0-.7-.2-1.3-.6-1.7-1.3l-1.3-2.2c-.8-1.3-.3-3,1-3.8l2.3-1.4c.5-.3,1.1-.1,1.4.4.3.5.1,1.1-.4,1.4l-2.3,1.4c-.4.2-.5.7-.3,1l1.3,2.2c.1.2.3.3.5.4.2,0,.4,0,.6,0l2.3-1.4c.5-.3,1.1-.1,1.4.4.3.5.1,1.1-.4,1.4l-2.3,1.4c-.4.2-.9.4-1.4.4Z"/>
  <path d="M13.3,33.8c-.3,0-.6,0-.9-.2l-2.4-.9c-1.4-.5-2.2-2.1-1.6-3.5l.9-2.5c.2-.5.8-.8,1.3-.6.5.2.8.8.6,1.3l-.9,2.5c-.1.4,0,.8.5,1l2.4.9c.4.1.8,0,1-.5l.9-2.5c.2-.5.8-.8,1.3-.6.5.2.8.8.6,1.3l-.9,2.5c-.4,1.1-1.5,1.8-2.6,1.8Z"/>
  <path d="M20.7,33.8c-.4,0-.8,0-1.2-.3-.7-.3-1.2-.9-1.4-1.6l-.9-2.5c-.2-.5,0-1.1.6-1.3.5-.2,1.1,0,1.3.6l.9,2.5c0,.2.2.3.4.4.2,0,.4,0,.6,0l2.4-.9c.4-.1.6-.6.5-1l-.9-2.5c-.2-.5,0-1.1.6-1.3.5-.2,1.1,0,1.3.6l.9,2.5c.3.7.2,1.4,0,2.1-.3.7-.9,1.2-1.6,1.4l-2.4.9c-.3.1-.6.2-.9.2Z"/>
  <path d="M28.7,28.2c-.5,0-.9-.1-1.4-.4l-2.3-1.4c-.5-.3-.6-.9-.4-1.4.3-.5.9-.6,1.4-.4l2.3,1.4c.2.1.4.1.6,0,.2,0,.4-.2.5-.4l1.3-2.2c.1-.2.1-.4,0-.6,0-.2-.2-.4-.4-.5l-2.3-1.4c-.5-.3-.6-.9-.4-1.4.3-.5.9-.6,1.4-.4l2.3,1.4c1.3.8,1.8,2.5,1,3.8l-1.3,2.2c-.5.9-1.4,1.4-2.4,1.4Z"/>
  <path d="M28.9,19.2c-.5,0-.9-.3-1-.8,0-.5.3-1.1.8-1.2l2.7-.5c.2,0,.4-.1.5-.3.1-.2.2-.4.1-.6l-.4-2.5c0-.4-.5-.7-.9-.6l-2.7.5c-.5,0-1.1-.3-1.2-.8,0-.5.3-1.1.8-1.2l2.7-.5c1.5-.3,2.9.7,3.2,2.2l.4,2.5c.1.7,0,1.5-.5,2.1-.4.6-1.1,1-1.8,1.1l-2.7.5c0,0-.1,0-.2,0Z"/>
  <path d="M26.7,11.3c-.2,0-.5,0-.6-.2-.4-.4-.5-1-.1-1.4l1.7-2.1c.3-.3.2-.8,0-1.1l-1.9-1.6c-.3-.3-.8-.2-1.1,0l-1.7,2.1c-.4.4-1,.5-1.4.1-.4-.4-.5-1-.1-1.4l1.7-2.1c1-1.2,2.7-1.3,3.9-.3l1.9,1.6c.6.5.9,1.1,1,1.9,0,.7-.2,1.4-.6,2l-1.7,2.1c-.2.2-.5.4-.8.4Z"/>
</svg>