<?xml version="1.0" encoding="UTF-8"?>
<svg id="Layer_1" xmlns="http://www.w3.org/2000/svg" version="1.1" viewBox="0 0 34 34">
  <!-- Generator: Adobe Illustrator 29.3.1, SVG Export Plug-In . SVG Version: 2.1.0 Build 151)  -->
  <defs>
    <style>
      .st0 {
        opacity: .4;
      }
    </style>
  </defs>
  <path d="M17,24.4c-.2,0-.4,0-.5-.1L.5,14.8C.2,14.6,0,14.3,0,13.9s.2-.7.5-.9L16.5,3.6c.3-.2.7-.2,1,0l16,9.4c.3.2.5.5.5.9s-.2.7-.5.9l-16,9.4c-.2,0-.3.1-.5.1ZM3,13.9l14,8.3,14-8.3-14-8.3L3,13.9Z"/>
  <path d="M17,30.5c-.2,0-.4,0-.5-.1l-9.1-5.4c-.3-.2-.5-.5-.5-.9v-5.6c0-.6.4-1,1-1s1,.4,1,1v5l8.1,4.8,8.1-4.8v-5c0-.6.4-1,1-1s1,.4,1,1v5.6c0,.4-.2.7-.5.9l-9.1,5.4c-.2,0-.3.1-.5.1Z"/>
  <path class="st0" d="M31.9,18.4v-3.3c0-.6-.4-1-1-1s-1,.4-1,1v3.3c-1.2.4-2.1,1.5-2.1,2.9s1.4,3.1,3.1,3.1,3.1-1.4,3.1-3.1-.8-2.5-2.1-2.9ZM30.9,22.4c-.6,0-1.1-.5-1.1-1.1s.5-1.1,1.1-1.1c1,0,1.1.8,1.1,1.1,0,.6-.5,1.1-1.1,1.1Z"/>
</svg>