<?xml version="1.0" encoding="UTF-8"?>
<svg id="Layer_1" xmlns="http://www.w3.org/2000/svg" version="1.1" viewBox="0 0 34 34">
  <!-- Generator: Adobe Illustrator 29.3.1, SVG Export Plug-In . SVG Version: 2.1.0 Build 151)  -->
  <defs>
    <style>
      .st0 {
        opacity: .4;
      }
    </style>
  </defs>
  <path d="M29.2,34H4.8c-.6,0-1-.4-1-1V13.6c0-.6.4-1,1-1s1,.4,1,1v18.4h22.5V13.6c0-.6.4-1,1-1s1,.4,1,1v19.4c0,.6-.4,1-1,1Z"/>
  <g>
    <path class="st0" d="M21.2,34c-.6,0-1-.4-1-1v-7.6c0-1.9-1.4-3.4-3.2-3.4s-3.2,1.5-3.2,3.4v7.6c0,.6-.4,1-1,1s-1-.4-1-1v-7.6c0-3,2.3-5.4,5.2-5.4s5.2,2.4,5.2,5.4v7.6c0,.6-.4,1-1,1Z"/>
    <path d="M33,18c-.3,0-.5,0-.7-.3L17,2.4,1.7,17.7c-.4.4-1,.4-1.4,0s-.4-1,0-1.4L16.3.3c.4-.4,1-.4,1.4,0l16,16c.4.4.4,1,0,1.4s-.5.3-.7.3Z"/>
    <path class="st0" d="M17,17.5c-2.1,0-3.9-1.7-3.9-3.9s1.7-3.9,3.9-3.9,3.9,1.7,3.9,3.9-1.7,3.9-3.9,3.9ZM17,11.7c-1,0-1.9.9-1.9,1.9s.9,1.9,1.9,1.9,1.9-.9,1.9-1.9-.9-1.9-1.9-1.9Z"/>
  </g>
</svg>