<?xml version="1.0" encoding="UTF-8" standalone="no"?>
<!DOCTYPE svg PUBLIC "-//W3C//DTD SVG 1.1//EN" "http://www.w3.org/Graphics/SVG/1.1/DTD/svg11.dtd">
<svg width="100%" height="100%" viewBox="0 0 16 16" version="1.1" xmlns="http://www.w3.org/2000/svg" xmlns:xlink="http://www.w3.org/1999/xlink" xml:space="preserve" xmlns:serif="http://www.serif.com/" style="fill-rule:evenodd;clip-rule:evenodd;stroke-linejoin:round;stroke-miterlimit:2;">
    <g transform="matrix(0.74255,0.74255,-0.74255,0.74255,7.997179,0.137845)">
        <path d="M4.239,11.436C4.239,11.609 4.17,11.775 4.047,11.897L3.081,12.86C2.895,13.045 2.615,13.101 2.372,13C2.129,12.899 1.971,12.662 1.971,12.399L1.971,2.643C1.971,2.284 2.263,1.992 2.622,1.992L12.412,1.992C12.675,1.992 12.913,2.151 13.013,2.394C13.114,2.638 13.058,2.918 12.871,3.104L11.87,4.102C11.748,4.223 11.583,4.291 11.411,4.291L4.89,4.291C4.717,4.291 4.552,4.36 4.429,4.482C4.307,4.604 4.239,4.77 4.239,4.942L4.239,11.436Z" style="fill:rgb(1,157,168);"/>
    </g>
</svg>
