<?xml version="1.0" encoding="UTF-8"?>
<svg id="Layer_1" xmlns="http://www.w3.org/2000/svg" version="1.1" viewBox="0 0 34 34">
  <!-- Generator: Adobe Illustrator 29.3.1, SVG Export Plug-In . SVG Version: 2.1.0 Build 151)  -->
  <defs>
    <style>
      .st0 {
        opacity: .4;
      }
    </style>
  </defs>
  <path d="M30.2,34H3.8C1.7,34,0,32.3,0,30.2V11.8C0,9.7,1.7,8,3.8,8h26.4c2.1,0,3.8,1.7,3.8,3.8v18.4c0,2.1-1.7,3.8-3.8,3.8ZM3.8,10c-1,0-1.8.8-1.8,1.8v18.4c0,1,.8,1.8,1.8,1.8h26.4c1,0,1.8-.8,1.8-1.8V11.8c0-1-.8-1.8-1.8-1.8H3.8Z"/>
  <path d="M24.4,8.8c-.6,0-1-.4-1-1v-2.8c0-1.7-1.6-3-3.5-3h-5.7c-1.9,0-3.5,1.4-3.5,3v2.8c0,.6-.4,1-1,1s-1-.4-1-1v-2.8C8.6,2.2,11.1,0,14.1,0h5.7C22.9,0,25.4,2.2,25.4,5v2.8c0,.6-.4,1-1,1Z"/>
  <path d="M20.6,8.8c-.6,0-1-.4-1-1v-2.3s0,0-.2,0h-4.8c-.1,0-.2,0-.2,0v2.2c0,.6-.4,1-1,1s-1-.4-1-1v-2.3c0-1.1,1-2,2.2-2h4.8c1.2,0,2.2.9,2.2,2v2.3c0,.6-.4,1-1,1Z"/>
  <path class="st0" d="M26.3,17H7.7c-.6,0-1-.4-1-1s.4-1,1-1h18.6c.6,0,1,.4,1,1s-.4,1-1,1Z"/>
  <path class="st0" d="M26.3,27H7.7c-.6,0-1-.4-1-1s.4-1,1-1h18.6c.6,0,1,.4,1,1s-.4,1-1,1Z"/>
</svg>